<?xml version="1.0" encoding="utf-8"?>
<!-- Generator: Adobe Illustrator 25.4.1, SVG Export Plug-In . SVG Version: 6.00 Build 0)  -->
<svg version="1.1" id="Warstwa_1" xmlns="http://www.w3.org/2000/svg" xmlns:xlink="http://www.w3.org/1999/xlink" x="0px" y="0px"
	 viewBox="0 0 135.7 30.3" style="enable-background:new 0 0 135.7 30.3;" xml:space="preserve">
<g>
	<path d="M13.7,17.3c1,4.9-5.3,7.6-5,3.8c2.2,0,2.9-0.8,2.9-2.9c0,0,0-10.8,0-10.8c0.1,0,0.2,0,0.3-0.1c0.8-0.1,1.8,0.2,1.7,1.3
		C13.6,8.6,13.6,17.3,13.7,17.3L13.7,17.3z"/>
	<path d="M20.1,14.1h5.1v1.7h-5.1v5.3c1.3,0.4,7.7-1.2,7.1,1.5v0.2h-9.1V7.7h8.7c0.6,2.8-5.5,1.2-6.8,1.6L20.1,14.1L20.1,14.1z"/>
	<path d="M39.6,19.9V7.8c0.3,0,0.7-0.1,1,0.1c1.7-0.3,0.4,14.2,0.8,15h-1.8l-7.7-11.7v11.7h-1.8v-15c0.7-0.2,1.9-0.2,2.2,0.7
		C32.3,8.6,39.6,19.9,39.6,19.9z"/>
	<path d="M64.6,16.6v6.2h-2v-6.2l-4.8-8.7c0.8-0.4,2.3-0.5,2.6,0.6c0,0,3.3,6.2,3.3,6.2c1.2-1.4,3.1-8.2,5.8-7L64.6,16.6z"/>
	<path d="M79,13.8h5.1c0.6,2.7-3.7,1.4-5.1,1.7v7.2h-2V7.6h8.7c0.6,2.8-5.5,1.2-6.8,1.6L79,13.8L79,13.8z"/>
	<path d="M90.7,9.8L88.4,17H93L90.7,9.8z M94.9,22.6l-1.4-4.1h-5.6l-1.3,4.1h-1.8l5-14.9c0.8-0.3,1.9-0.4,2.2,0.7
		c0,0,4.8,14.2,4.8,14.2H94.9z"/>
	<path d="M101.4,22.6h-2V7.5c0.3,0,0.7-0.1,1,0.1c0.6,0.1,1.1,0.6,1,1.3C101.4,8.9,101.4,22.6,101.4,22.6L101.4,22.6z"/>
	<path d="M112.6,11.8c0.2-2.9-3.3-2.9-5.3-2.6l0,0v5.6C109.5,14.9,112.8,14.8,112.6,11.8 M114.6,11.7c0,2-1.2,4-3.3,4.4l4.1,6.5
		c-2.7,1.6-4.8-5-6.1-6.2h-2v6.2h-2v-15C109,7.2,114.8,6.9,114.6,11.7"/>
	<path d="M122.8,16.4v6.2h-2v-6.2L116,7.7c0.8-0.4,2.3-0.5,2.6,0.6c0,0,3.3,6.2,3.3,6.2c1.2-1.4,3.1-8.2,5.8-7L122.8,16.4z"/>
	<path d="M54.3,19.9V7.8c0,0,0.1,0,0.2,0c0,0,0.1,0,0.2,0c0.1,0,0.1,0,0.2,0c0.1,0,0.3,0,0.4,0.1c0.1,0,0.3,0.1,0.4,0.2
		c0.1,0.1,0.2,0.2,0.3,0.4s0.1,0.4,0.1,0.7v13.7h-1.8l-7.7-11.7v11.7h-1.8v-15c0.1,0,0.2-0.1,0.4-0.1s0.3,0,0.5,0
		c0.3,0,0.6,0.1,0.8,0.2c0.2,0.1,0.4,0.3,0.5,0.6L54.3,19.9z"/>
</g>
</svg>
