<?xml version="1.0" encoding="utf-8"?>
<!-- Generator: Adobe Illustrator 25.4.1, SVG Export Plug-In . SVG Version: 6.00 Build 0)  -->
<svg version="1.1" id="Warstwa_1" xmlns="http://www.w3.org/2000/svg" xmlns:xlink="http://www.w3.org/1999/xlink" x="0px" y="0px"
	 viewBox="0 0 395.5 92.9" style="enable-background:new 0 0 395.5 92.9;" xml:space="preserve">
<path d="M257.4,74.6v3.7l-2.4-3.8c-0.2-0.4-1.3-0.1-1.6-0.2c-0.7-0.3-0.1,6-0.3,6.2c-0.1,0.5,0.9,0.2,1.2,0.3
	c0.6,0.2,0.2-4.1,0.3-4.3c0.1,0.1,2.8,4.6,2.9,4.3c0.3-0.1,1.5,0.2,1.4-0.3c0,0,0-5.9,0-5.9C259,74.1,257.3,74.1,257.4,74.6
	 M247.3,79.6c-2.5,0.2-2.5-4.3,0-4C249.8,75.3,249.8,79.8,247.3,79.6 M247.3,80.9c4.5,0.3,4.6-7.1,0-6.8
	C242.8,73.8,242.8,81.1,247.3,80.9 M240.4,80.7c0.3-0.1,1.3,0.2,1.2-0.3c0,0,0-5.9,0-5.9c0.1-0.5-0.9-0.2-1.2-0.3
	c-0.2,0-0.3,0.1-0.3,0.3C240.3,74.7,239.8,80.8,240.4,80.7 M238.1,74.3c-0.2,0.1-5.3-0.3-5,0.3c-0.3,1.6,0.9,1,1.9,1.1v4.8
	c-0.1,0.5,0.9,0.2,1.2,0.3c0.6,0.3,0.2-4.9,0.3-5.1c0.3-0.1,2,0.3,1.9-0.3C238.4,75.1,238.6,74.2,238.1,74.3 M229.4,80.9
	c1.3-0.1,3.2-0.4,2-1.7c-0.5-0.4-1.3,0.6-2.1,0.4c-4-0.4-1.4-6,1.7-3.4c0.1,0.1,0.3,0.1,0.4-0.1c1.2-1.3-0.8-1.9-2.1-1.9
	C224.6,73.8,224.9,81.2,229.4,80.9 M224.5,75.4c-0.1-0.3,0.2-1.2-0.3-1.1c0,0-4.4,0-4.4,0c-0.7-0.3-0.1,6-0.3,6.2
	c0,0.2,0.1,0.3,0.3,0.3c0.2-0.2,4.8,0.4,4.6-0.3c-0.1-0.3,0.2-1.1-0.3-1.1c0,0-3.2,0-3.2,0V78h2.7c0.5,0,0.3-0.7,0.3-1
	c0.1-0.6-2.8-0.2-3-0.3v-1.2C221.2,75.4,224.5,75.7,224.5,75.4 M214.9,79.4v-4.8c0.1-0.5-1.6-0.5-1.5,0c0,0,0,5.9,0,5.9
	c-0.2,0.6,4,0.2,4.2,0.3c0.5,0.1,0.2-0.8,0.3-1.1C218.1,79,215.2,79.5,214.9,79.4L214.9,79.4z M208.6,79.4v-4.8
	c0.1-0.5-1.6-0.5-1.5,0c0,0,0,5.9,0,5.9c-0.2,0.6,4,0.2,4.2,0.3c0.5,0.1,0.2-0.8,0.3-1.1C211.8,79,208.9,79.5,208.6,79.4L208.6,79.4
	z M201.4,79.6c-2.5,0.2-2.5-4.3,0-4C203.9,75.4,204,79.8,201.4,79.6 M201.4,80.9c4.5,0.3,4.6-7.1,0-6.8
	C196.9,73.8,196.9,81.1,201.4,80.9 M193.9,80.9c1.3-0.1,3.2-0.4,2-1.7c-0.5-0.4-1.3,0.6-2.1,0.4c-4-0.4-1.4-6,1.7-3.4
	c0.1,0.1,0.3,0.1,0.4-0.1c1.2-1.3-0.8-1.9-2.1-1.9C189.1,73.8,189.4,81.2,193.9,80.9 M185.5,75.4c-0.1-0.3,0.2-1.2-0.3-1.1
	c0,0-4.4,0-4.4,0c-0.7-0.3-0.1,6-0.3,6.2c0,0.2,0.1,0.3,0.3,0.3c0.2-0.2,4.8,0.4,4.6-0.3c-0.1-0.3,0.2-1.1-0.3-1.1c0,0-3.2,0-3.2,0
	V78h2.7c0.5,0,0.3-0.7,0.3-1c0.1-0.6-2.8-0.2-3-0.3v-1.2C182.2,75.4,185.5,75.7,185.5,75.4 M175.8,79.4v-4.8c0.1-0.5-1.6-0.5-1.5,0
	c0,0,0,5.9,0,5.9c-0.2,0.6,4,0.2,4.2,0.3c0.5,0.1,0.2-0.8,0.3-1.1C179,79,176.1,79.5,175.8,79.4L175.8,79.4z M168.9,80.9
	c3,0.4,3.1-3.8,2.9-6.3c0.1-0.5-0.9-0.2-1.2-0.3c-0.6-0.2-0.2,3.1-0.3,3.3c0.2,2.7-3,2.7-2.8,0c0,0,0-3,0-3c0.1-0.5-0.9-0.2-1.2-0.3
	c-0.6-0.2-0.2,3.1-0.3,3.3C166.1,80.1,167.5,80.9,168.9,80.9 M161.4,80.9c3,0.2,3.9-3.5,0.5-4c-1.1-0.3-1.4-0.5-1.4-0.9
	c0.1-0.9,2.4-0.6,2.7-0.1c0.2,0.1,0.3,0.1,0.4-0.1c1.2-1.4-0.7-1.7-2.2-1.8c-2.6-0.2-3.6,3.3-0.4,4c2,0.3,2,1.4,0.4,1.5
	c-0.8,0.2-1.7-0.8-2.2-0.4C158,80.5,160.1,80.8,161.4,80.9 M154.4,77.3h-0.8v-1.7C155.8,75.1,157.4,77,154.4,77.3 M154.5,74.3
	c-0.3,0.1-2.5-0.3-2.4,0.3c0,0,0,5.9,0,5.9c-0.1,0.5,0.9,0.2,1.2,0.3c0.6,0.1,0.2-1.8,0.3-2.1C157.9,79.6,159.3,74.2,154.5,74.3
	 M146.1,78.3l0.8-2.3l0.8,2.3H146.1z M148.9,80.7c0.2-0.1,1.5,0.2,1.2-0.3c0,0-2.3-5.9-2.3-5.9c-0.1-0.4-1.1-0.1-1.4-0.2
	c-0.2-0.5-2.5,6.1-2.6,6.1c-0.1,0.2,0,0.3,0.2,0.3c1.3,0.2,1.2-0.3,1.6-1.3h2.5C148.2,79.6,148.5,80.8,148.9,80.7 M140.1,80.9
	c1.3-0.1,3.2-0.4,2-1.7c-0.1-0.2-0.2-0.2-0.4-0.1c-3.1,2.3-5.7-3.2-1.7-3.5c0.9-0.2,1.5,0.9,2.1,0.5c0.1-0.3,0.8-0.9,0.3-1.1
	C137.2,71.1,133.5,80.7,140.1,80.9"/>
<path d="M335,23.4v0.8c2.1-0.7,9.8,12.4,11,13.5c-0.4,0.8,1,9.6-1,9v0.8h7.3v-0.8c-0.7,0-1.1-0.3-1.1-0.8v-8.2l7.8-11.1
	c0.9-1.3,1.4-2.4,3-2.4v-0.8h-8.1v0.8c1.8-0.1,1.1,1,0.4,2c0,0-5.4,7.4-5.4,7.4c-0.4-1.5-8.4-9.5-4.6-9.3v-0.8H335V23.4z M324,32.8
	h-14.8c0.3-0.7-0.9-9,0.9-8.6v-0.8h-7v0.8c2-1.3,0.4,21.5,0.9,21.7c0,0.6-0.3,0.8-0.9,0.8v0.8h7v-0.8c-1.8,0.5-0.6-8.8-0.9-9.5H324
	v8.7c0,0.6-0.3,0.8-1,0.8v0.8h7.1v-0.8c-2,1.2-0.5-21.4-0.9-21.7c0-0.6,0.5-0.7,0.9-0.8v-0.8H323v0.8C325,23.6,323.6,32,324,32.8z
	 M271.2,45.5l0.6,0.4c0.5-0.6,1-0.4,1.8-0.1c5,2.3,12,2.5,17.4,0.3c6.5-2.3,5.7-12.2-1.4-12.8c-3.1-0.7-18.3-0.4-10.6-5.8
	c3.9-1.3,11.2-0.9,12.9,3.4l0.5,0.2l3.2-5.8l-0.6-0.4c-1.4,0.9-2.9-0.5-4.6-0.9c-3.5-1.2-8.7-1.8-12.3-0.5
	c-7.7,1.4-8.4,12.6-0.3,13.5c3.8,1.6,11.1-1.1,12.7,3.3c-1.4,5.2-14.2,3.8-16.1-0.4l-0.5-0.2L271.2,45.5z M250.8,28.3v-6.1H250
	c0.8,2.4-21.9,0.6-22.8,1.1v0.8c2-1.2,0.5,21.4,0.9,21.7c0,0.6-0.5,0.7-0.9,0.8v0.8c0.8,0.5,23.8-1.1,23,0.9h0.8V42h-0.8
	c0.7,2.5-15.9,0.7-16.9,1.2V37c1.5,0.5,11.7-1.4,10.9,1.7h0.8v-7.2h-0.8c0.7,3-9.5,1.1-10.9,1.6v-5.7c1.2,0.5,17-1.2,16.7,1.1h0.8
	V28.3z M193.8,23.4v0.8c0.9,0,1.3,0.3,1.3,0.8v20.9c0,0.6-0.4,0.8-1.3,0.8v0.8c3-0.2,18.2,0.4,20.8-0.5c6.8-1.3,7-10.8,0.1-12v0
	c5.2-1,6.1-8,1.2-10.1c-4.7-2.5-16.9-1-22.1-1.4V23.4z M200.4,43.3v-6.5c3.6,0.6,13.8-2.1,14.3,3.3
	C214.4,45.4,203.9,42.8,200.4,43.3L200.4,43.3z M200.4,32.8v-5.5c3,0.6,13.4-1.9,13.6,2.7C214,34.6,203.3,32.1,200.4,32.8
	L200.4,32.8z M164.5,27.6c1,0.4,9.1-1,8.8,1.1h0.8v-6.4h-0.8c0.1,0.7-0.6,1.2-1.2,1.1c-0.5-0.5-23,1.2-21.6-1.1h-0.8v6.4h0.8
	c-0.4-2.1,7.8-0.7,8.8-1.1c-0.4,0.6,1.1,19.9-0.9,19.1v0.8h7.1v-0.8C163.4,48,165,27.9,164.5,27.6L164.5,27.6z M137.1,35.8
	c5.8-0.5,11.3-12,3.6-13.3c-4.2,0.2-3.7,7,0.7,6.2c1.9,1.9-2.5,5.1-4.3,5.5L137.1,35.8L137.1,35.8z M103.4,47.6h6.8v-0.8
	c-0.7,0-1.1-0.3-1.1-0.8V30.7c-0.1,0.6,17.3,16.3,14.1,16.1v0.8h7.5v-0.8c-2,1.3-0.4-21.6-0.9-21.8c0-0.6,0.3-0.8,0.9-0.8v-0.8h-7
	v0.8c0.8,0,1.2,0.3,1.2,0.8v14.6c-0.1-0.8-16-15.2-13.6-15.5v-0.8h-7.9v0.8c2-1.3,0.4,21.5,0.9,21.7c0,0.6-0.3,0.8-0.9,0.8V47.6z
	 M76.1,23.8c-19.3,6.6-6.6,28.8,10.4,23.1C105.9,40.6,92.9,17.9,76.1,23.8 M84.8,27.9c12.8,4.2,4,19.6-7,15.4
	C65,39.1,73.8,23.7,84.8,27.9 M33.5,23.4v0.8c2.3-1.6,0.6,21.4,1.1,21.7c0,0.6-0.4,0.8-1.1,0.8v0.8c9.8-0.3,28,3.2,27.2-12.1
	c0.8-15.3-17.4-11.8-27.2-12.1V23.4z M39.9,43.6V27.3c6.3-0.1,16.8-1.3,15.7,8.2C56.7,44.9,46.3,43.8,39.9,43.6L39.9,43.6z"/>
</svg>
