<svg xmlns="http://www.w3.org/2000/svg" width="80" height="80" viewBox="0 0 80 80">
  <g id="Group_1" data-name="Group 1" transform="translate(-11 -8)">
    <g id="Ellipse_1" data-name="Ellipse 1" transform="translate(11 8)" fill="none" stroke="#fff" stroke-width="1">
      <circle cx="40" cy="40" r="40" stroke="none"/>
      <circle cx="40" cy="40" r="39.5" fill="none"/>
    </g>
    <path id="Path_2" data-name="Path 2" d="M-14.15-7.041h-3.256a1.2,1.2,0,0,0-.575-.978A3.08,3.08,0,0,0-19.466-8.3a3.567,3.567,0,0,0-1.556.274.85.85,0,0,0-.551.778q0,.667,1.333.948t2.961.593a5.514,5.514,0,0,1,2.5,1.03,2.493,2.493,0,0,1,.87,2.037A2.9,2.9,0,0,1-15.38-.011a8.5,8.5,0,0,1-4.358.9A7.6,7.6,0,0,1-23.824.011a3.1,3.1,0,0,1-1.341-2.8v-.074h3.352a1.553,1.553,0,0,0,.543,1.348,3.365,3.365,0,0,0,1.724.326q2.283,0,2.283-1.126A.784.784,0,0,0-17.678-3a4.219,4.219,0,0,0-1.389-.437l-2.155-.385a6.133,6.133,0,0,1-2.833-1.119,2.385,2.385,0,0,1-.87-1.889A2.983,2.983,0,0,1-23.5-9.455a6.978,6.978,0,0,1,3.839-.919,8.15,8.15,0,0,1,4.19.8A2.923,2.923,0,0,1-14.15-7.041ZM-1.54-10.093V-7.9H-8.084v1.985h6.194v2.193H-8.084v2.133H-1.4V.6H-11.437v-10.7Zm14.143,0V-7.9H8.166V.6H4.814V-7.9H.376v-2.193Zm5.348,0v4.726l4.661-4.726h4.039l-5.044,4.8L27.018.6H22.676L17.983-4.907h-.032V.6H14.6v-10.7Zm13.872,0V.6H28.471v-10.7Z" transform="translate(48.165 53.68)" fill="#fff"/>
    <path id="Path_3" data-name="Path 3" d="M-22.373-4.693a2.543,2.543,0,0,1,1.97.679,2.328,2.328,0,0,1,.618,1.622,2.362,2.362,0,0,1-.65,1.732A2.832,2.832,0,0,1-22.523,0h-2.528V-4.693ZM-22.958-.91a2.117,2.117,0,0,0,1.381-.341,1.418,1.418,0,0,0,.387-1.115,1.348,1.348,0,0,0-.393-1.082,1.876,1.876,0,0,0-1.232-.335h-.871V-.91ZM-16.309.123a2.981,2.981,0,0,1-2.073-.65,2.335,2.335,0,0,1-.715-1.82,2.306,2.306,0,0,1,.731-1.823,3,3,0,0,1,2.057-.647,3.035,3.035,0,0,1,2.054.637,2.3,2.3,0,0,1,.734,1.833,2.335,2.335,0,0,1-.715,1.82A2.981,2.981,0,0,1-16.309.123Zm1.385-2.47a1.61,1.61,0,0,0-.351-1.128,1.355,1.355,0,0,0-1.046-.38,1.308,1.308,0,0,0-1.021.387,1.614,1.614,0,0,0-.351,1.121,1.6,1.6,0,0,0,.354,1.124,1.333,1.333,0,0,0,1.03.384,1.317,1.317,0,0,0,1.037-.39A1.626,1.626,0,0,0-14.924-2.346Zm5.076-2.346a2.543,2.543,0,0,1,1.97.679A2.328,2.328,0,0,1-7.26-2.392,2.362,2.362,0,0,1-7.911-.66,2.832,2.832,0,0,1-10,0h-2.529V-4.693ZM-10.432-.91a2.117,2.117,0,0,0,1.381-.341,1.418,1.418,0,0,0,.387-1.115,1.348,1.348,0,0,0-.393-1.082,1.876,1.876,0,0,0-1.232-.335h-.871V-.91ZM-3.3-4.693-.865,0H-2.392l-.442-.93h-2.73L-6.019,0h-1.4l2.49-4.693ZM-5.141-1.8H-3.25l-.929-1.982ZM1.241-4.693V-.962H3.893V0H-.124V-4.693Zm4.686,0V0H4.563V-4.693ZM11.29-3.354H9.964a.533.533,0,0,0-.234-.429,1.178,1.178,0,0,0-.6-.124,1.361,1.361,0,0,0-.634.12.373.373,0,0,0-.224.341q0,.292.543.416t1.206.26a2.163,2.163,0,0,1,1.017.452,1.134,1.134,0,0,1,.354.894,1.293,1.293,0,0,1-.6,1.154A3.254,3.254,0,0,1,9.015.123,2.913,2.913,0,0,1,7.351-.26a1.4,1.4,0,0,1-.546-1.229v-.033H8.17a.706.706,0,0,0,.221.591,1.287,1.287,0,0,0,.7.143q.929,0,.929-.494a.349.349,0,0,0-.169-.3,1.633,1.633,0,0,0-.566-.192l-.877-.169a2.4,2.4,0,0,1-1.154-.491A1.081,1.081,0,0,1,6.9-3.263a1.336,1.336,0,0,1,.582-1.151,2.682,2.682,0,0,1,1.563-.4,3.118,3.118,0,0,1,1.706.351A1.312,1.312,0,0,1,11.29-3.354Zm-.839-2.58-1.066.91H8.359l.728-.91Zm4,1.241,1.384,3.484L17.3-4.693h2.035V0H18.044V-3.822h-.013L16.477,0h-1.4l-1.56-3.822H13.5V0H12.343V-4.693Zm7.248,0,1.2,2,1.189-2H25.61L23.5-1.671V0H22.132V-1.671L20.02-4.693Z" transform="translate(52 38)" fill="#fff"/>
    <path id="Path_4" data-name="Path 4" d="M-24.333-4.693a2.051,2.051,0,0,1,1.345.4A1.393,1.393,0,0,1-22.5-3.153,1.294,1.294,0,0,1-23-2.028a2.485,2.485,0,0,1-1.466.364H-25.6V0h-1.365V-4.693Zm-.4,2.119a1.1,1.1,0,0,0,.631-.143.519.519,0,0,0,.2-.455.537.537,0,0,0-.2-.462.873.873,0,0,0-.533-.149H-25.6v1.209Zm5.98-2.119a2.272,2.272,0,0,1,1.319.319,1.049,1.049,0,0,1,.448.91.975.975,0,0,1-.309.728,1.7,1.7,0,0,1-.881.409v.013a1.251,1.251,0,0,1,.829.276A2.153,2.153,0,0,1-17.02-1a4.41,4.41,0,0,0,.214,1h-1.449a1.9,1.9,0,0,1-.072-.3q-.032-.192-.065-.458l-.058-.461a.583.583,0,0,0-.244-.449,1.553,1.553,0,0,0-.705-.11h-.865V0h-1.365V-4.693Zm-.4,2a1.18,1.18,0,0,0,.6-.124.46.46,0,0,0,.2-.429.441.441,0,0,0-.215-.416,1.632,1.632,0,0,0-.754-.123h-.943v1.092ZM-13.367.123a2.981,2.981,0,0,1-2.073-.65,2.335,2.335,0,0,1-.715-1.82,2.306,2.306,0,0,1,.731-1.823,3,3,0,0,1,2.057-.647,3.035,3.035,0,0,1,2.054.637,2.3,2.3,0,0,1,.734,1.833,2.335,2.335,0,0,1-.715,1.82A2.981,2.981,0,0,1-13.367.123Zm1.385-2.47a1.61,1.61,0,0,0-.351-1.128,1.355,1.355,0,0,0-1.047-.38,1.308,1.308,0,0,0-1.02.387,1.614,1.614,0,0,0-.351,1.121A1.6,1.6,0,0,0-14.4-1.222a1.333,1.333,0,0,0,1.03.384,1.317,1.317,0,0,0,1.037-.39A1.626,1.626,0,0,0-11.983-2.346Zm5.076-2.346a2.543,2.543,0,0,1,1.97.679,2.328,2.328,0,0,1,.617,1.622A2.362,2.362,0,0,1-4.969-.66,2.832,2.832,0,0,1-7.056,0H-9.584V-4.693ZM-7.491-.91A2.117,2.117,0,0,0-6.11-1.251a1.418,1.418,0,0,0,.387-1.115,1.348,1.348,0,0,0-.393-1.082,1.876,1.876,0,0,0-1.232-.335h-.871V-.91Zm5.473-3.783v2.652a1.265,1.265,0,0,0,.289.887,1.147,1.147,0,0,0,.887.315,1.093,1.093,0,0,0,.887-.338A1.574,1.574,0,0,0,.328-2.2v-2.49H1.693v2.561a2.145,2.145,0,0,1-.63,1.706,2.834,2.834,0,0,1-1.9.549A2.975,2.975,0,0,1-2.769-.39a1.918,1.918,0,0,1-.614-1.56V-4.693Zm6.318,0v2.073L6.2-4.693H7.842L5.788-2.587,7.992,0H6.224L4.313-2.418H4.3V0H2.935V-4.693Zm8.9,0v.962H11.4V0H10.033V-3.731H8.226v-.962ZM16.26.123a2.981,2.981,0,0,1-2.073-.65,2.335,2.335,0,0,1-.715-1.82A2.306,2.306,0,0,1,14.2-4.17a3,3,0,0,1,2.057-.647,3.035,3.035,0,0,1,2.054.637,2.3,2.3,0,0,1,.734,1.833,2.335,2.335,0,0,1-.715,1.82A2.981,2.981,0,0,1,16.26.123Zm1.385-2.47a1.61,1.61,0,0,0-.351-1.128,1.355,1.355,0,0,0-1.046-.38,1.308,1.308,0,0,0-1.021.387,1.614,1.614,0,0,0-.351,1.121,1.6,1.6,0,0,0,.354,1.124,1.333,1.333,0,0,0,1.03.384,1.317,1.317,0,0,0,1.037-.39A1.626,1.626,0,0,0,17.644-2.346Zm0-3.588-1.066.91H15.551l.728-.91Zm3.27,1.241.774,3.731H21.7l1.066-3.731h1.645l.936,3.731h.013l.832-3.718.007-.013h1.287L26.12,0H24.469l-.955-3.692H23.5L22.487,0H20.81L19.484-4.693Z" transform="translate(52 64)" fill="#fff"/>
  </g>
</svg>
