<svg xmlns="http://www.w3.org/2000/svg" width="1231.34" height="293.36" viewBox="0 0 1231.34 293.36">
  <path id="Path_1" data-name="Path 1" d="M281.78-195.316c-2.316-59.83-50.18-90.71-127.38-90.71-71.41,0-125.064,30.108-125.064,90.324,0,42.074,32.038,69.094,98.044,77.972l57.128,7.72c32.038,4.246,45.548,13.9,45.548,33.582,0,21.23-20.458,42.46-70.638,42.46-46.706,0-73.34-17.756-77.2-53.268H19.686c0,59.058,49.408,94.57,131.24,94.57,92.64,0,143.978-32.81,143.978-91.482,0-40.144-25.862-69.48-80.288-77.2l-79.9-11.194c-28.178-3.86-40.53-14.668-40.53-33.968,0-25.09,27.792-38.214,54.426-38.214,46.32,0,68.322,15.054,70.638,49.408Zm194.544-83.376L334.276,0H401.44l29.336-62.532H591.352L623.39,0H697.5L555.068-278.692Zm34.74,49.408,57.9,121.2h-115.8Zm239.32-49.408V0H966.158V-45.548H812.916V-278.692Zm272.9,0V0h227.74V-45.548H1085.818v-76.428h152.47v-45.548h-152.47v-65.62h158.26v-45.548Z" transform="translate(-19.686 286.026)" fill="#2b2e34"/>
</svg>
