<svg xmlns="http://www.w3.org/2000/svg" width="689.109" height="19.8" viewBox="0 0 689.109 19.8"><g transform="translate(-616 -530.8)"><g transform="translate(616.011 534.283)"><path d="M0,0H2.039A.011.011,0,0,1,2.05.011V10.975a.011.011,0,0,0,.011.011H7.714A.011.011,0,0,1,7.725,11v1.826a.012.012,0,0,1-.012.011H0a.011.011,0,0,1-.011-.011V.011A.011.011,0,0,1,0,0"/></g><g transform="translate(634.127 544.978)"><path d="M0,0H-5.733l-.03.02-.9,2.1-.029.019H-8.817c-.013-.019-.017-.025-.029-.045L-3.215-10.89a.032.032,0,0,1,.029-.019h.658a.032.032,0,0,1,.029.019L3.133,2.1l-.03.044H.956L.927,2.12l-.9-2.1A.03.03,0,0,0,0,0M-2.867-7.052-5.009-1.785l.01.016H-.735l.011-.016L-2.846-7.052a.011.011,0,0,0-.021,0"/></g><g transform="translate(637.885 544.544)"><path d="M0,0,1.441-1.1l.016,0A4.043,4.043,0,0,0,4.814.939C6.137.939,7.031.259,7.031-.85c0-1.011-.758-1.4-1.886-1.925l-1.42-.661C2.17-4.155.731-5.108.731-6.994c0-2.12,1.827-3.481,4.045-3.481A4.718,4.718,0,0,1,8.912-8.189l0,.015L7.488-7.079l-.016,0a3.2,3.2,0,0,0-2.7-1.546c-1.031,0-1.945.506-1.945,1.556,0,.972.739,1.323,1.789,1.828l1.439.661C8-3.688,9.131-2.7,9.131-.927c0,2.275-1.847,3.714-4.3,3.714A5.454,5.454,0,0,1,0,.015.011.011,0,0,1,0,0"/></g><g transform="translate(648.803 541.846)"><path d="M0,0A6.623,6.623,0,0,1,6.637-7.776a6.64,6.64,0,0,1,6.747,6.63A6.7,6.7,0,0,1,5.006,5.3,6.505,6.505,0,0,1,0,0M11.265-1.165A4.562,4.562,0,0,0,6.656-5.89,4.528,4.528,0,0,0,2.047-1.165,4.538,4.538,0,0,0,6.656,3.6a4.561,4.561,0,0,0,4.609-4.764"/></g><g transform="translate(663.746 541.426)"><path d="M0,0A6.746,6.746,0,0,1,7.254-7.337,6.251,6.251,0,0,1,12.207-4.41c0,.006,0,.009,0,.015L10.667-3.261l-.017,0A4.525,4.525,0,0,0,6.729-5.471,4.559,4.559,0,0,0,2.1-.726,4.559,4.559,0,0,0,6.729,4.019,4.525,4.525,0,0,0,10.65,1.812l.017,0L12.2,2.943a.1.1,0,0,1,0,.015,6.29,6.29,0,0,1-5.5,2.947A6.61,6.61,0,0,1,0,0"/></g><g transform="translate(678.097 534.283)"><path d="M0,0H2.039A.011.011,0,0,1,2.05.011V12.823a.011.011,0,0,1-.012.011H0a.011.011,0,0,1-.011-.011V.011A.011.011,0,0,1,0,0M10.581,12.834H8.5a.959.959,0,0,1-.725-.33L1.988,6.016a.076.076,0,0,0,0-.015L7.208.32A.96.96,0,0,1,7.924,0H10a.012.012,0,0,1,.009.019L4.575,6v.015l6.015,6.8a.012.012,0,0,1-.009.019"/></g><g transform="translate(690.585 534.283)"><path d="M0,0H2.039A.011.011,0,0,1,2.05.011V12.823a.011.011,0,0,1-.012.011H0a.011.011,0,0,1-.011-.011V.011A.011.011,0,0,1,0,0"/></g><g transform="translate(722.256 535.113)"><path d="M0,0V7.281A5.677,5.677,0,0,1-.421,9.843a2.807,2.807,0,0,1-2.646,1.618,3.562,3.562,0,0,1-1.989-.573l.843-1.45a1.721,1.721,0,0,0,1.18.405A1.119,1.119,0,0,0-1.9,9.084a5,5,0,0,0,.185-1.8V0Z"/></g><g transform="translate(732.842 536.731)"><path d="M0,0H-4.483V2.849H-.135V4.466H-4.483v3.54H0V9.624H-6.2V-1.618H0Z"/></g><g transform="translate(736.754 546.355)"><path d="M0,0V-12L8.158-3.455v-7.787H9.877V.691L1.719-7.854V0Z"/></g><g transform="translate(751.015 546.355)"><path d="M0,0V-12L8.158-3.455v-7.787H9.877V.691L1.719-7.854V0Z"/></g><g transform="translate(767.618 541.501)"><path d="M0,0-3.691-6.388h1.955l2.6,4.5,2.6-4.5H5.41L1.719,0V4.854H0Z"/></g><g transform="translate(787.306 536.731)"><path d="M0,0H-3.91V2.849H-.135V4.466H-3.91V9.624H-5.629V-1.618H0Z"/></g><g transform="translate(797.117 543.641)"><path d="M0,0H-4.8L-6.034,2.714H-7.888l5.6-11.9,5.326,11.9H1.18ZM-.691-1.618-2.359-5.427-4.095-1.618Z"/></g><path d="M188.974-4.245h-1.719V-15.487h1.719Z" transform="translate(616 550.6)"/><g transform="translate(811.362 535.113)"><path d="M0,0A5.036,5.036,0,0,1,2.967.657,3.137,3.137,0,0,1,4.3,3.3,3.085,3.085,0,0,1,1.8,6.439l3.5,4.8H3.236L.017,6.641h-.3v4.6h-1.72V0ZM-.286,5.157H.253c.472,0,2.393-.05,2.393-1.837,0-1.584-1.5-1.736-2.343-1.736H-.286Z"/></g><g transform="translate(822.387 541.501)"><path d="M0,0-3.691-6.388h1.955l2.6,4.5,2.6-4.5H5.41L1.719,0V4.854H0Z"/></g><g transform="translate(857.993 546.582)"><path d="M0,0C-3.356,0-5.631-2.388-5.631-5.889c0-3.566,2.291-5.89,5.534-5.89,2.808,0,4.6,1.388,5.2,3.776a.1.1,0,0,1-.1.129H2.727A.156.156,0,0,1,2.566-8a2.5,2.5,0,0,0-2.647-1.9c-1.968,0-3.017,1.549-3.017,4.05C-3.1-3.4-2.017-1.871-.016-1.871A2.528,2.528,0,0,0,2.711-4.55H-.112a.14.14,0,0,1-.13-.129V-6.245a.139.139,0,0,1,.13-.128H5.212a.137.137,0,0,1,.128.128C5.389-2.049,3.485,0,0,0"/></g><g transform="translate(864.821 546.34)"><path d="M0,0A.14.14,0,0,1-.129-.129l.048-5.519-.048-5.518A.139.139,0,0,1,0-11.3H2.195a.139.139,0,0,1,.129.129L2.275-5.648,2.324-.129A.14.14,0,0,1,2.195,0Z"/></g><g transform="translate(871.003 540.951)"><path d="M0,0V5.26a.139.139,0,0,1-.129.129H-2.163a.138.138,0,0,1-.128-.129l.032-5.518-.032-5.519a.137.137,0,0,1,.128-.128H.548a.222.222,0,0,1,.194.112L5.276,2.194,5.179.032V-5.777a.138.138,0,0,1,.13-.128H7.341a.138.138,0,0,1,.13.128L7.438-.258,7.471,5.26a.139.139,0,0,1-.13.129H4.534a.226.226,0,0,1-.194-.113L-.1-2.646l.016.306Z"/></g><g transform="translate(885.464 544.694)"><path d="M0,0C2.033,0,3.163-1.5,3.163-3.969S2.049-8-.016-8-3.179-6.487-3.179-3.969C-3.179-1.516-2.032,0,0,0M-.016,1.888c-3.453,0-5.695-2.4-5.695-5.857,0-3.6,2.226-5.922,5.695-5.922C3.421-9.891,5.7-7.616,5.7-3.969A5.484,5.484,0,0,1-.016,1.888"/></g><g transform="translate(900.99 536.836)"><path d="M0,0H-2.356l-.016,3.518H.065c1.033,0,1.92-.484,1.92-1.711S1.259,0,0,0M.355,6.987-.758,5.309H-2.372l.032,4.066a.139.139,0,0,1-.129.129H-4.68a.139.139,0,0,1-.128-.129l.032-5.519-.032-5.518a.138.138,0,0,1,.128-.129H-.1c2.824,0,4.454,1.194,4.454,3.55A3.257,3.257,0,0,1,1.84,5.05L4.663,9.391A.073.073,0,0,1,4.6,9.5H2a.226.226,0,0,1-.194-.113Z"/></g><g transform="translate(912.046 544.694)"><path d="M0,0C2.034,0,3.163-1.5,3.163-3.969S2.049-8-.016-8-3.179-6.487-3.179-3.969C-3.179-1.516-2.032,0,0,0M-.016,1.888c-3.453,0-5.695-2.4-5.695-5.857,0-3.6,2.226-5.922,5.695-5.922C3.421-9.891,5.7-7.616,5.7-3.969A5.484,5.484,0,0,1-.016,1.888"/></g><g transform="translate(923.876 546.598)"><path d="M0,0C-2.969,0-5.018-1.259-5.115-3.937a.14.14,0,0,1,.13-.129h2.307a.153.153,0,0,1,.145.129c.145,1.259.726,2.1,2.582,2.1,1.468,0,2.275-.435,2.275-1.5,0-2.55-7.213-.532-7.213-5.018,0-2.114,1.646-3.437,4.535-3.437,2.645,0,4.469,1.032,4.808,3.453a.114.114,0,0,1-.113.129H2.017a.154.154,0,0,1-.145-.129C1.759-9.375.936-9.94-.452-9.94c-1.161,0-2,.4-2,1.34,0,2.4,7.244.452,7.244,4.921C4.792-1.29,2.953,0,0,0"/></g><g transform="translate(934.755 546.598)"><path d="M0,0C-2.969,0-5.018-1.259-5.115-3.937a.14.14,0,0,1,.13-.129h2.307a.153.153,0,0,1,.145.129c.145,1.259.726,2.1,2.582,2.1,1.468,0,2.275-.435,2.275-1.5,0-2.55-7.213-.532-7.213-5.018,0-2.114,1.646-3.437,4.535-3.437,2.645,0,4.469,1.032,4.808,3.453a.114.114,0,0,1-.113.129H2.018a.154.154,0,0,1-.146-.129C1.759-9.375.936-9.94-.452-9.94c-1.161,0-2,.4-2,1.34,0,2.4,7.244.452,7.244,4.921C4.792-1.29,2.953,0,0,0"/></g><g transform="translate(940.987 546.34)"><path d="M0,0A.139.139,0,0,1-.128-.129l.047-5.519-.047-5.518A.138.138,0,0,1,0-11.3H2.195a.139.139,0,0,1,.129.129L2.275-5.648,2.324-.129A.14.14,0,0,1,2.195,0Z"/></g><g transform="translate(1009.673 544.044)"><path d="M0,0,5.947-6.889l.081-.1L6-7.01V-8.889H-2.9v1.915H3.144L-2.9.019V1.933H6V.019H0Z"/></g><path d="M404.974-4.615h-2.215V-15.478h2.215Z" transform="translate(616 550.6)"/><g transform="translate(981.971 541.927)"><path d="M0,0V-6.761H2.093V.013l0,.15A2.28,2.28,0,0,0,4.411,2.478h.074A2.387,2.387,0,0,0,6.961.018V-6.761H9.054L9.041-.024v.017L9.022.259a4.328,4.328,0,0,1-4.52,4.3l-.163,0A4.333,4.333,0,0,1,0,.163Z"/></g><g transform="translate(1002.021 546.016)"><path d="M0,0H2.314L-2.168-10.95l.008-.021H-4.472l.008.02L-8.947,0h2.315l.789-1.936h3.92L-2.6-3.629l-2.513,0-.036,0,1.837-4.5Z"/></g><g transform="translate(978.223 543.486)"><path d="M0,0A5.565,5.565,0,0,0,.856-2.975a5.609,5.609,0,0,0-5.6-5.6,5.609,5.609,0,0,0-5.6,5.6,5.607,5.607,0,0,0,5.6,5.6A5.575,5.575,0,0,0-1.489,1.581L-.38,2.626,1.111,1.049ZM-4.746.581A3.56,3.56,0,0,1-8.3-2.975,3.559,3.559,0,0,1-4.746-6.529,3.56,3.56,0,0,1-1.19-2.975,3.56,3.56,0,0,1-4.746.581"/></g><g transform="translate(1050.168 546.688)"><path d="M0,0H-3.037V-12.16H0A3.488,3.488,0,0,1,3.391-8.62v5.08A3.488,3.488,0,0,1,0,0M0-13.791H-3.833a.811.811,0,0,0-.8.831V.831a.811.811,0,0,0,.8.831h3.8a5.108,5.108,0,0,0,4.982-5.2V-8.589A5.1,5.1,0,0,0,0-13.791"/></g><g transform="translate(1060.016 538.653)"><path d="M0,0A2.291,2.291,0,0,1,2.241,2.34v.523H-2.241V2.34A2.291,2.291,0,0,1,0,0M0-1.632A3.9,3.9,0,0,0-3.8,2.34V5.88A4.037,4.037,0,0,0,.206,9.851,4.046,4.046,0,0,0,3.184,8.62l.059-.062a1.018,1.018,0,0,0,.3-.677.831.831,0,0,0-.8-.831.735.735,0,0,0-.649.369,2.456,2.456,0,0,1-1.887.8A2.424,2.424,0,0,1-2.211,5.88V4.495H3.066a.811.811,0,0,0,.8-.832V2.34A3.949,3.949,0,0,0,0-1.632"/></g><g transform="translate(1068.655 538.653)"><path d="M0,0A2.291,2.291,0,0,1,2.241,2.34v.523H-2.241V2.34A2.291,2.291,0,0,1,0,0M0-1.632A3.9,3.9,0,0,0-3.8,2.34V5.88A4.037,4.037,0,0,0,.206,9.851,4.046,4.046,0,0,0,3.184,8.62l.059-.062a1.018,1.018,0,0,0,.3-.677.831.831,0,0,0-.8-.831.735.735,0,0,0-.649.369,2.456,2.456,0,0,1-1.887.8A2.424,2.424,0,0,1-2.211,5.88V4.495H3.066a.811.811,0,0,0,.8-.832V2.34A3.989,3.989,0,0,0,0-1.632"/></g><g transform="translate(1081.863 546.688)"><path d="M0,0H-6.575L.59-12.56a.949.949,0,0,0,.147-.462.76.76,0,0,0-.8-.77H-7.548a.811.811,0,0,0-.8.832.811.811,0,0,0,.8.831h6.074L-8.639.4a.949.949,0,0,0-.147.462.778.778,0,0,0,.8.77H-.029A.811.811,0,0,0,.767.8.779.779,0,0,0,0,0"/></g><g transform="translate(1087.171 538.653)"><path d="M0,0A2.291,2.291,0,0,1,2.241,2.34v.523H-2.241V2.34A2.291,2.291,0,0,1,0,0M0-1.632A3.9,3.9,0,0,0-3.8,2.34V5.88A4.037,4.037,0,0,0,.206,9.851,4.046,4.046,0,0,0,3.184,8.62l.059-.062a1.018,1.018,0,0,0,.3-.677.831.831,0,0,0-.8-.831.735.735,0,0,0-.649.369,2.456,2.456,0,0,1-1.887.8A2.424,2.424,0,0,1-2.211,5.88V4.495H3.066a.811.811,0,0,0,.8-.832V2.34A3.989,3.989,0,0,0,0-1.632"/></g><g transform="translate(1095.78 538.653)"><path d="M0,0A2.291,2.291,0,0,1,2.241,2.34v.523H-2.241V2.34A2.31,2.31,0,0,1,0,0M0-1.632A3.9,3.9,0,0,0-3.8,2.34V5.88A4.037,4.037,0,0,0,.206,9.851,4.046,4.046,0,0,0,3.184,8.62l.059-.062a1.018,1.018,0,0,0,.3-.677.831.831,0,0,0-.8-.831.735.735,0,0,0-.649.369,2.456,2.456,0,0,1-1.887.8A2.424,2.424,0,0,1-2.211,5.88V4.495H3.066a.811.811,0,0,0,.8-.832V2.34A3.949,3.949,0,0,0,0-1.632"/></g><g transform="translate(1200.907 542.234)"><path d="M0,0-2.123-5.981C-2.462-4.95-3.307-2.3-4.037,0ZM4.508,4.169v.284H-.17l0-.274C1.038,4.041,1.361,3.8,1.068,3L.128.386H-4.16c-.363,1.143-.687,2.165-.891,2.809-.2.749.129.811,1.97.975v.283H-6.92V4.169c.947-.172,1.225-.291,1.491-1.1L-1.976-7.694H-.805L3.213,3.126A1.359,1.359,0,0,0,4.508,4.169m-17.9-8.4c0-1.516-.552-2.991-2.429-2.991h-1.43v5.913h1.05c2.223,0,2.809-1.268,2.809-2.922m3.708,8.4v.284h-2.881a14.234,14.234,0,0,1-1.155-1.827L-14.685.835A5.016,5.016,0,0,0-16.15-.923h-1.1V3.309c0,.637.137.774,1.326.86v.284h-4.635V4.169c1.189-.086,1.327-.223,1.327-.86V-6.463c0-.638-.138-.775-1.327-.861v-.284h5.221c2.584,0,4.049,1.379,4.049,3.274,0,1.671-1.223,3.325-4.428,3.411,2.136.43,2.688,1.172,3.1,1.827l1.245,2.04A2.265,2.265,0,0,0-9.685,4.169M-57.764,0l-2.124-5.981C-60.226-4.95-61.071-2.3-61.8,0Zm4.507,4.169v.284h-4.677V4.179C-56.726,4.041-56.4,3.8-56.7,3l-.94-2.618h-4.288c-.363,1.143-.687,2.165-.892,2.809-.2.749.13.811,1.97.975v.283h-3.838V4.169c.948-.172,1.226-.291,1.492-1.1l3.451-10.759h1.172l4.017,10.82a1.361,1.361,0,0,0,1.295,1.043M-27.6-7.324c1.9.084,1.863.375,1.863,1V-.27c0,2.555-1.209,4.219-3.394,4.219-2.051,0-3.345-1.26-3.345-3.748V-6.463c0-.638.138-.775,1.327-.861v-.284H-35.78v.284c1.189.086,1.327.223,1.327.861V-.2c0,2.981,1.481,4.824,4.651,4.824,2.809,0,4.515-1.723,4.515-4.824V-6.463c0-.638.172-.775,1.636-.861v-.284H-27.6ZM-40.92-1.577c0-3.481-1.585-5.645-3.894-5.645H-46.95V4.067h2.136c2.343,0,3.894-2.164,3.894-5.644m2.1,0a5.849,5.849,0,0,1-6,6.03h-5.444V4.169c1.189-.086,1.326-.223,1.326-.86V-6.463c0-.638-.137-.775-1.326-.861v-.284h5.444a5.85,5.85,0,0,1,6,6.031M-69.292,1.179A2.474,2.474,0,0,0-72.1-1.557h-1.292V4.067h1.705c1.947,0,2.395-1.372,2.395-2.888m-4.1-3.122H-72.2A2.246,2.246,0,0,0-69.74-4.506c0-1.654-.6-2.716-2.257-2.716h-1.395Zm6.2,3.208c0,1.9-1.378,3.188-3.962,3.188H-76.7V4.169c1.189-.086,1.327-.223,1.327-.86V-6.463c0-.638-.138-.775-1.327-.861v-.284h5.031c2.584,0,3.963,1.207,3.963,2.93,0,1.378-1.189,2.567-3.6,2.894v.035c3.17.292,4.117,1.688,4.117,3.014"/></g><g transform="translate(1234.802 547.591)"><path d="M0,0A7.093,7.093,0,0,1-4.716-1.58l-.106-.1,1.243-2.667.2.15A5.241,5.241,0,0,0,0-3.046c.672,0,1.644-.265,1.644-.745,0-.407-.536-.578-1.418-.811l-.369-.1C-2.26-5.257-4.33-6-4.33-8.373c0-2.4,2.346-3.7,4.555-3.7A7.815,7.815,0,0,1,4.5-10.925l.155.09L3.488-8.24,3.3-8.33A6.823,6.823,0,0,0,.27-9.1c-.624,0-1.15.27-1.15.588,0,.467.877.657,1.806.859,1.8.423,4.168,1.27,4.168,3.768C5.094-1.2,2.536,0,0,0"/></g><g transform="translate(1234.802 547.591)"><path d="M0,0A7.093,7.093,0,0,1-4.716-1.58l-.106-.1,1.243-2.667.2.15A5.241,5.241,0,0,0,0-3.046c.672,0,1.644-.265,1.644-.745,0-.407-.536-.578-1.418-.811l-.369-.1C-2.26-5.257-4.33-6-4.33-8.373c0-2.4,2.346-3.7,4.555-3.7A7.815,7.815,0,0,1,4.5-10.925l.155.09L3.488-8.24,3.3-8.33A6.823,6.823,0,0,0,.27-9.1c-.624,0-1.15.27-1.15.588,0,.467.877.657,1.806.859,1.8.423,4.168,1.27,4.168,3.768C5.094-1.2,2.536,0,0,0"/></g><g transform="translate(1244.476 550.6)"><path d="M0,0H-3.4V-14.859H-.157v1.046a4.855,4.855,0,0,1,3.395-1.271c3.056,0,5.274,2.53,5.274,6.015,0,3.511-2.237,6.059-5.319,6.059A4.694,4.694,0,0,1,0-4.212ZM2.452-11.9A2.6,2.6,0,0,0-.022-9.047,2.6,2.6,0,0,0,2.452-6.19,2.614,2.614,0,0,0,5.039-9.047,2.613,2.613,0,0,0,2.452-11.9"/></g><g transform="translate(1257.726 547.366)"><path d="M0,0H-3.4V-11.625h3.36V-10.1A4.332,4.332,0,0,1,3.687-11.85h.2v3.675h-.2C1.137-8.175,0-7.045,0-4.51Z"/></g><g transform="translate(1267.476 547.591)"><path d="M0,0C-3.056,0-5.274-2.539-5.274-6.037S-3.056-12.074,0-12.074a4.692,4.692,0,0,1,3.305,1.265V-11.85H6.643V-.225H3.305V-1.238A4.678,4.678,0,0,1,0,0M.763-8.893A2.641,2.641,0,0,0-1.823-6.037,2.641,2.641,0,0,0,.763-3.181,2.568,2.568,0,0,0,3.238-6.037,2.6,2.6,0,0,0,.763-8.893"/></g><g transform="translate(1286.673 547.366)"><path d="M0,0H-3.4V-6.284c0-1.69-.476-2.318-1.756-2.318-1.386,0-2.318,1.094-2.318,2.722V0h-3.4V-11.625h3.338v1.151A4.432,4.432,0,0,1-4.2-11.85c2.824,0,4.2,1.7,4.2,5.184Z"/></g><g transform="translate(1293.122 547.591)"><path d="M0,0C-3.056,0-5.274-2.539-5.274-6.037s2.237-6.037,5.319-6.037a4.74,4.74,0,0,1,3.193,1.187V-15.4H6.643V-.225H3.395V-1.247A4.858,4.858,0,0,1,0,0M.763-8.893A2.641,2.641,0,0,0-1.823-6.037,2.641,2.641,0,0,0,.763-3.181,2.569,2.569,0,0,0,3.238-6.037,2.6,2.6,0,0,0,.763-8.893"/></g><path d="M688.839-3.234h-3.4V-14.859h3.4Zm-1.725-12.6a2,2,0,0,1-1.972-1.973,1.985,1.985,0,0,1,1.972-1.994,2,2,0,0,1,1.995,1.994,1.986,1.986,0,0,1-1.995,1.973" transform="translate(616 550.6)"/></g></svg>