<svg width="1000" height="489" viewBox="0 0 1000 489" fill="none" xmlns="http://www.w3.org/2000/svg">
<path fill-rule="evenodd" clip-rule="evenodd" d="M387.82 188.11L383.28 172.28L309.22 182.14L311.06 191.73L297.43 164.37L283.91 174.71L285.36 178.87L268.74 184.15L263.85 202.09L247.62 266.02L246.28 264.62L228.7 172.49L207.88 174.58L210.65 192.23L199.7 192.26L175.67 273.51L166.01 275.05L171.52 288.26L162.91 318.83L191.93 323.05L199.88 283.38L223.57 279.29L230.26 323.85L255.16 319.16L250.9 293.01L279.56 323.85L304.67 323.87L305.49 324.33L330.79 264.39L311.25 253.24L289 300.49L270.58 280.64L283.04 199.71L291.89 197.64L302.19 220.87L322.67 215.03L318.79 207.23L334.67 202.68L344.06 324.35L364.24 324.04L365.69 199.45L353.64 197.92L387.82 188.11ZM202.72 269.22L213.78 214.04L221.6 266.22L202.72 269.22Z" fill="white"/>
<path fill-rule="evenodd" clip-rule="evenodd" d="M544.02 176.83L540.43 275.51L512.23 180.74L483.24 176.48L485.95 242.76L460.79 168.9L429.7 176.86L405.44 259.2L408.45 196.91L378.5 192.53L384 324.37L402.31 324L404.91 270.34L434.36 323.87H460.81L486.55 257.29L489.3 324.37L507.02 324.02L509.87 245.58L539.14 310.91L538.8 320.11L567.79 324.37L561.74 176.49L544.02 176.83ZM444 296.46L430.93 262.49L447.66 196.33L464.55 249.48L444 296.46Z" fill="white"/>
<path fill-rule="evenodd" clip-rule="evenodd" d="M809.26 162.91L794.6 244.25L767.92 180.08L743.97 176.87L740.76 167.46L709.68 175.42L689.78 242.93L687.26 232.78L657.77 226.73L678.76 189.93L653.37 169.39L594.79 185.53L607.54 199.9L611.45 199.04L607.42 291.04L614.02 292.02L604.45 299.37L621.86 324.1L683.32 264.87L683.09 265.63L714.34 322.41L740.8 322.43L768.85 249.86L748.2 189.26L783.47 261.53L790.53 261.98L776.75 321.64L796.59 325.82L837.11 167.12L809.26 162.91ZM631.45 199.1L625.2 196.21L657.99 187.41L632.7 223.49L631.45 199.1ZM635.36 275.59L633.18 232.98L639.57 244.91L670.66 248.59L635.36 275.59ZM723.96 295.03L710.9 261.06L727.64 194.89L744.52 248.06L723.96 295.03Z" fill="white"/>
</svg>
