<svg width="1000" height="502" viewBox="0 0 1000 502" fill="none" xmlns="http://www.w3.org/2000/svg">
<path d="M795.91 230.21L778.5 181.18C775.72 189.64 768.8 211.37 762.81 230.21H795.91ZM832.86 264.39V266.72H794.51L794.52 264.47C804.41 263.34 807.06 261.34 804.66 254.84L796.95 233.38H761.8C758.82 242.75 756.17 251.13 754.49 256.41C752.83 262.54 755.55 263.06 770.64 264.39V266.71H739.17V264.38C746.94 262.97 749.22 261.99 751.4 255.33L779.69 167.13H789.29L822.22 255.83C823.94 260.5 825.94 263.4 832.86 264.39ZM686.11 195.53C686.11 183.1 681.59 171.01 666.2 171.01H654.48V219.48H663.09C681.31 219.48 686.11 209.09 686.11 195.53ZM716.52 264.39V266.72H692.9C689.79 262.62 685.84 256.41 683.44 251.75L675.53 237.06C672.14 231.27 668.18 225.47 663.53 222.65H654.49V257.34C654.49 262.57 655.62 263.69 665.36 264.39V266.72H627.37V264.39C637.12 263.68 638.24 262.56 638.24 257.34V177.23C638.24 172 637.11 170.88 627.37 170.18V167.86H670.17C691.36 167.86 703.36 179.16 703.36 194.7C703.36 208.4 693.33 221.95 667.06 222.66C684.57 226.19 689.1 232.27 692.48 237.63L702.69 254.36C707.33 261.55 711.57 263.68 716.52 264.39ZM322.37 230.21L304.96 181.18C302.18 189.64 295.26 211.37 289.27 230.21H322.37ZM359.32 264.39V266.72H320.98L320.99 264.47C330.88 263.34 333.53 261.34 331.13 254.84L323.42 233.38H288.27C285.29 242.75 282.64 251.13 280.96 256.41C279.31 262.54 282.02 263.06 297.11 264.39V266.71H265.64V264.38C273.41 262.97 275.69 261.99 277.87 255.33L306.16 167.13H315.76L348.69 255.83C350.4 260.5 352.4 263.4 359.32 264.39ZM569.68 170.17C585.25 170.86 584.95 173.24 584.95 178.34V228C584.95 248.95 575.04 262.59 557.13 262.59C540.32 262.59 529.71 252.26 529.71 231.86V177.23C529.71 172 530.84 170.88 540.59 170.18V167.86H502.6V170.18C512.35 170.89 513.48 172.01 513.48 177.23V228.58C513.48 253.01 525.63 268.13 551.61 268.13C574.63 268.13 588.62 254.01 588.62 228.58V177.23C588.62 172 590.03 170.88 602.04 170.18V167.86H569.7V170.17H569.68ZM460.46 217.28C460.46 188.75 447.47 171.01 428.54 171.01H411.03V263.55H428.54C447.74 263.55 460.46 245.81 460.46 217.28ZM477.69 217.28C477.69 246.94 455.52 266.71 428.54 266.71H383.9V264.38C393.64 263.67 394.77 262.55 394.77 257.33V177.22C394.77 171.99 393.64 170.87 383.9 170.17V167.85H428.53C455.51 167.85 477.69 187.62 477.69 217.28ZM227.87 239.88C227.87 226.32 221.09 217.45 204.85 217.45H194.26V263.55H208.24C224.2 263.55 227.87 252.31 227.87 239.88ZM194.26 214.29H204C217.98 214.29 224.2 206.27 224.2 193.27C224.2 179.71 219.26 171.01 205.7 171.01H194.26V214.29ZM245.1 240.59C245.1 256.13 233.8 266.72 212.62 266.72H167.14V264.39C176.88 263.68 178.01 262.56 178.01 257.34V177.23C178.01 172 176.88 170.88 167.14 170.18V167.86H208.38C229.57 167.86 240.86 177.75 240.86 191.87C240.86 203.17 231.11 212.91 211.34 215.6V215.88C237.34 218.27 245.1 229.71 245.1 240.59Z" fill="white"/>
<path d="M601.3 314.37C601.3 311.41 599.05 309.16 596.31 309.12C593.48 308.99 591.19 311.2 591.19 314.02C591.19 316.89 593.18 319.18 595.95 319.27C598.78 319.36 601.3 317.06 601.3 314.37ZM595.29 334.28C592.02 334.15 588.84 333.09 586.86 328.72L590.97 326.95C592.03 329.16 593.8 330.04 595.47 330.04C599.49 330.04 602.09 325.8 601.65 320.37C600.59 322.44 598.34 323.64 595.51 323.64C590.57 323.64 586.64 319.49 586.64 313.79C586.82 308.49 591.01 304.61 596.49 304.61C601.66 304.61 605.5 308.5 605.98 314.55C606.64 323.55 605.32 334.59 595.29 334.28ZM558.68 309.38H571.61L558.76 333.84H564.02L579.07 305.01H558.67V309.38H558.68ZM544.19 314.37C544.19 311.41 541.94 309.16 539.2 309.12C536.38 308.99 534.08 311.2 534.08 314.02C534.08 316.89 536.07 319.18 538.85 319.27C541.67 319.36 544.19 317.06 544.19 314.37ZM548.87 314.54C549.53 323.55 548.21 334.58 538.19 334.27C534.92 334.14 531.74 333.08 529.76 328.71L533.87 326.94C534.93 329.15 536.7 330.03 538.37 330.03C542.39 330.03 544.99 325.79 544.55 320.36C543.49 322.43 541.23 323.63 538.41 323.63C533.47 323.63 529.54 319.48 529.54 313.78C529.72 308.48 533.91 304.6 539.39 304.6C544.55 304.61 548.38 308.5 548.87 314.54ZM509.26 312.56L514.03 310.84V333.84H518.53V304.7L509.26 308.37V312.56ZM481.52 328.32C479.84 328.32 478.43 329.6 478.43 331.32C478.43 333.04 479.84 334.28 481.52 334.28C483.24 334.28 484.66 333.04 484.66 331.32C484.66 329.6 483.24 328.32 481.52 328.32ZM449.81 307.79H458.77V333.84H463.53V307.79H472.49V303.42H449.8V307.79H449.81ZM434.12 316.66L430.24 315.64C426.62 314.71 426.17 312.86 426.17 311.66C426.17 309.14 428.65 307.47 431.42 307.47C434.56 307.47 436.72 309.28 436.72 312.06H441.4C441.4 306.5 437.12 303.05 431.51 303.05C426.16 303.05 421.49 306.54 421.49 311.75C421.49 314.44 422.51 318.15 429.04 319.92L432.88 320.89C435.71 321.55 437.87 323.01 437.69 325.83C437.38 328.04 435.52 329.98 431.95 329.98C428.33 329.98 425.99 327.46 425.9 324.99H421.22C421.22 329.93 425.64 334.26 431.95 334.26C437.78 334.26 441.88 330.86 442.32 326.09C442.82 321.74 440.26 318.3 434.12 316.66ZM398.7 329.55H412.78V333.83H394.02V321H388.36V316.74H394.02V303.41H412.34V307.73H398.7V316.74H410.58H410.62V321.02H398.7V329.55Z" fill="white"/>
</svg>
