<svg width="1000" height="396" viewBox="0 0 1000 396" fill="none" xmlns="http://www.w3.org/2000/svg">
<path d="M140.49 261.03C136.61 261.03 131.84 259.79 131.84 255.03C131.84 251.85 133.78 250.79 136.08 249.38L138.02 248.32C141.9 246.38 141.2 242.32 141.2 238.61V154.25C141.2 150.54 141.91 146.49 138.02 144.54L136.08 143.48C133.79 142.07 131.84 141.01 131.84 137.83C131.84 133.06 136.61 131.83 140.49 131.83H204.56C213.74 131.83 223.44 132.36 231.74 137.12C240.39 142.06 245.86 150.36 245.86 160.42C245.86 174.72 232.98 184.95 220.97 189.72V190.07C238.8 193.25 254.5 205.07 254.5 224.66C254.5 235.6 249.38 245.31 240.73 251.84C231.38 258.9 220.26 261.02 208.79 261.02H140.49V261.03ZM173.31 235.26C173.31 238.97 172.96 242.85 175.96 245.5C178.96 248.15 184.25 248.15 188.14 248.15C204.02 248.15 220.08 241.44 220.08 223.09C220.08 211.27 210.55 201.73 199.78 198.56L173.31 204.91V235.26ZM173.31 190.61C188.66 187.43 212.31 178.43 212.31 159.72C212.31 145.78 199.07 143.84 188.13 143.84C184.42 143.84 178.07 144.02 175.25 147.02C173.13 149.31 173.31 153.73 173.31 156.73V190.61Z" fill="white"/>
<path d="M354.39 236.85C354.39 239.32 354.21 244.26 355.27 246.56C356.15 248.32 357.56 249.21 359.15 249.91C361.62 251.15 363.56 252.38 363.56 255.38C363.56 261.03 358.27 261.03 354.03 261.03H336.38C327.38 261.03 327.38 258.03 327.03 250.09H326.68C320.85 259.97 310.26 263.68 299.5 263.68C282.91 263.68 267.73 254.5 267.73 236.32C267.73 211.26 299.5 205.08 318.91 205.08H324.91C324.91 194.49 319.79 186.55 308.5 186.55C297.73 186.55 296.14 197.85 285.03 197.85C279.91 197.85 274.09 195.56 274.09 189.38C274.09 177.03 301.98 174.73 310.62 174.73C320.5 174.73 331.44 176.32 340.09 181.26C351.03 187.61 354.38 196.61 354.38 208.97V236.85H354.39ZM322.63 216.2C310.1 216.2 297.39 222.38 297.39 236.5C297.39 243.21 301.27 249.21 308.51 249.21C314.33 249.21 318.92 245.5 322.1 240.74C325.98 234.56 325.81 228.91 325.81 221.85V216.2H322.63V216.2Z" fill="white"/>
<path d="M423.4 208.26C436.81 211.79 449.17 216.73 449.17 233.14C449.17 243.02 443.35 251.49 435.05 256.79C427.11 261.55 417.05 263.67 407.69 263.67C399.4 263.67 391.81 262.43 384.39 259.08C378.39 256.43 370.45 251.14 370.45 243.9C370.45 239.66 373.63 235.78 377.86 235.78C381.92 235.78 383.51 238.07 385.98 240.9C391.63 247.08 395.33 251.14 404.16 251.14C410.16 251.14 419.16 248.32 419.16 240.73C419.16 222.73 373.27 236.49 373.27 204.73C373.27 182.85 395.33 174.73 413.69 174.73C421.81 174.73 434.69 176.85 441.58 181.44C445.29 183.73 445.29 189.38 445.29 193.26C445.29 197.14 445.11 201.91 440 201.91C432.06 201.91 432.76 186.73 415.64 186.73C409.64 186.73 402.23 189.55 402.23 196.61C402.23 202.96 410.17 204.91 415.11 206.14L423.4 208.26Z" fill="white"/>
<path d="M511.65 208.26C525.06 211.79 537.42 216.73 537.42 233.14C537.42 243.02 531.6 251.49 523.3 256.79C515.36 261.55 505.3 263.67 495.94 263.67C487.65 263.67 480.06 262.43 472.64 259.08C466.64 256.43 458.7 251.14 458.7 243.9C458.7 239.66 461.88 235.78 466.11 235.78C470.17 235.78 471.76 238.07 474.23 240.9C479.88 247.08 483.58 251.14 492.41 251.14C498.41 251.14 507.41 248.32 507.41 240.73C507.41 222.73 461.52 236.49 461.52 204.73C461.52 182.85 483.58 174.73 501.94 174.73C510.06 174.73 522.94 176.85 529.83 181.44C533.54 183.73 533.54 189.38 533.54 193.26C533.54 197.14 533.36 201.91 528.25 201.91C520.31 201.91 521.01 186.73 503.89 186.73C497.89 186.73 490.48 189.55 490.48 196.61C490.48 202.96 498.42 204.91 503.36 206.14L511.65 208.26Z" fill="white"/>
<path d="M635.02 236.85C635.02 239.32 634.84 244.26 635.9 246.56C636.78 248.32 638.19 249.21 639.78 249.91C642.25 251.15 644.19 252.38 644.19 255.38C644.19 261.03 638.9 261.03 634.66 261.03H617.01C608.01 261.03 608.01 258.03 607.66 250.09H607.31C601.48 259.97 590.89 263.68 580.13 263.68C563.54 263.68 548.36 254.5 548.36 236.32C548.36 211.26 580.13 205.08 599.54 205.08H605.54C605.54 194.49 600.42 186.55 589.13 186.55C578.36 186.55 576.77 197.85 565.66 197.85C560.54 197.85 554.72 195.56 554.72 189.38C554.72 177.03 582.61 174.73 591.25 174.73C601.13 174.73 612.07 176.32 620.72 181.26C631.66 187.61 635.02 196.61 635.02 208.97V236.85V236.85ZM603.25 216.2C590.72 216.2 578.01 222.38 578.01 236.5C578.01 243.21 581.89 249.21 589.13 249.21C594.95 249.21 599.54 245.5 602.72 240.74C606.6 234.56 606.43 228.91 606.43 221.85V216.2H603.25V216.2Z" fill="white"/>
<path d="M747.8 238.61C747.8 240.9 747.62 245.67 748.51 247.96C749.22 249.2 750.63 250.08 751.86 250.96C753.62 252.02 755.04 253.25 755.04 255.55C755.04 259.61 751.86 261.02 748.33 261.02H718.5C714.97 261.02 711.79 259.61 711.79 255.55C711.79 253.26 713.2 252.02 714.97 250.96C716.21 250.08 717.62 249.2 718.32 247.96C719.2 245.67 719.03 240.9 719.03 238.61V210.2C719.03 200.49 718.68 189.55 705.97 189.55C700.15 189.55 695.38 191.84 692.38 196.79C689.73 201.03 689.73 206.5 689.73 211.26V238.62C689.73 240.91 689.55 245.68 690.44 247.97C691.15 249.21 692.56 250.09 693.79 250.97C695.56 252.03 696.97 253.26 696.97 255.56C696.97 259.62 693.79 261.03 690.26 261.03H660.43C656.9 261.03 653.72 259.62 653.72 255.56C653.72 253.27 655.13 252.03 656.9 250.97C658.14 250.09 659.55 249.21 660.25 247.97C661.13 245.68 660.96 240.91 660.96 238.62V204.9C660.96 198.72 661.67 195.55 655.67 192.55C653.9 191.84 651.96 190.61 651.96 187.78C651.96 181.43 673.67 174.72 679.14 174.72C685.14 174.72 686.38 182.84 687.08 187.43C694.14 178.78 703.67 174.72 715.14 174.72C724.14 174.72 733.85 177.37 740.2 184.07C746.56 190.95 747.79 200.84 747.79 209.66V238.61H747.8Z" fill="white"/>
<path d="M767.56 218.67C767.56 192.2 791.56 174.72 817.86 174.72C844.16 174.72 868.16 192.19 868.16 218.67C868.16 246.38 843.28 263.67 817.86 263.67C792.44 263.67 767.56 246.38 767.56 218.67ZM837.81 217.61C837.81 204.9 833.93 187.43 817.87 187.43C801.81 187.43 797.93 204.9 797.93 217.61C797.93 231.38 800.23 251.5 817.87 251.5C835.51 251.5 837.81 231.38 837.81 217.61Z" fill="white"/>
</svg>
