<svg width="1000" height="559" viewBox="0 0 1000 559" fill="none" xmlns="http://www.w3.org/2000/svg">
<path fill-rule="evenodd" clip-rule="evenodd" d="M467.31 111.42H461.64L462.98 109.62H467.31V111.42V111.42ZM724.73 117.36H512.44V114.92H685.2C699.07 114.92 712.34 115.7 724.73 117.36ZM459.25 114.64H467.31V117.36H457.23L459.25 114.64ZM300.51 114.64H400.04C402.36 115.48 404.64 116.39 406.87 117.36H372.29C366.77 115.75 360.96 114.92 354.84 114.92C348.49 114.92 342.49 115.74 336.84 117.36H292.42C295.09 116.39 297.79 115.48 300.51 114.64ZM512.44 120.58H742.88C746.47 121.39 749.96 122.3 753.33 123.3H512.44V120.58ZM454.84 120.58H467.31V123.3H452.83L454.84 120.58ZM380.85 120.58H413.72C415.42 121.45 417.1 122.36 418.75 123.3H386.04C384.33 122.3 382.6 121.39 380.85 120.58ZM284.24 120.58H328.25C326.51 121.4 324.8 122.3 323.14 123.3H278.13C280.14 122.35 282.18 121.44 284.24 120.58ZM691.33 126.51H762.91C765.16 127.37 767.36 128.27 769.48 129.23H698.82C696.49 128.16 693.99 127.25 691.33 126.51ZM548.06 126.51H645.15V129.23H552.9C551.5 128.17 549.9 127.26 548.06 126.51ZM450.44 126.51H467.31V129.23H448.42L450.44 126.51ZM391.03 126.51H424.04C425.41 127.39 426.75 128.3 428.07 129.23H394.64C393.45 128.28 392.25 127.37 391.03 126.51ZM271.65 126.51H318.28C317.12 127.37 315.98 128.28 314.86 129.23H266.68C268.33 128.3 269.98 127.39 271.65 126.51ZM704.61 132.45H776.01C777.62 133.32 779.19 134.23 780.72 135.17H708.23C707.08 134.2 705.88 133.29 704.61 132.45ZM556.16 132.45H645.16V135.17H557.95C557.42 134.2 556.82 133.3 556.16 132.45ZM446.03 132.45H467.31V135.17H444.01L446.03 132.45ZM398.42 132.45H432.43C433.57 133.34 434.7 134.24 435.81 135.17H401.3C400.35 134.23 399.39 133.33 398.42 132.45ZM261.25 132.45H311.35C310.46 133.32 309.59 134.23 308.73 135.17H257.01C258.42 134.24 259.83 133.34 261.25 132.45ZM711.61 138.39H785.52C786.74 139.27 787.92 140.17 789.06 141.11H713.93C713.2 140.16 712.42 139.26 711.61 138.39ZM559.4 138.39H645.15V141.11H560.27C560.02 140.17 559.73 139.26 559.4 138.39ZM404.42 138.39H439.5C439.92 138.77 440.34 139.16 440.76 139.55L441.61 138.39H467.3V141.11H406.85C406.05 140.18 405.24 139.27 404.42 138.39ZM252.36 138.39H305.95C305.23 139.27 304.53 140.18 303.84 141.11H248.67C249.88 140.19 251.11 139.28 252.36 138.39ZM716.23 144.33H792.73C793.67 145.21 794.58 146.12 795.45 147.05H717.86C717.34 146.11 716.79 145.21 716.23 144.33ZM560.99 144.33H645.15V147.05H561.41C561.3 146.12 561.16 145.21 560.99 144.33ZM409.55 144.33H467.31V147.05H411.69C410.98 146.12 410.27 145.22 409.55 144.33ZM244.54 144.33H301.53C300.93 145.21 300.34 146.12 299.76 147.05H241.28C242.36 146.13 243.45 145.22 244.54 144.33ZM719.5 150.27H798.27C799 151.16 799.69 152.06 800.36 152.99H720.68C720.3 152.06 719.91 151.15 719.5 150.27ZM561.76 150.27H645.16V152.99H561.95C561.9 152.06 561.84 151.15 561.76 150.27ZM414.08 150.27H467.31V152.99H415.99C415.36 152.06 414.72 151.16 414.08 150.27ZM237.65 150.27H297.83C297.31 151.16 296.81 152.07 296.31 152.99H234.74C235.7 152.07 236.67 151.16 237.65 150.27ZM721.87 156.21H802.53C803.09 157.1 803.63 158 804.14 158.93H722.74C722.46 158 722.17 157.09 721.87 156.21ZM562.07 156.21H645.15V158.93H562.12C562.12 158 562.1 157.1 562.07 156.21ZM418.16 156.21H467.31V158.93H419.9C419.33 158.01 418.75 157.1 418.16 156.21ZM231.47 156.21H294.62C294.17 157.1 293.73 158.01 293.31 158.93H228.85C229.71 158.01 230.59 157.1 231.47 156.21ZM723.61 162.14H805.78C806.2 163.03 806.61 163.94 806.99 164.86H724.24C724.04 163.94 723.83 163.03 723.61 162.14ZM562.14 162.14H645.16V164.86H562.14V162.14ZM421.89 162.14H467.31V164.86H423.5C422.97 163.94 422.43 163.04 421.89 162.14ZM225.91 162.14H291.86C291.47 163.03 291.09 163.94 290.71 164.86H223.54C224.32 163.95 225.11 163.04 225.91 162.14ZM724.87 168.08H808.2C808.51 168.97 808.8 169.88 809.06 170.8H725.31C725.17 169.88 725.02 168.98 724.87 168.08ZM562.14 168.08H645.16V170.8H562.14V168.08ZM425.35 168.08H467.31V170.8H426.86C426.36 169.88 425.85 168.98 425.35 168.08ZM220.88 168.08H289.44C289.1 168.97 288.76 169.88 288.42 170.8H218.73C219.44 169.88 220.16 168.98 220.88 168.08ZM725.75 174.02H809.91C810.12 174.92 810.31 175.82 810.48 176.74H726.04C725.95 175.82 725.86 174.91 725.75 174.02ZM562.14 174.02H645.16V176.74H562.14V174.02ZM428.58 174.02H467.31V176.74H430C429.53 175.83 429.06 174.92 428.58 174.02ZM216.32 174.02H287.3C287 174.92 286.7 175.82 286.4 176.74H214.38C215.02 175.83 215.66 174.92 216.32 174.02ZM726.32 179.96H811.01C811.13 180.86 811.25 181.76 811.33 182.68H726.49C726.44 181.76 726.39 180.85 726.32 179.96ZM562.14 179.96H645.16V182.68H562.14V179.96ZM431.62 179.96H467.31V182.68H432.96C432.52 181.76 432.07 180.86 431.62 179.96ZM212.19 179.96H285.4C285.13 180.86 284.86 181.76 284.6 182.68H210.43C211.02 181.76 211.6 180.86 212.19 179.96ZM726.64 185.9H811.58C811.63 186.8 811.66 187.71 811.68 188.62H726.71C726.69 187.7 726.67 186.79 726.64 185.9ZM562.14 185.9H645.16V188.62H562.14V185.9ZM434.51 185.9H467.31V188.62H435.78C435.36 187.7 434.94 186.8 434.51 185.9ZM208.45 185.9H283.72C283.48 186.8 283.25 187.71 283.02 188.62H206.85C207.38 187.7 207.91 186.8 208.45 185.9ZM726.74 191.84H811.68C811.67 192.75 811.64 193.66 811.59 194.56H726.72C726.73 193.75 726.73 192.94 726.73 192.12L726.74 191.84ZM562.14 191.84H645.16V194.56H562.14V191.84ZM437.26 191.84H467.31V194.56H438.48C438.07 193.64 437.67 192.74 437.26 191.84ZM205.05 191.84H282.24C282.03 192.74 281.82 193.65 281.62 194.56H203.6C204.07 193.64 204.56 192.74 205.05 191.84ZM726.66 197.78H811.37C811.29 198.7 811.19 199.6 811.08 200.5H726.56C726.6 199.6 726.63 198.69 726.66 197.78ZM562.14 197.78H645.16V200.5H562.14V197.78ZM439.89 197.78H467.31V200.5H441.06C440.67 199.58 440.29 198.67 439.89 197.78ZM201.98 197.78H280.92C280.73 198.68 280.54 199.58 280.36 200.5H200.67C201.1 199.58 201.54 198.67 201.98 197.78ZM726.38 203.71H810.61C810.45 204.63 810.28 205.53 810.08 206.43H726.18C726.26 205.53 726.32 204.63 726.38 203.71ZM562.14 203.71H645.16V206.43H562.14V203.71ZM442.42 203.71H467.31V206.43H443.55C443.17 205.52 442.8 204.61 442.42 203.71ZM199.21 203.71H279.75C279.59 204.61 279.43 205.52 279.27 206.43H198.03C198.4 205.52 198.8 204.62 199.21 203.71ZM725.87 209.65H809.32C809.08 210.57 808.81 211.48 808.53 212.37H725.56C725.67 211.48 725.77 210.57 725.87 209.65ZM562.14 209.65H645.16V212.37H562.14V209.65ZM444.86 209.65H467.31V212.37H445.95C445.59 211.46 445.23 210.55 444.86 209.65ZM196.7 209.65H278.71C278.56 210.55 278.42 211.46 278.28 212.37H195.65C196 211.46 196.35 210.55 196.7 209.65ZM725.1 215.59H807.41C807.06 216.51 806.7 217.41 806.31 218.31H724.64C724.81 217.41 724.96 216.51 725.1 215.59ZM562.14 215.59H645.16V218.31H562.14V215.59ZM447.22 215.59H467.31V218.31H448.28C447.93 217.4 447.58 216.49 447.22 215.59ZM194.48 215.59H277.81C277.68 216.49 277.56 217.4 277.44 218.31H193.54C193.84 217.4 194.16 216.49 194.48 215.59ZM724.01 221.53H804.8C804.33 222.45 803.84 223.36 803.32 224.25H723.38C723.61 223.35 723.82 222.45 724.01 221.53ZM562.14 221.53H645.16V224.25H562.14V221.53ZM449.52 221.53H467.31V224.25H450.55C450.21 223.34 449.87 222.43 449.52 221.53ZM192.49 221.53H277.01C276.9 222.43 276.78 223.34 276.68 224.25H191.66C191.94 223.34 192.21 222.43 192.49 221.53ZM722.54 227.47H801.33C800.71 228.39 800.07 229.3 799.4 230.19H721.7C721.99 229.29 722.27 228.39 722.54 227.47ZM562.14 227.47H645.16V230.19H562.14V227.47ZM451.75 227.47H467.31V230.19H452.76L451.75 227.47ZM229.67 227.47H276.32C276.22 228.37 276.13 229.28 276.04 230.19H229.4C229.48 229.26 229.57 228.36 229.67 227.47ZM223.12 227.47H227.41C227.31 228.36 227.22 229.27 227.15 230.19H208.72L223.12 227.47ZM190.74 227.47H211.03L196.63 230.19H190.02C190.25 229.28 190.49 228.37 190.74 227.47ZM720.57 233.41H796.78C795.97 234.34 795.14 235.24 794.27 236.13H719.47C719.86 235.24 720.23 234.33 720.57 233.41ZM562.14 233.41H645.16V236.13H562.14V233.41ZM453.93 233.41H467.31V236.13H454.91C454.59 235.21 454.26 234.31 453.93 233.41ZM229.18 233.41H275.73C275.65 234.31 275.56 235.22 275.48 236.13H229.05L229.07 235.69C229.11 234.92 229.14 234.16 229.18 233.41ZM203.18 233.41H226.94C226.9 234.13 226.86 234.86 226.84 235.6L226.82 236.13H207.46C207.29 235.85 207.09 235.58 206.87 235.34C206.02 234.41 204.85 233.83 203.18 233.41ZM189.22 233.41H193.93C193.99 233.94 194.42 234.35 194.96 234.39L199.68 235.06L199.77 235.07C201.81 235.33 203.24 235.63 204.21 236.12H188.58C188.79 235.21 189.01 234.31 189.22 233.41ZM717.99 239.34H790.89C789.84 240.27 788.75 241.18 787.63 242.06H716.54C717.04 241.18 717.53 240.27 717.99 239.34ZM562.14 239.34H645.16V242.06H562.14V239.34ZM467.31 240.15V242.06H465.04C463.61 241.04 461.61 240.5 458.79 240.5H456.47L456.35 240.15H467.31ZM228.97 239.34H275.23C275.16 240.24 275.09 241.15 275.03 242.06H228.94C228.94 241.16 228.95 240.25 228.97 239.34ZM208.39 239.34H226.72C226.7 240.26 226.69 241.17 226.68 242.06H208.5V242.03C208.5 241.03 208.47 240.14 208.39 239.34ZM190.28 239.34H206.13C206.22 240.09 206.26 240.98 206.26 242.03V242.06H190.28V239.34ZM187.97 239.34H188.03V242.06H187.38C187.54 241.19 187.71 240.32 187.89 239.45L187.97 239.34ZM714.55 245.28H783.21C781.83 246.22 780.41 247.12 778.94 248H712.58C713.27 247.12 713.92 246.22 714.55 245.28ZM562.14 245.28H645.16V248H562.14V245.28ZM458.15 245.28H464.97C465.39 246.02 465.64 246.93 465.8 248H459.09L458.15 245.28ZM228.92 245.28H274.8C274.74 246.18 274.69 247.09 274.64 248H228.92V245.28ZM208.5 245.28H226.67V248H208.5V245.28ZM190.28 245.28H206.26V248H190.28V245.28ZM186.79 245.28H188.03V248H186.36C186.5 247.09 186.64 246.18 186.79 245.28ZM709.84 251.22H773.08C771.22 252.16 769.28 253.07 767.3 253.94H707.06C708.02 253.08 708.95 252.17 709.84 251.22ZM562.14 251.22H645.16V253.94H562.14V251.22ZM228.92 251.22H274.47C274.42 252.12 274.38 253.03 274.34 253.94H228.93V251.22H228.92ZM208.5 251.22H226.67V253.94H208.5V251.22ZM190.28 251.22H206.26V253.94H190.28V251.22ZM185.89 251.22H188.03V253.94H185.53C185.64 253.03 185.77 252.12 185.89 251.22ZM702.96 257.16H759.18C756.52 258.12 753.77 259.03 750.93 259.88H698.47C700.04 259.05 701.54 258.15 702.96 257.16ZM562.14 257.16H645.16V259.88H562.14V257.16ZM228.92 257.16H274.2C274.16 258.07 274.13 258.97 274.1 259.88H228.92V257.16V257.16ZM208.5 257.16H226.67V259.88H208.5V257.16ZM190.28 257.16H206.26V259.88H190.28V257.16ZM185.17 257.16H188.03V259.88H184.89C184.98 258.97 185.07 258.06 185.17 257.16ZM695.29 265.82H676.54L676.5 265.78C681.26 265.42 685.63 264.64 689.64 263.45V264.01C691.67 264.01 693.55 264.64 695.29 265.82ZM700.16 265.82H698.84C698.59 265.58 698.34 265.35 698.09 265.13C698.39 265.22 698.7 265.31 699 265.41C699.39 265.53 699.78 265.67 700.16 265.82ZM711.13 265.82H710.47L711.13 264.93V265.82ZM713.38 263.1H738.72C734.38 264.1 729.87 265.01 725.21 265.82H713.39V263.1H713.38ZM699.14 263.1H709.71L707.67 265.82H705.26C703.58 264.78 701.71 263.93 699.7 263.27C699.51 263.21 699.32 263.15 699.14 263.1ZM567.85 265.82H565.02C567.12 265.12 569.45 264.6 572 264.3C570.55 264.58 569.32 265.01 568.31 265.55C568.16 265.64 568 265.73 567.85 265.82ZM590.51 265.82H583.14C581.73 264.78 579.94 264.2 577.67 264.01C582.59 264.04 586.88 264.65 590.51 265.82ZM640.57 265.82H633.48L638.99 264.73L640.61 265.29L640.57 265.82ZM641.13 263.1H645.15V265.82H642.83C642.86 265.41 642.9 265.01 642.93 264.62C642.98 264.06 642.61 263.56 642.09 263.43L641.13 263.1ZM589.16 263.1H635.65L621.88 265.82H596.17C594.11 264.67 591.77 263.76 589.16 263.1ZM562.14 263.1H566.29C564.81 263.5 563.43 263.97 562.14 264.52V263.1ZM258.19 265.82H255.37C257.46 265.12 259.79 264.6 262.34 264.3C260.89 264.58 259.67 265.01 258.66 265.55C258.49 265.64 258.34 265.73 258.19 265.82ZM273.98 264.37L273.94 265.82H273.48C272.07 264.78 270.28 264.2 268.01 264.01C270.11 264.02 272.1 264.14 273.98 264.37ZM228.92 263.1H256.62C254.07 263.78 251.8 264.7 249.81 265.82H228.92V263.1V263.1ZM208.5 263.1H226.67V265.82H208.5V263.1ZM190.28 263.1H206.26V265.82H190.28V263.1ZM184.62 263.1H188.02V265.82H184.43C184.5 264.91 184.55 264 184.62 263.1ZM713.38 270.79C716.7 271.07 719.95 271.39 723.13 271.76H713.38V270.79ZM701.61 269.04H705.94C706.07 269.15 706.21 269.25 706.33 269.36L706.38 269.4C706.69 269.63 707.08 269.68 707.42 269.56V270.33C708.66 270.42 709.9 270.51 711.13 270.6V271.75H703.42C702.9 270.89 702.37 270.09 701.83 269.33L701.61 269.04ZM678.76 269.04H698.76C699.18 269.54 699.6 270.08 700 270.65C700.26 271.01 700.51 271.38 700.76 271.76H679.7C679.48 270.8 679.16 269.89 678.76 269.04ZM652.31 269.04H676.2C676.71 269.87 677.11 270.78 677.38 271.76H649.74C650.17 271.23 650.62 270.72 651.08 270.23C651.48 269.81 651.89 269.41 652.31 269.04ZM642.6 269.04H649.12C648.34 269.89 647.6 270.8 646.92 271.76H642.45C642.5 270.8 642.55 269.9 642.6 269.04ZM617.2 269.04H640.36C640.31 269.9 640.26 270.8 640.22 271.76H620.81C619.47 270.91 617.62 270.51 615.01 270.27C614.98 270.26 614.94 270.26 614.91 270.26L612.01 270.07L617.2 269.04ZM600.62 269.04H609.59C609.58 269.09 609.58 269.13 609.58 269.18V271.11C609.58 271.35 609.66 271.58 609.79 271.76H603.04C602.31 270.78 601.51 269.87 600.62 269.04ZM585.75 269.04H597.09C597.51 269.34 597.91 269.65 598.3 269.98C598.96 270.54 599.57 271.13 600.14 271.76H586.73C586.47 270.74 586.15 269.84 585.75 269.04ZM567.58 269.04H583.15C583.27 269.21 583.39 269.4 583.5 269.59C583.86 270.22 584.16 270.94 584.4 271.76H567.49C567.26 271.36 567.12 270.92 567.12 270.42C567.12 269.95 567.28 269.48 567.58 269.04ZM562.14 269.04H565.09C564.94 269.49 564.87 269.95 564.87 270.42C564.87 270.91 564.93 271.35 565.04 271.76H562.14V269.04ZM257.91 269.04H273.48C273.6 269.21 273.72 269.4 273.83 269.59L273.86 269.64L273.83 271.76H257.81C257.58 271.36 257.44 270.93 257.44 270.43C257.45 269.96 257.61 269.49 257.91 269.04ZM248.93 269.04H255.43C255.28 269.49 255.21 269.96 255.21 270.43C255.21 270.92 255.27 271.36 255.38 271.76H245.93C246.77 270.77 247.78 269.86 248.93 269.04ZM228.92 269.04H245.41C244.52 269.89 243.73 270.8 243.06 271.76H228.92V269.04V269.04ZM208.5 269.04H226.67V271.76H208.5V269.04ZM190.28 269.04H206.26V271.76H190.28V269.04ZM185.2 269.04H188.02V271.76H186.21C185.88 270.83 185.54 269.92 185.2 269.04ZM743.37 274.98H744.39C748.6 275.79 752.65 276.7 756.56 277.7H742.7C742.9 276.73 743.13 275.82 743.37 274.98ZM727.44 274.98H741.04C740.81 275.84 740.6 276.74 740.41 277.7H725.35C726 276.74 726.71 275.83 727.44 274.98ZM713.38 274.98H724.55C723.88 275.85 723.26 276.75 722.67 277.7H713.38V274.98ZM705.23 274.98H711.13V277.7H706.56C706.13 276.75 705.68 275.85 705.23 274.98ZM680.09 274.98H702.69C703.16 275.84 703.62 276.75 704.08 277.7H693.47C689.27 276.61 684.81 275.88 680.09 275.49V275.21V274.98ZM656.77 274.98H677.83V275.21V275.33C675.83 275.21 673.79 275.15 671.7 275.15H656.84C656.83 275.09 656.8 275.03 656.77 274.98ZM647.51 274.98H651.12L650.84 275.16H647.4L647.51 274.98ZM642.32 274.98H644.92C644.45 275.86 644.01 276.77 643.6 277.7H642.23C642.26 276.74 642.29 275.84 642.32 274.98ZM623.11 274.98H640.07C640.04 275.84 640.01 276.75 639.99 277.7H623.55C623.48 276.65 623.34 275.75 623.11 274.98ZM604.98 274.98H620.72C621.03 275.66 621.21 276.55 621.29 277.7H606.09C605.78 276.75 605.41 275.84 604.98 274.98ZM587.32 274.98H602.44C602.92 275.84 603.34 276.74 603.7 277.7H587.56C587.51 276.73 587.43 275.83 587.32 274.98ZM570.82 274.98H585.06C585.17 275.82 585.25 276.72 585.31 277.7H572.97C572.38 276.58 571.62 275.72 570.82 274.98ZM562.14 274.98H567.38C567.6 275.17 567.82 275.35 568.05 275.54C568.8 276.16 569.59 276.83 570.26 277.7H562.14V274.98ZM261.15 274.98H273.81C273.81 275.88 273.8 276.79 273.8 277.7H263.32C262.72 276.58 261.95 275.72 261.15 274.98ZM243.77 274.98H257.71C257.92 275.16 258.15 275.35 258.37 275.54C259.12 276.17 259.92 276.83 260.59 277.7H242.78C243.01 276.76 243.35 275.85 243.77 274.98ZM228.92 274.98H241.3C240.94 275.86 240.66 276.77 240.47 277.7H228.92V274.98V274.98ZM208.5 274.98H226.67V277.7H208.5V274.98ZM190.28 274.98H206.26V277.7H189.9C190.13 277.49 190.28 277.19 190.28 276.86V274.98ZM187.37 274.98H188.03V275.73H187.63L187.37 274.98ZM184.06 274.98H184.98C185.24 275.72 185.5 276.46 185.76 277.22C185.82 277.41 185.94 277.57 186.07 277.7H184.02C184.04 276.79 184.04 275.88 184.06 274.98ZM764.7 280.91H767.69C770.31 281.76 772.85 282.67 775.32 283.63H765.03C764.93 282.69 764.82 281.79 764.7 280.91ZM742.15 280.91H762.44C762.56 281.78 762.67 282.68 762.77 283.63H741.83C741.92 282.69 742.03 281.78 742.15 280.91ZM723.43 280.91H739.89C739.77 281.78 739.67 282.69 739.57 283.63H722.17C722.56 282.69 722.97 281.79 723.43 280.91ZM713.38 280.91H720.91C720.49 281.78 720.1 282.69 719.75 283.63H713.38V280.91ZM708 280.91H711.14V283.63H709.12C708.74 282.7 708.37 281.8 708 280.91ZM702.81 280.91H705.55C705.79 281.45 706.03 282.01 706.26 282.58C705.14 281.99 703.99 281.43 702.81 280.91ZM644.78 280.91H645.16V281.61C644.82 282.25 644.5 282.92 644.21 283.63H643.96C644.2 282.71 644.47 281.8 644.78 280.91ZM642.16 280.91H642.41C642.32 281.19 642.23 281.48 642.14 281.77L642.16 280.91ZM623.61 280.91H639.92C639.9 281.78 639.89 282.68 639.87 283.63H623.61V280.91ZM606.96 280.91H621.37V283.63H607.38C607.27 282.7 607.13 281.79 606.96 280.91ZM587.68 280.91H604.66C604.85 281.78 605 282.69 605.11 283.63H587.7V282.34C587.69 281.85 587.69 281.38 587.68 280.91ZM573.99 280.91H585.42C585.43 281.37 585.43 281.85 585.43 282.34V283.63H574.08C574.1 283.34 574.11 283.05 574.11 282.75C574.12 282.09 574.07 281.48 573.99 280.91ZM562.14 280.91H571.71C571.81 281.46 571.87 282.07 571.87 282.75C571.87 283.05 571.86 283.34 571.84 283.63H562.14V280.91ZM264.33 280.91H273.8C273.8 281.82 273.81 282.73 273.81 283.63H264.42C264.44 283.34 264.45 283.05 264.45 282.75C264.45 282.09 264.41 281.48 264.33 280.91ZM242.39 280.91H262.03C262.14 281.46 262.2 282.07 262.2 282.75C262.2 283.05 262.19 283.34 262.17 283.63H242.63C242.47 282.8 242.39 281.91 242.39 280.97V280.91ZM228.92 280.91H240.14V280.97C240.14 281.9 240.21 282.79 240.34 283.63H228.92V280.91ZM208.5 280.91H226.67V283.63H208.5V280.91ZM184.04 280.91H206.26V283.63H184.07C184.05 282.73 184.04 281.82 184.04 280.91ZM786.18 288.44C786.92 288.81 787.64 289.19 788.36 289.57H786.42C786.34 289.19 786.26 288.81 786.18 288.44ZM765.29 286.85H782.88L783.52 287.15C783.74 287.94 783.95 288.74 784.12 289.57H765.44C765.4 288.64 765.34 287.73 765.29 286.85ZM741.55 286.85H763.03C763.09 287.73 763.14 288.64 763.18 289.57H741.4C741.44 288.64 741.49 287.73 741.55 286.85ZM721.04 286.85H739.3C739.24 287.73 739.19 288.64 739.15 289.57H720.35C720.55 288.64 720.78 287.73 721.04 286.85ZM713.38 286.85H718.69C718.45 287.73 718.23 288.64 718.04 289.57H716.33C715.38 288.71 714.39 287.9 713.38 287.12V286.85V286.85ZM645.16 288.79V289.58H645.04L645.16 288.79ZM623.61 286.85H639.82L639.79 289.57H623.61V286.85V286.85ZM607.56 286.85H621.37V289.57H607.56L607.57 287.42L607.56 286.85ZM587.69 286.85H605.31V287.42V289.57H587.69V286.85ZM573.44 286.85H585.43V289.57H571.97C572.59 288.77 573.08 287.86 573.44 286.85ZM562.14 286.85H571.01C570.58 287.75 570 288.53 569.3 289.19C569.16 289.32 569.01 289.45 568.86 289.57H562.15V286.85H562.14ZM263.77 286.85H273.84C273.85 287.76 273.86 288.67 273.88 289.57H262.3C262.92 288.76 263.42 287.86 263.77 286.85ZM243.74 286.85H261.34C260.91 287.75 260.33 288.53 259.62 289.19C259.48 289.32 259.33 289.45 259.17 289.57H246C245.69 289.32 245.39 289.05 245.12 288.77C244.59 288.21 244.13 287.57 243.74 286.85ZM228.92 286.85H241.24C241.67 287.85 242.21 288.76 242.85 289.57H228.92V286.85ZM208.5 286.85H226.67V289.57H208.5V286.85ZM184.17 286.85H206.26V289.57H184.28C184.23 288.67 184.2 287.76 184.17 286.85ZM794.7 293.26C795.86 293.99 796.99 294.74 798.09 295.51H794.7V293.26ZM786.94 292.79H792.44V295.51H787.18C787.13 294.59 787.05 293.68 786.94 292.79ZM765.55 292.79H784.67C784.78 293.68 784.87 294.58 784.93 295.51H765.6C765.59 294.59 765.57 293.68 765.55 292.79ZM741.29 292.79H763.3C763.32 293.68 763.34 294.58 763.35 295.51H741.23C741.25 294.58 741.26 293.68 741.29 292.79ZM719.79 292.79H739.03C739.01 293.68 738.99 294.58 738.98 295.51H721.92C721.23 294.64 720.51 293.79 719.77 292.98L719.79 292.79ZM644.64 292.79H645.16V295.51H644.39C644.46 294.62 644.54 293.7 644.64 292.79ZM623.61 292.79H639.77L639.75 295.51H623.61V292.79ZM607.54 292.79H621.36V295.51H607.53L607.54 292.79ZM587.69 292.79H605.3L605.29 295.51H587.51C587.42 295.37 587.29 295.25 587.15 295.16C587.48 294.96 587.7 294.61 587.7 294.2V292.79H587.69ZM567.8 292.79H585.44V293.16C579.4 293.7 573.96 294.45 569.19 295.51H562.14V293.88H562.17C564.24 293.88 566.15 293.5 567.8 292.79ZM228.92 292.79H247.03C248.64 293.5 250.48 293.88 252.49 293.88C254.57 293.88 256.47 293.51 258.12 292.79H273.94L273.95 293.33C268.63 293.85 263.8 294.56 259.51 295.51H228.91V292.79H228.92ZM208.5 292.79H226.67V295.51H208.5V292.79ZM184.46 292.79H206.25V295.51H190.27C190.21 294.95 189.73 294.52 189.15 294.52H186.83C186.3 294.52 185.86 294.88 185.74 295.37L185.69 295.51H184.66C184.59 294.61 184.52 293.7 184.46 292.79ZM794.7 298.73H802.39C803.49 299.61 804.56 300.52 805.6 301.45H794.7V298.73V298.73ZM787.28 298.73H792.45V301.45H787.2C787.25 300.56 787.28 299.65 787.28 298.73ZM765.62 298.73H785.03C785.03 299.65 785 300.56 784.94 301.45H765.6C765.61 300.56 765.62 299.65 765.62 298.73ZM741.22 298.73H763.37C763.37 299.65 763.36 300.56 763.35 301.45H741.23C741.22 300.56 741.22 299.65 741.22 298.73ZM724.31 298.73H738.97C738.97 299.65 738.98 300.56 738.99 301.45H726.05C725.48 300.51 724.9 299.61 724.31 298.73ZM644.15 298.73H645.15V301.45H644.02C644.06 300.59 644.1 299.68 644.15 298.73ZM623.61 298.73H639.74L639.73 301.45H623.61V298.73ZM607.52 298.73H621.37V301.45H607.51L607.52 298.73ZM587.66 298.73H605.27L605.26 301.45H587.64L587.66 298.73ZM579.91 298.73H585.42L585.4 301.45H574.39C575.89 300.31 577.72 299.43 579.91 298.73ZM565.6 298.73H574.39C573.36 299.35 572.44 300.06 571.62 300.86C571.43 301.05 571.24 301.24 571.05 301.44H562.13V299.85C563.23 299.45 564.39 299.07 565.6 298.73ZM270.25 298.73H274.11C274.14 299.64 274.17 300.54 274.21 301.45H264.72C266.22 300.31 268.06 299.43 270.25 298.73ZM255.94 298.73H264.74C263.71 299.35 262.79 300.06 261.97 300.86C261.78 301.05 261.59 301.24 261.41 301.44H248.76C250.84 300.4 253.25 299.5 255.94 298.73ZM228.92 298.73H249.25C248.68 298.98 248.12 299.24 247.59 299.52C246.41 300.12 245.32 300.76 244.32 301.45H228.93V298.73H228.92ZM208.5 298.73H226.67V301.45H208.5V298.73ZM190.28 298.73H206.26V301.45H190.28V298.73ZM186.89 298.73H188.03V301.45H185.86C186.2 300.56 186.55 299.65 186.89 298.73ZM794.7 304.67H808.97C809.84 305.56 810.68 306.46 811.5 307.39H794.7V304.67ZM786.89 304.67H792.44V307.39H786.44C786.62 306.5 786.77 305.59 786.89 304.67ZM765.54 304.67H784.62C784.49 305.6 784.34 306.5 784.15 307.39H765.45C765.48 306.5 765.51 305.59 765.54 304.67ZM741.3 304.67H763.29C763.27 305.6 763.23 306.51 763.19 307.39H741.39C741.36 306.5 741.32 305.6 741.3 304.67ZM727.83 304.67H739.05C739.08 305.6 739.11 306.5 739.15 307.39H729.16C728.73 306.46 728.28 305.55 727.83 304.67ZM643.93 304.67H645.16V307.39H643.91V306.88C643.91 306.35 643.91 305.59 643.93 304.67ZM623.61 304.67H639.73V306.73V307.02H641.66V307.39H623.62V304.67H623.61ZM607.49 304.67H621.36V307.39H607.48L607.49 304.67ZM587.62 304.67H605.25L605.24 307.39H587.6L587.62 304.67ZM571.44 304.67H585.37L585.35 307.39H570.17C570.52 306.39 570.94 305.48 571.44 304.67ZM562.14 304.67H568.87C568.45 305.51 568.1 306.41 567.81 307.39H562.14V304.67V304.67ZM261.77 304.67H274.34C274.38 305.58 274.42 306.49 274.46 307.39H260.5C260.85 306.39 261.27 305.48 261.77 304.67ZM243.85 304.67H259.2C258.78 305.51 258.43 306.41 258.14 307.39H241.39C242.08 306.41 242.9 305.5 243.85 304.67ZM228.92 304.67H240.64C239.89 305.52 239.24 306.42 238.69 307.39H228.92V304.67ZM208.5 304.67H226.67V307.39H208.5V304.67ZM190.28 304.67H206.26V307.39H190.28V304.67ZM185.57 304.67H188.02V307.39H185.92C185.8 306.48 185.69 305.58 185.57 304.67ZM815.25 312.09C815.54 312.5 815.83 312.91 816.12 313.32H815.25V312.09ZM794.7 310.6H813V313.32H794.7V310.6ZM785.67 310.6H792.45V313.32H784.78C785.1 312.44 785.4 311.54 785.67 310.6ZM765.26 310.6H783.32C783.03 311.53 782.71 312.44 782.36 313.32H765.03C765.12 312.44 765.2 311.54 765.26 310.6ZM741.58 310.6H763.01C762.94 311.54 762.87 312.44 762.78 313.32H741.81C741.72 312.45 741.65 311.54 741.58 310.6ZM730.52 310.6H739.33C739.39 311.53 739.47 312.44 739.56 313.32H731.53C731.2 312.4 730.87 311.49 730.52 310.6ZM643.91 310.6H645.16V313.32H643.91V310.6ZM623.61 310.6H641.65V313.32H623.61V310.6ZM607.47 310.6H621.36V313.32H607.45L607.47 310.6ZM587.57 310.6H605.23L605.22 313.32H587.56L587.57 310.6ZM569.39 310.6H585.32L585.3 313.32H569.11C569.17 312.36 569.26 311.46 569.39 310.6ZM562.14 310.6H567.12C567 311.46 566.91 312.37 566.86 313.32H562.14V310.6ZM259.73 310.6H274.65C274.7 311.51 274.76 312.42 274.82 313.32H259.45C259.5 312.36 259.6 311.46 259.73 310.6ZM239.71 310.6H257.45C257.33 311.46 257.24 312.37 257.19 313.32H239.02C239.17 312.37 239.4 311.46 239.71 310.6ZM228.92 310.6H237.32C237.06 311.47 236.86 312.37 236.74 313.32H228.92V310.6ZM208.5 310.6H226.67V313.32H208.5V310.6ZM190.28 310.6H206.26V313.32H190.28V310.6ZM186.4 310.6H188.02V313.32H186.83C186.68 312.42 186.55 311.51 186.4 310.6ZM815.25 316.54H818.19C818.73 317.43 819.25 318.34 819.74 319.26H815.25V316.54ZM794.7 316.54H813V319.26H794.7V316.54ZM783.4 316.54H792.45V319.26H781.91C782.44 318.39 782.93 317.48 783.4 316.54ZM764.65 316.54H780.87C780.36 317.49 779.82 318.39 779.24 319.26H764.2C764.37 318.4 764.52 317.49 764.65 316.54ZM742.2 316.54H762.38C762.24 317.49 762.08 318.4 761.91 319.26H742.67C742.5 318.4 742.35 317.49 742.2 316.54ZM732.56 316.54H739.93C740.06 317.49 740.21 318.39 740.38 319.26H733.32C733.09 318.34 732.83 317.44 732.56 316.54ZM643.91 316.54H645.16V319.26H643.91V316.54ZM623.61 316.54H641.65V319.26H623.61V316.54ZM607.44 316.54H621.36V319.26H607.43L607.44 316.54ZM587.38 316.54H605.2L605.19 319.26H589.8C589.72 318.78 589.65 318.29 589.59 317.78C589.54 317.3 589.18 316.9 588.68 316.8C588.07 316.69 587.48 317.09 587.37 317.7C587.27 318.24 587.15 318.76 587.01 319.26H586.88C587.1 318.42 587.27 317.51 587.38 316.54ZM569.08 316.54H585.12C584.99 317.53 584.81 318.43 584.57 319.26H569.39C569.22 318.43 569.12 317.52 569.08 316.54ZM562.14 316.54H566.83C566.87 317.5 566.96 318.41 567.1 319.26H562.14V316.54ZM458.31 316.54H466.03V318.93V319.26H457.31L458.31 316.54ZM259.41 316.54H275.02C275.06 317.12 275.1 317.7 275.15 318.27C275.07 318.61 274.99 318.94 274.9 319.26H259.72C259.55 318.43 259.45 317.52 259.41 316.54ZM238.83 316.54H257.16C257.2 317.5 257.29 318.41 257.43 319.26H239.11C238.95 318.38 238.85 317.48 238.83 316.54ZM228.92 316.54H236.57C236.59 317.47 236.68 318.37 236.82 319.26H228.92V316.54ZM208.5 316.54H226.67V319.26H208.5V316.54ZM190.28 316.54H206.26V319.26H190.28V316.54ZM187.41 316.54H188.02V319.26H187.94C187.77 318.36 187.59 317.45 187.41 316.54ZM815.26 322.48H821.35C821.77 323.38 822.16 324.28 822.53 325.2H815.47C815.34 324.45 815.28 323.55 815.26 322.48ZM794.68 322.48H813.01C813.03 323.5 813.09 324.4 813.2 325.2H794.47C794.59 324.4 794.65 323.49 794.68 322.48ZM779.68 322.48H792.43C792.4 323.54 792.33 324.45 792.19 325.2H777.28C777.42 325.06 777.56 324.91 777.7 324.77C778.39 324.04 779.05 323.28 779.68 322.48ZM763.44 322.48H776.75C776.53 322.73 776.3 322.98 776.07 323.22C775.41 323.92 774.72 324.58 774 325.2H762.53C762.74 324.69 762.93 324.15 763.12 323.58C763.23 323.23 763.34 322.86 763.44 322.48ZM743.49 322.48H761.11L760.98 322.89C760.71 323.72 760.41 324.5 760.08 325.2H744.52C744.19 324.5 743.89 323.72 743.62 322.89L743.49 322.48ZM734.12 322.48H741.15C741.26 322.86 741.37 323.23 741.48 323.58C741.66 324.14 741.86 324.68 742.07 325.2H734.69C734.51 324.28 734.31 323.38 734.12 322.48ZM589.19 325.2H586.76C587.32 324.37 587.81 323.48 588.23 322.54C588.5 323.5 588.82 324.38 589.19 325.2ZM643.95 322.48H645.16V325.2H644.35C644.14 324.46 644.01 323.55 643.95 322.48ZM623.6 322.48H641.7C641.76 323.49 641.86 324.4 642.04 325.2H623.38C623.5 324.4 623.57 323.49 623.6 322.48ZM607.42 322.48H621.34C621.31 323.54 621.24 324.45 621.1 325.2H607.55C607.46 324.61 607.42 323.94 607.42 323.19V322.48ZM590.55 322.48H605.17V323.19C605.17 323.92 605.21 324.59 605.29 325.2H591.69C591.25 324.39 590.87 323.49 590.55 322.48ZM585.69 322.48H585.76C585.25 323.47 584.64 324.38 583.94 325.2H583.76C584.09 324.86 584.41 324.48 584.7 324.08C585.06 323.59 585.39 323.06 585.69 322.48ZM570.44 322.48H583.09C583.03 322.57 582.96 322.67 582.89 322.76C582.08 323.87 581.09 324.67 579.98 325.2H573.07C572.27 324.78 571.59 324.18 571.03 323.42C570.82 323.13 570.63 322.82 570.44 322.48ZM562.14 322.48H567.98C568.32 323.32 568.74 324.08 569.22 324.74C569.34 324.9 569.46 325.05 569.58 325.2H562.14V322.48ZM456.13 322.48H465.86C465.73 323.53 465.52 324.44 465.19 325.2H455.12L456.13 322.48ZM275.55 323.31L275.56 323.43C275.17 324.06 274.75 324.65 274.28 325.2H274.1C274.43 324.86 274.74 324.48 275.04 324.08C275.22 323.84 275.39 323.58 275.55 323.31ZM260.78 322.48H273.43C273.37 322.57 273.3 322.66 273.24 322.75C272.43 323.86 271.43 324.67 270.32 325.2H263.42C262.62 324.78 261.94 324.18 261.37 323.42C261.15 323.13 260.96 322.82 260.78 322.48ZM240.08 322.48H258.31C258.65 323.32 259.07 324.07 259.55 324.73C259.67 324.89 259.79 325.05 259.91 325.2H241.69C241.04 324.36 240.51 323.45 240.08 322.48ZM228.95 322.48H237.66C238.01 323.43 238.45 324.34 238.97 325.2H229.26C229.08 324.45 228.99 323.55 228.95 322.48ZM208.49 322.48H226.7C226.74 323.49 226.82 324.39 226.97 325.2H208.26C208.39 324.4 208.46 323.49 208.49 322.48ZM190.28 322.48H206.24C206.21 323.54 206.13 324.45 205.98 325.2H190.29V322.48H190.28ZM823.39 328.42H823.73C824.04 329.32 824.33 330.22 824.6 331.14H823.88V329.35C823.88 328.96 823.69 328.62 823.39 328.42ZM793.22 328.42H814.26C815.23 329.87 816.73 330.47 819.06 330.47H821.63V330.97C818.37 330.96 815.67 330.94 812.97 330.9C809.54 330.86 806.11 330.83 803.16 330.83C800.11 330.83 796.67 330.87 793.25 330.9C790.58 330.93 787.92 330.96 784.69 330.96V330.46H787.53C790.38 330.47 792.13 329.82 793.22 328.42ZM773.58 328.42H782.93C782.63 328.62 782.44 328.96 782.44 329.35V331.14H769.29C770.78 330.35 772.22 329.44 773.58 328.42ZM760.86 328.42H769.54C767.68 329.52 765.71 330.43 763.66 331.14H758.29C759.26 330.43 760.11 329.53 760.86 328.42ZM746.66 328.42H757.92C756.44 329.93 754.59 330.7 752.29 330.7C749.99 330.7 748.14 329.93 746.66 328.42ZM735.26 328.42H743.74C744.48 329.53 745.34 330.43 746.3 331.14H740.91C738.95 330.46 737.07 329.61 735.28 328.57L735.26 328.42ZM594.31 328.42H606.32C607.19 329.79 608.5 330.47 610.29 330.47H616.46C619.3 330.47 621.04 329.82 622.14 328.42H643.53C643.99 328.95 644.53 329.36 645.17 329.68V330.92L643.17 330.9C639.48 330.87 635.81 330.83 632.78 330.83C629.66 330.83 626.14 330.87 622.64 330.9C619.56 330.93 616.49 330.97 612.5 330.97H612.49L603.84 331.04C599.82 331.08 596.63 330.3 594.31 328.42ZM583.92 328.42H591.15C591.58 328.95 592.05 329.43 592.54 329.86C593.09 330.34 593.67 330.77 594.29 331.14H579.76C580.7 330.69 581.59 330.17 582.41 329.6C582.94 329.23 583.44 328.84 583.92 328.42ZM562.14 328.42H580.11C577.67 329.86 574.67 330.78 571.2 331.14H563.97C563.34 331.08 562.73 331 562.14 330.9V328.42ZM465.62 328.42H467.31V330.97H454.17V330.47H458.79C462 330.47 464.16 329.76 465.62 328.42ZM274.26 328.42H276.02C276.11 329.33 276.21 330.23 276.3 331.14H270.1C271.04 330.69 271.93 330.17 272.75 329.6C273.28 329.23 273.78 328.84 274.26 328.42ZM245.34 328.42H270.44C268 329.86 265 330.78 261.52 331.14H254.29C250.6 330.77 247.64 329.81 245.34 328.42ZM238.59 328.42H241.61C241.84 328.63 242.08 328.84 242.33 329.04C243.31 329.83 244.41 330.54 245.65 331.14H239.08V329.35C239.08 328.96 238.89 328.62 238.59 328.42ZM206.96 328.42H228.3C229.43 329.82 231.16 330.47 233.83 330.47H236.83V330.97C233.36 330.97 230.53 330.94 227.72 330.91C224.21 330.87 220.73 330.84 217.66 330.84C214.5 330.84 210.95 330.88 207.41 330.91C204.64 330.94 201.87 330.97 198.51 330.98V330.48H201.21C204.06 330.47 205.84 329.82 206.96 328.42ZM190.28 328.42H196.74C196.45 328.62 196.25 328.96 196.25 329.35V331.14H190.77C190.6 330.52 190.44 329.9 190.28 329.27V328.42ZM736.06 334.36H744.03C746.73 334.97 749.51 335.27 752.3 335.27C755.09 335.27 757.87 334.96 760.56 334.36H825.48C825.7 335.26 825.91 336.16 826.09 337.08H736.32C736.24 336.16 736.15 335.25 736.06 334.36ZM562.14 334.36H645.16V337.08H562.14V334.36ZM451.62 334.36H467.31V337.08H450.56C450.91 336.18 451.27 335.27 451.62 334.36ZM191.69 334.36H276.66C276.76 335.27 276.87 336.18 276.98 337.08H192.53C192.24 336.18 191.96 335.27 191.69 334.36ZM736.56 340.3H826.65C826.79 341.2 826.91 342.1 827.02 343.02H736.7C736.66 342.1 736.62 341.19 736.56 340.3ZM562.14 340.3H645.16V343.02H562.14V340.3ZM449.29 340.3H467.31V343.02H448.19C448.56 342.12 448.92 341.21 449.29 340.3ZM193.57 340.3H277.39C277.51 341.21 277.64 342.12 277.77 343.02H194.5C194.18 342.12 193.87 341.21 193.57 340.3ZM736.81 346.23H827.34C827.41 347.13 827.46 348.04 827.5 348.95H736.84C736.84 348.04 736.83 347.13 736.81 346.23ZM562.14 346.23H645.16V348.95H562.14V346.23ZM446.88 346.23H467.31V348.95H445.76C446.13 348.05 446.51 347.15 446.88 346.23ZM195.68 346.23H278.24C278.38 347.14 278.52 348.05 278.66 348.95H196.73C196.38 348.06 196.02 347.15 195.68 346.23ZM736.84 352.17H827.58C827.58 352.41 827.59 352.63 827.59 352.87C827.59 353.55 827.58 354.22 827.57 354.89H736.8C736.82 354 736.83 353.09 736.84 352.17ZM562.14 352.17H645.16V354.89H562.14V352.17ZM444.41 352.17H467.31V354.89H443.24C443.63 353.99 444.02 353.09 444.41 352.17ZM198.04 352.17H279.19C279.35 353.08 279.52 353.99 279.68 354.89H199.21C198.82 353.99 198.43 353.08 198.04 352.17ZM736.71 358.11H827.46C827.41 359.02 827.36 359.93 827.29 360.83H736.59C736.64 359.93 736.68 359.03 736.71 358.11ZM562.14 358.11H645.16V360.83H562.14V358.11ZM441.84 358.11H467.31V360.83H440.64C441.04 359.93 441.44 359.02 441.84 358.11ZM200.69 358.11H280.3C280.48 359.02 280.66 359.93 280.85 360.83H202C201.56 359.93 201.12 359.02 200.69 358.11ZM736.41 364.05H827C826.9 364.96 826.79 365.87 826.66 366.77H736.21C736.28 365.87 736.35 364.97 736.41 364.05ZM562.14 364.05H645.16V366.77H562.14V364.05ZM439.19 364.05H467.31V366.77H437.93C438.35 365.87 438.77 364.96 439.19 364.05ZM203.63 364.05H281.54C281.74 364.96 281.95 365.87 282.16 366.77H205.07C204.57 365.87 204.1 364.96 203.63 364.05ZM735.92 369.99H826.14C825.98 370.91 825.81 371.81 825.62 372.71H735.63C735.74 371.81 735.83 370.9 735.92 369.99ZM562.14 369.99H645.16V372.71H562.14V369.99ZM436.42 369.99H467.31V372.71H435.11C435.55 371.81 435.98 370.9 436.42 369.99ZM206.87 369.99H282.94C283.17 370.91 283.41 371.81 283.65 372.71H208.48C207.94 371.81 207.4 370.9 206.87 369.99ZM735.21 375.93H824.88C824.65 376.85 824.4 377.75 824.14 378.65H734.81C734.96 377.75 735.09 376.85 735.21 375.93ZM562.14 375.93H645.16V378.65H562.14V375.93ZM433.52 375.93H467.31V378.65H432.15C432.61 377.75 433.07 376.84 433.52 375.93ZM210.48 375.93H284.53C284.79 376.85 285.06 377.75 285.33 378.65H212.24C211.65 377.75 211.06 376.84 210.48 375.93ZM734.26 381.86H823.12C822.81 382.78 822.49 383.69 822.14 384.58H733.72C733.91 383.69 734.09 382.79 734.26 381.86ZM562.14 381.86H645.16V384.58H562.14V381.86ZM430.48 381.86H467.31V384.58H429.02C429.51 383.69 430 382.78 430.48 381.86ZM214.45 381.86H286.34C286.63 382.78 286.93 383.68 287.24 384.58H216.4C215.73 383.69 215.09 382.78 214.45 381.86ZM733.01 387.8H820.82C820.42 388.72 820 389.62 819.56 390.52H732.32C732.56 389.63 732.79 388.73 733.01 387.8ZM562.14 387.8H645.16V390.52H562.14V387.8ZM427.26 387.8H467.31V390.52H425.71C426.23 389.63 426.75 388.72 427.26 387.8ZM218.82 387.8H288.36C288.7 388.72 289.04 389.62 289.38 390.52H220.97C220.25 389.62 219.53 388.72 218.82 387.8ZM731.4 393.74H817.88C817.37 394.66 816.83 395.56 816.28 396.46H730.52C730.83 395.57 731.12 394.67 731.4 393.74ZM562.14 393.74H645.16V396.46H562.14V396.3V393.74ZM423.82 393.74H467.31V396.46H422.17C422.72 395.57 423.27 394.66 423.82 393.74ZM223.67 393.74H290.68C291.06 394.66 291.45 395.56 291.85 396.46H226.07C225.26 395.56 224.45 394.66 223.67 393.74ZM729.35 399.68H814.18C813.54 400.6 812.88 401.51 812.19 402.4H728.25C728.63 401.52 729 400.61 729.35 399.68ZM562.11 399.68H645.16V402.4H562.03C562.06 401.51 562.09 400.6 562.11 399.68ZM420.13 399.68H467.31V402.4H418.34C418.94 401.51 419.54 400.6 420.13 399.68ZM229.04 399.68H293.32C293.76 400.6 294.2 401.51 294.66 402.4H231.7C230.8 401.5 229.91 400.6 229.04 399.68ZM726.76 405.62H809.57C808.77 406.54 807.95 407.45 807.1 408.34H725.33C725.83 407.46 726.3 406.55 726.76 405.62ZM561.85 405.62H645.16V407.44C645.16 407.74 645.16 408.04 645.17 408.34H561.6C561.7 407.45 561.78 406.55 561.85 405.62ZM416.12 405.62H467.31V408.34H414.16C414.81 407.45 415.47 406.54 416.12 405.62ZM235.01 405.62H296.37C296.88 406.54 297.4 407.45 297.93 408.34H237.97C236.98 407.44 235.99 406.54 235.01 405.62ZM723.41 411.56H803.82C802.82 412.49 801.78 413.39 800.71 414.28H721.53C722.18 413.4 722.8 412.5 723.41 411.56ZM561.17 411.56H645.3C645.37 412.5 645.46 413.41 645.58 414.28H560.64C560.84 413.4 561.01 412.49 561.17 411.56ZM411.7 411.56H467.31V414.28H409.51C410.24 413.39 410.97 412.49 411.7 411.56ZM241.7 411.56H299.93C300.53 412.49 301.14 413.4 301.76 414.28H245.04C243.91 413.39 242.8 412.48 241.7 411.56ZM718.98 417.5H796.59C795.31 418.43 794 419.34 792.65 420.22H716.42C717.31 419.35 718.16 418.45 718.98 417.5ZM559.76 417.5H646.18C646.41 418.45 646.67 419.36 646.97 420.22H558.71C559.1 419.35 559.44 418.44 559.76 417.5ZM406.74 417.5H467.31V420.22H442.38L440.76 418.05C439.99 418.79 439.21 419.51 438.43 420.22H404.24C405.07 419.34 405.91 418.42 406.74 417.5ZM249.23 417.5H304.14C304.86 418.43 305.59 419.34 306.34 420.22H253.01C251.74 419.33 250.48 418.42 249.23 417.5ZM712.79 423.44H787.35C785.68 424.38 783.96 425.29 782.19 426.16H708.93C710.25 425.32 711.54 424.42 712.79 423.44ZM556.92 423.44H648.38C648.92 424.42 649.52 425.33 650.2 426.16H554.69C555.52 425.32 556.26 424.41 556.92 423.44ZM444.77 423.44H467.31V426.16H446.79L444.77 423.44ZM401.01 423.44H434.73C433.62 424.37 432.49 425.27 431.34 426.16H398.02C399.02 425.28 400.02 424.38 401.01 423.44ZM257.83 423.44H309.27C310.17 424.38 311.09 425.29 312.03 426.16H262.21C260.74 425.27 259.28 424.37 257.83 423.44ZM702.73 429.37H775.02C772.69 430.33 770.28 431.23 767.79 432.09H694.11C697.12 431.43 700 430.53 702.73 429.37ZM550.41 429.37H653.72C655.42 430.53 657.39 431.43 659.64 432.09H542.68C545.68 431.49 548.24 430.58 550.41 429.37ZM449.18 429.37H467.31V432.09H451.2L449.18 429.37ZM394.09 429.37H426.96C425.62 430.31 424.27 431.21 422.89 432.09H390.3C391.57 431.23 392.84 430.33 394.09 429.37ZM267.82 429.37H315.78C316.98 430.33 318.21 431.23 319.47 432.09H273.03C271.27 431.22 269.54 430.31 267.82 429.37ZM512.44 435.31H757.19C753.39 436.32 749.43 437.22 745.31 438.03H512.44V435.31ZM453.59 435.31H467.31V438.03H455.61L453.59 435.31ZM384.98 435.31H417.52C415.84 436.26 414.13 437.17 412.39 438.03H379.32C381.23 437.23 383.12 436.32 384.98 435.31ZM279.81 435.31H324.76C326.64 436.32 328.58 437.22 330.58 438.03H286.24C284.08 437.17 281.93 436.26 279.81 435.31ZM512.44 441.25H722.76C713.03 442.18 702.62 442.66 691.51 442.66H512.44V441.25ZM458 441.25H467.32V443.97H460.03L458 441.25ZM295.02 441.25H341.32C345.9 442.19 350.73 442.67 355.81 442.67C360.42 442.67 364.85 442.19 369.13 441.25H405.33C402.98 442.23 400.59 443.14 398.15 443.97H303.84C300.86 443.14 297.92 442.23 295.02 441.25ZM462.4 447.19H467.31V447.96H462.98L462.4 447.19ZM317.26 447.19H387.03C382.04 448.38 376.88 449.29 371.55 449.91H335.67C329.45 449.3 323.3 448.39 317.26 447.19ZM326.76 108.7H377.39C381.64 109.42 385.8 110.33 389.84 111.42H312.4C317.13 110.32 321.92 109.41 326.76 108.7Z" fill="white"/>
<path d="M709.93 288.92H712.26V263.02H711.17L707.07 268.49C702.81 264.93 696.64 262.88 689.8 262.88H689.65C698.42 262.89 704.17 273.16 709.93 288.92Z" fill="white"/>
<path d="M409.86 328.12C407.12 328.12 403.96 326.06 403.96 321.96C403.96 319.62 404.1 290.7 404.1 287.42C404.1 271.25 393.96 262.88 374.91 262.88H373.68C382.18 262.88 384.23 269.86 384.23 282.34V295.91C359.69 297.96 345.02 303.44 345.02 317.7C345.02 326.88 350.92 334.15 365.31 334.15C376.82 334.15 384.36 329.07 386.14 319.61C387.37 330.18 392.58 333.87 401.49 333.87C411.49 333.87 417.66 328.93 417.94 312.91H415.74C415.2 325.25 413 328.12 409.86 328.12ZM334.48 287.97C335.85 279.75 342.29 274.81 344.89 274.81C345.85 274.81 346.26 275.36 346.39 276.73C346.53 277.83 346.66 279.21 347.07 280.85C347.89 284.96 351.33 287.98 356.8 287.98C363.79 287.98 369.28 283.32 369.28 275.23C369.28 267.96 364.2 262.77 355.84 262.77C342.97 262.77 334.33 274.14 332.4 287.3C331.44 294.42 331.16 300.87 331.16 307.04C331.16 282.09 331.43 272.36 332.12 264.54L329.38 263.58L301.01 269.19V271.12L305.11 271.39C311.29 271.94 312.79 273.3 312.79 279.62V321.15C312.79 326.9 311.83 328.54 306.76 329.36H300.59C297.84 329.36 296.61 327.31 296.61 323.21C296.61 320.87 296.75 290.72 296.75 287.43C296.75 271.25 286.61 262.9 267.56 262.9C250.97 262.9 241.24 270.98 241.24 280.99C241.24 288.26 245.76 292.77 252.48 292.77C258.79 292.77 263.3 289.07 263.3 282.77C263.3 274.81 256.31 274.95 256.31 270.44C256.31 267.68 259.74 265.09 266.31 265.09C274.82 265.09 276.88 269.87 276.88 282.36V294.21C252.34 296.28 237.68 301.76 237.68 316.01C237.68 325.19 243.58 332.46 257.96 332.46C269.48 332.46 277.02 327.38 278.8 317.93C280.03 328.48 285.25 332.25 294.16 332.19C296.21 332.18 302.81 332.13 302.81 332.13C309.94 332.13 315.98 331.99 323.09 331.99C330.08 331.99 336.94 332.13 344.07 332.13V329.38H339.68C334.62 329.38 333.11 327.05 333.11 320.75V306.91C333.11 304.14 333.25 295.5 334.48 287.97ZM276.76 313.39C276.76 322.98 272.23 327.09 266.76 327.09C261.41 327.09 258.26 323.12 258.26 315.44C258.26 302.55 264.01 298.04 276.9 296.12L276.76 313.39ZM227.8 321.14V244.8C227.8 238.9 227.93 232.32 228.63 226.69L226.29 225.73L195.05 231.63V233.27L199.84 233.95C206.28 234.77 207.38 236.14 207.38 242.03V321.13C207.38 326.88 206.6 329.34 201.21 329.34H197.38V332.09C204.37 332.09 210.53 331.95 217.66 331.95C224.65 331.95 230.83 332.09 237.96 332.09V329.34H233.84C228.84 329.35 227.8 326.89 227.8 321.14ZM181.61 246.02C175.3 240.13 166.82 236.7 156.8 236.7C131.58 236.7 108.7 254.93 108.7 285.62C108.7 316.33 131.03 334.42 157.21 334.42C167.23 334.42 175.45 330.99 181.61 325.1L187.92 333.59H189.15V295.63H186.83C178.47 318.78 170.52 332.09 157.49 332.09C141.32 332.09 134.2 315.23 134.2 285.61C134.2 254.78 142.29 239.02 157.22 239.02C170.52 239.02 178.47 252.58 186.84 276.84H189.16V237.51H187.93L181.61 246.02ZM879.38 310.3C872.8 310.3 867.45 315.1 867.45 321.96C867.45 328.8 872.8 333.75 879.38 333.75C885.96 333.75 891.3 328.81 891.3 321.96C891.3 315.1 886.11 310.3 879.38 310.3ZM856.34 321.14V286.04C856.34 270.56 848.25 262.89 834.83 262.89C818.79 262.89 812.07 275.77 812.07 296.33C812.07 281.66 812.35 272.34 812.9 264.52L810.16 263.56L781.78 269.17V271.1L785.9 271.38C792.06 271.93 793.58 273.3 793.58 279.61V321.14C793.58 326.89 792.91 329.35 787.55 329.35H783.58V332.1C790.29 332.1 796.32 331.96 803.18 331.96C809.9 331.96 816.06 332.1 822.78 332.1V329.35H819.09C815.04 329.35 814.15 327.3 814.15 321.55V296.33C814.15 278.78 819.91 269.04 827.46 269.04C833.34 269.04 835.95 273.02 835.95 282.75V321.55C835.95 327.29 835.08 329.35 830.87 329.35H827.31V332.1C834.03 332.1 840.33 331.96 847.04 331.96C853.76 331.96 859.66 332.1 866.5 332.1V329.35H862.39C857.16 329.35 856.34 326.89 856.34 321.14ZM752.3 262.89C735.03 262.89 718.31 275.08 718.31 298.52C718.31 322.1 735.03 334.15 752.3 334.15C769.57 334.15 786.16 322.1 786.16 298.52C786.15 275.08 769.57 262.89 752.3 262.89ZM752.3 331.83C742.57 331.83 740.1 320.04 740.1 298.52C740.1 277.13 742.57 265.21 752.3 265.21C762.03 265.21 764.49 277.13 764.49 298.52C764.49 320.03 762.03 331.83 752.3 331.83ZM678.96 275.21C678.96 267.94 673.88 262.74 665.53 262.74C652.65 262.74 644.02 274.12 642.09 287.28C641.13 294.4 640.86 300.84 640.86 307.02C640.86 282.07 641.13 272.34 641.82 264.52L639.08 263.56L610.71 269.17V271.1L614.83 271.37C620.99 271.92 622.5 273.29 622.5 279.59V321.13C622.5 326.87 621.82 329.34 616.47 329.34H610.3C607.55 329.34 606.32 327.29 606.32 323.18C606.32 320.84 606.46 290.7 606.46 287.41C606.46 271.24 596.32 262.88 577.27 262.88C560.69 262.88 550.96 270.97 550.96 280.97C550.96 288.23 555.48 292.75 562.2 292.75C568.51 292.75 573.02 289.06 573.02 282.75C573.02 274.8 566.02 274.93 566.02 270.41C566.02 267.66 569.46 265.06 576.03 265.06C584.54 265.06 586.59 269.84 586.59 282.33V294.18C562.06 296.25 547.39 301.72 547.39 315.98C547.39 325.16 553.29 332.43 567.67 332.43C579.19 332.43 586.73 327.35 588.51 317.9C589.74 328.45 594.96 332.22 603.86 332.16C605.92 332.15 612.51 332.09 612.51 332.09C619.64 332.09 625.68 331.95 632.79 331.95C639.78 331.95 646.64 332.09 653.77 332.09V329.34H649.38C644.23 329.34 642.8 327.01 642.8 320.7V306.87C642.8 304.13 642.94 295.49 644.17 287.96C645.54 279.74 651.98 274.8 654.59 274.8C655.55 274.8 655.95 275.34 656.09 276.71C656.23 277.8 656.36 279.19 656.77 280.83C657.59 284.94 661.02 287.96 666.5 287.96C673.47 287.97 678.96 283.3 678.96 275.21ZM586.43 313.39C586.43 322.98 581.91 327.09 576.43 327.09C571.08 327.09 567.93 323.12 567.93 315.44C567.93 302.55 573.67 298.03 586.56 296.11L586.43 313.39ZM696.08 291.11C689.31 288.59 684.91 287.36 681.16 283.64C678.79 289.59 670.71 293.59 662.09 291.03C665.83 298.93 676.34 304.24 684.3 307.15C697.04 311.8 702.11 315.23 702.11 321.95C702.11 329.22 696.35 331.82 689.63 331.82C679.91 331.82 672.24 324 665.93 304.82H663.59V333.88H664.7L669.21 327.84C674.01 331.82 681.14 334.15 689.63 334.15C705.26 334.15 715.82 325.92 715.82 311.94C715.83 298.79 705.81 294.67 696.08 291.11ZM508.41 283.16V282.61C526.78 280.42 538.03 274.39 538.03 260.41C538.03 244.79 522.26 239.03 502.11 239.03H453.05V241.63H458.8C466.25 241.63 467.17 245.62 467.17 252.18V318.94C467.17 325.52 466.06 329.35 458.8 329.35H453.05V332.1H503.9C529.81 332.1 542.55 323.06 542.55 306.6C542.54 292.07 530.34 284.67 508.41 283.16ZM490.73 241.63H498.13C509.23 241.63 513.89 247.8 513.89 260.95C513.89 273.98 509.5 281.94 497.85 281.94H490.72V241.63H490.73ZM500.87 329.48H498C492.92 329.48 490.74 327.3 490.74 322.09V284.53H498.28C509.79 284.53 516.78 290.71 516.78 305.78C516.77 322.51 510.74 329.48 500.87 329.48ZM384.09 315.11C384.09 324.7 379.56 328.81 374.09 328.81C368.74 328.81 365.59 324.84 365.59 317.17C365.59 304.29 371.33 299.76 384.22 297.85L384.09 315.11Z" fill="white"/>
</svg>
