<svg width="1000" height="539" viewBox="0 0 1000 539" fill="none" xmlns="http://www.w3.org/2000/svg">
<path d="M775.88 245.18C790.67 245.18 802.64 257.33 802.64 272.34V278.41H749.47V272.34C749.47 257.32 761.44 245.18 775.88 245.18ZM775.88 226.23C750.88 226.23 730.46 246.96 730.46 272.33V313.43C730.46 338.45 752.29 359.54 778 359.54C792.08 359.54 804.76 354.54 813.21 345.25L813.91 344.53C815.32 343.1 817.43 340.24 817.43 336.66C817.43 331.66 813.2 327.01 807.92 327.01C804.75 327.01 801.94 328.44 800.17 331.3C795.95 337.38 785.38 340.59 777.99 340.59C762.5 340.59 749.12 328.09 749.12 313.43V297.35H811.79C817.07 297.35 821.3 293.06 821.3 287.7V272.33C821.3 246.96 800.88 226.23 775.88 226.23ZM673.42 245.18C688.21 245.18 700.18 257.33 700.18 272.34V278.41H647.01V272.34C647.01 257.32 658.98 245.18 673.42 245.18ZM673.42 226.23C648.42 226.23 628 246.96 628 272.33V313.43C628 338.45 649.84 359.54 675.54 359.54C689.62 359.54 702.3 354.54 710.75 345.25L711.46 344.53C712.87 343.1 714.98 340.24 714.98 336.66C714.98 331.66 710.75 327.01 705.47 327.01C702.3 327.01 699.48 328.44 697.72 331.3C693.49 337.38 682.93 340.59 675.54 340.59C660.05 340.59 646.67 328.09 646.67 313.43V297.35H709.35C714.63 297.35 718.86 293.06 718.86 287.7V272.33C718.84 246.96 698.42 226.23 673.42 226.23ZM610.39 338.1H532.22L617.43 193C618.49 191.21 619.19 189.42 619.19 187.64C619.19 182.63 615.32 178.7 609.69 178.7H520.6C515.32 178.7 511.09 182.99 511.09 188.34C511.09 193.71 515.31 197.99 520.6 197.99H592.78L507.57 342.73C506.51 344.52 505.81 346.3 505.81 348.09C505.81 353.09 509.69 357.02 515.32 357.02H610.04C615.32 357.02 619.54 352.73 619.54 347.38C619.54 342.39 615.67 338.1 610.39 338.1ZM453.34 245.18C468.13 245.18 480.1 257.33 480.1 272.34V278.41H426.58V272.34C426.58 257.32 438.56 245.18 453.34 245.18ZM453.34 226.23C428.34 226.23 407.92 246.96 407.92 272.33V313.43C407.92 338.45 429.75 359.54 455.46 359.54C469.54 359.54 482.22 354.54 490.67 345.25L491.37 344.53C492.78 343.1 494.89 340.24 494.89 336.66C494.89 331.66 490.67 327.01 485.38 327.01C482.21 327.01 479.4 328.44 477.64 331.3C473.41 337.38 462.85 340.59 455.46 340.59C439.97 340.59 426.59 328.09 426.59 313.43V297.35H489.27C494.55 297.35 498.78 293.06 498.78 287.7V272.33C498.77 246.96 478.34 226.23 453.34 226.23ZM350.88 245.18C365.67 245.18 377.64 257.33 377.64 272.34V278.41H324.12V272.34C324.12 257.32 336.09 245.18 350.88 245.18ZM350.88 226.23C325.88 226.23 305.46 246.96 305.46 272.33V313.43C305.46 338.45 327.29 359.54 353 359.54C367.08 359.54 379.76 354.54 388.21 345.25L388.91 344.53C390.32 343.1 392.43 340.24 392.43 336.66C392.43 331.66 388.2 327.01 382.92 327.01C379.75 327.01 376.94 328.44 375.18 331.3C370.95 337.38 360.39 340.59 353 340.59C337.51 340.59 324.12 328.09 324.12 313.43V297.35H386.8C392.08 297.35 396.31 293.06 396.31 287.7V272.33C396.3 246.96 375.88 226.23 350.88 226.23ZM233.63 338.1H197.72V197.64H233.63C255.81 197.64 274.13 215.86 274.13 238.74V297.35C274.12 319.87 255.81 338.1 233.63 338.1ZM233.63 178.7H188.2C182.92 178.7 178.69 182.99 178.69 188.35V347.75C178.69 353.11 182.91 357.4 188.2 357.4H233.62C266.37 357.4 292.78 330.59 292.78 297.36V238.75C292.78 205.5 266.02 178.7 233.63 178.7Z" fill="white"/>
</svg>
