<svg width="1000" height="309" viewBox="0 0 1000 309" fill="none" xmlns="http://www.w3.org/2000/svg">
<path d="M152.14 205.82C122.84 205.82 102.98 184.97 102.98 154.4C102.98 123.27 122.98 102.98 151.3 102.98C175.81 102.98 191.45 115.1 196.66 135.95C196.8 136.51 196.38 137.07 195.82 137.07H175.96C175.26 137.07 174.69 136.65 174.55 135.95C171.31 124.96 163.56 119.33 151.44 119.33C134.25 119.33 125.1 132.85 125.1 154.69C125.1 176.1 134.54 189.48 152.01 189.48C166.1 189.48 175.25 181.31 175.82 166.09H151.17C150.61 166.09 150.04 165.53 150.04 164.97V151.3C150.04 150.74 150.6 150.18 151.17 150.18H197.66C198.22 150.18 198.78 150.74 198.78 151.3C199.2 187.93 182.57 205.82 152.14 205.82Z" fill="white"/>
<path d="M211.76 203.71C211.2 203.71 210.64 203.15 210.64 202.58L211.06 154.4L210.64 106.22C210.64 105.66 211.2 105.1 211.76 105.1H230.92C231.49 105.1 232.05 105.66 232.05 106.22L231.62 154.4L232.05 202.58C232.05 203.14 231.49 203.71 230.92 203.71H211.76Z" fill="white"/>
<path d="M265.73 156.66V202.58C265.73 203.15 265.17 203.71 264.6 203.71H246.85C246.29 203.71 245.73 203.15 245.73 202.58L246 154.4L245.72 106.22C245.72 105.66 246.28 105.1 246.84 105.1H270.51C271.21 105.1 271.92 105.52 272.2 106.08L311.78 175.81L310.94 156.94V106.22C310.94 105.66 311.5 105.1 312.07 105.1H329.82C330.38 105.1 330.95 105.66 330.95 106.22L330.67 154.4L330.95 202.58C330.95 203.15 330.39 203.71 329.82 203.71H305.31C304.61 203.71 303.91 203.28 303.62 202.72L264.88 133.55L265.03 136.23L265.73 156.66Z" fill="white"/>
<path d="M391.98 189.34C409.73 189.34 419.59 176.24 419.59 154.69C419.59 133.13 409.87 119.47 391.84 119.47C373.81 119.47 364.23 132.71 364.23 154.69C364.23 176.1 374.23 189.34 391.98 189.34ZM391.84 205.82C361.69 205.82 342.11 184.83 342.11 154.69C342.11 123.27 361.55 102.98 391.84 102.98C421.85 102.98 441.71 122.84 441.71 154.69C441.71 184.83 421.99 205.82 391.84 205.82Z" fill="white"/>
<path d="M527.54 120.74H506.97L506.83 151.45H528.1C537.11 151.45 544.86 147.22 544.86 136.51C544.87 125.81 538.52 120.74 527.54 120.74ZM530.64 181.73L520.92 167.08H506.83L507.11 202.58C507.11 203.14 506.54 203.71 505.98 203.71H486.68C486.11 203.71 485.56 203.15 485.56 202.58L485.84 154.4L485.56 106.22C485.56 105.66 486.12 105.1 486.68 105.1H526.69C551.35 105.1 565.58 115.53 565.58 136.09C565.58 150.6 557.54 160.6 543.61 164.82L568.26 202.72C568.54 203.15 568.26 203.71 567.7 203.71H545.02C544.31 203.71 543.61 203.28 543.32 202.72L530.64 181.73Z" fill="white"/>
<path d="M624.06 189.34C641.81 189.34 651.67 176.24 651.67 154.69C651.67 133.13 641.95 119.47 623.92 119.47C605.89 119.47 596.31 132.71 596.31 154.69C596.31 176.1 606.31 189.34 624.06 189.34ZM623.92 205.82C593.77 205.82 574.19 184.83 574.19 154.69C574.19 123.27 593.63 102.98 623.92 102.98C653.93 102.98 673.79 122.84 673.79 154.69C673.79 184.83 654.07 205.82 623.92 205.82Z" fill="white"/>
<path d="M727.35 205.96C701.43 205.96 683.54 194.97 682.69 171.59C682.69 171.03 683.25 170.46 683.82 170.46H703.97C704.53 170.46 705.1 170.89 705.24 171.59C706.51 182.58 711.58 189.9 727.78 189.9C740.6 189.9 747.64 186.1 747.64 176.8C747.64 154.54 684.67 172.15 684.67 132.99C684.67 114.53 699.04 102.98 724.26 102.98C747.36 102.98 763.28 112 766.24 133.13C766.38 133.69 765.81 134.26 765.25 134.26H744.97C744.41 134.26 743.84 133.83 743.7 133.13C742.71 124.12 735.53 119.18 723.41 119.18C713.27 119.18 705.94 122.71 705.94 130.88C705.94 151.87 769.19 134.82 769.19 173.84C769.18 194.7 753.13 205.96 727.35 205.96Z" fill="white"/>
<path d="M822.33 205.96C796.41 205.96 778.52 194.97 777.67 171.59C777.67 171.03 778.23 170.46 778.8 170.46H798.95C799.51 170.46 800.08 170.89 800.22 171.59C801.49 182.58 806.56 189.9 822.76 189.9C835.58 189.9 842.62 186.1 842.62 176.8C842.62 154.54 779.65 172.15 779.65 132.99C779.65 114.53 794.02 102.98 819.24 102.98C842.34 102.98 858.26 112 861.22 133.13C861.36 133.69 860.79 134.26 860.23 134.26H839.95C839.39 134.26 838.82 133.83 838.68 133.13C837.69 124.12 830.51 119.18 818.39 119.18C808.25 119.18 800.92 122.71 800.92 130.88C800.92 151.87 864.17 134.82 864.17 173.84C864.17 194.7 848.11 205.96 822.33 205.96Z" fill="white"/>
<path d="M876.73 203.71C876.17 203.71 875.61 203.15 875.61 202.58L876.03 154.4L875.61 106.22C875.61 105.66 876.17 105.1 876.73 105.1H895.89C896.46 105.1 897.02 105.66 897.02 106.22L896.59 154.4L897.02 202.58C897.02 203.14 896.46 203.71 895.89 203.71H876.73Z" fill="white"/>
</svg>
