<svg width="1000" height="684" viewBox="0 0 1000 684" fill="none" xmlns="http://www.w3.org/2000/svg">
<path d="M268.82 322.09C282.89 322.09 291.33 313.47 291.33 299.58C291.33 285.33 282.52 276.33 268.08 276.33C254.58 276.33 245.94 284.96 245.94 298.47C245.93 313.47 254.18 322.09 268.82 322.09ZM268.07 389.99C288.88 389.99 299.2 385.3 299.2 375.18C299.2 365.24 289.08 360.73 267.88 360.73C250.43 360.73 241.07 366.18 241.07 375.18C241.06 384.73 250.25 389.99 268.07 389.99ZM232.43 342.72C232.43 335.78 236.75 331.47 245.56 326.4C237.49 320.58 233.18 311.77 233.18 299.77C233.18 278.76 246.68 265.44 269.38 265.44C278.57 265.44 286.26 267.88 292.45 272.76C298.82 267.13 304.26 264.13 310.45 264.13H312.89V276.89H310.08C304.26 276.89 300.51 277.45 298.63 279.89C302.57 285.52 304.08 291.71 304.08 299.21C304.08 320.03 290.39 333.15 268.63 333.15C263.75 333.15 258.87 332.4 254 331.09C248.55 333.15 245.74 336.53 245.74 339.9C245.74 347.59 255.31 346.46 273.89 348.15C299.96 350.59 312.52 355.65 312.52 374.6C312.52 391.66 297.51 401.04 268.25 401.04C241.44 401.04 227.93 393.16 227.93 377.22C227.93 367.66 232.99 362.03 244.25 357.53C236.18 354.72 232.43 350.04 232.43 342.72Z" fill="white"/>
<path d="M360.15 355.66C377.22 355.66 386.96 342.16 386.96 316.46C386.96 290.58 377.4 277.26 360.15 277.26C342.9 277.26 333.14 290.58 333.14 316.28C333.15 342.16 342.9 355.66 360.15 355.66ZM360.15 265.63C385.65 265.63 401.04 283.63 401.04 316.27C401.04 348.9 385.65 367.1 360.15 367.1C334.64 367.1 319.26 348.91 319.26 316.27C319.26 283.64 334.64 265.63 360.15 265.63Z" fill="white"/>
<path d="M419.79 339.91C427.48 350.42 436.67 355.66 447.73 355.66C459.74 355.66 467.42 349.1 467.42 339.16C467.42 326.03 456.36 325.09 437.23 319.28C420.54 314.21 412.47 305.39 412.47 292.46C412.47 276.52 424.66 265.64 442.1 265.64C456.55 265.64 467.99 270.89 477.37 281.96L468.37 290.97C461.05 281.59 452.61 276.9 442.86 276.9C432.73 276.9 426.35 282.53 426.35 291.16C426.35 295.28 428.04 299.04 431.23 301.28C437.79 305.97 446.98 307.1 457.3 310.48C473.62 315.72 481.12 323.97 481.12 337.67C481.12 355.12 467.81 367.12 446.05 367.12C430.67 367.12 416.98 360.37 408.92 348.55L419.79 339.91Z" fill="white"/>
<path d="M532.32 355.66C549.39 355.66 559.14 342.16 559.14 316.46C559.14 290.58 549.57 277.26 532.32 277.26C515.07 277.26 505.31 290.58 505.31 316.28C505.31 342.16 515.07 355.66 532.32 355.66ZM532.32 265.63C557.82 265.63 573.21 283.63 573.21 316.27C573.21 348.9 557.82 367.1 532.32 367.1C506.82 367.1 491.43 348.91 491.43 316.27C491.43 283.64 506.82 265.63 532.32 265.63Z" fill="white"/>
<path d="M594.58 278.95H578.07V267.32H594.58V253.44C594.58 236.37 602.08 227.93 617.46 227.93C620.84 227.93 624.78 228.49 629.47 229.62V240.87C625.34 239.93 621.96 239.56 619.34 239.56C611.84 239.56 608.1 243.88 608.1 252.32V267.33H628.72V278.96H608.1V365.42H594.59V278.95H594.58Z" fill="white"/>
<path d="M686.69 365.04C682.37 366.54 677.68 367.11 672.25 367.11C657.44 367.11 649.93 360.73 649.93 347.97V278.95H635.3V267.32H649.93V235.61H664.18V267.32H686.5V278.95H664.18V341.78C664.18 351.73 665.68 355.1 677.13 355.1C680.88 355.1 683.69 354.35 686.69 353.61V365.04V365.04Z" fill="white"/>
<path d="M571.33 413.66C566.81 413.66 563.26 417.37 563.26 421.89C563.26 426.42 566.81 430.16 571.33 430.16C575.85 430.16 579.4 426.42 579.4 421.89C579.4 417.37 575.85 413.66 571.33 413.66Z" fill="white"/>
<path d="M712.73 413.93H708.25V420.59H712.77C714.78 420.59 716.95 419.69 716.95 417.21C716.95 414.69 714.77 413.93 712.73 413.93Z" fill="white"/>
<path d="M678.05 413.66C673.53 413.66 669.98 417.37 669.98 421.89C669.98 426.42 673.53 430.16 678.05 430.16C682.58 430.16 686.12 426.42 686.12 421.89C686.12 417.37 682.58 413.66 678.05 413.66Z" fill="white"/>
<path d="M334.86 387.95V455.87H772.06V387.95H334.86ZM365.24 435.41C358.95 435.41 355.57 432.23 354.73 427.29L359.78 426.08C360.21 428.95 362.53 430.53 365.41 430.53C367.92 430.53 369.35 429.19 369.35 427.58C369.35 426.28 368.18 425.21 366.37 424.83L362.66 424.09C358.41 423.26 355.66 420.54 355.66 416.56C355.66 411.88 359.91 408.4 364.93 408.4C370.99 408.4 373.93 412.02 374.39 415.36L369.47 416.83C369.04 414.79 367.57 413.25 364.89 413.25C362.65 413.25 361.07 414.62 361.07 416.16C361.07 417.4 361.87 418.5 363.79 418.88L367.44 419.55C372.29 420.41 374.83 423.53 374.83 427.24C374.84 431.3 371.43 435.41 365.24 435.41ZM413.9 435.01H408.04L402.35 416H402.28L396.56 435.01H390.74L383.05 408.81H388.84L393.83 427.41L399.49 408.81H405.28L410.93 427.55L416.09 408.81H421.68L413.9 435.01ZM437.43 435.01H432.01V408.81H437.43V435.01ZM458.91 435.41C452.62 435.41 449.24 432.23 448.41 427.29L453.45 426.08C453.89 428.95 456.2 430.53 459.08 430.53C461.59 430.53 463.03 429.19 463.03 427.58C463.03 426.28 461.85 425.21 460.04 424.83L456.33 424.09C452.08 423.26 449.33 420.54 449.33 416.56C449.33 411.88 453.58 408.4 458.6 408.4C464.66 408.4 467.6 412.02 468.06 415.36L463.15 416.83C462.71 414.79 461.24 413.25 458.56 413.25C456.32 413.25 454.75 414.62 454.75 416.16C454.75 417.4 455.54 418.5 457.46 418.88L461.11 419.55C465.96 420.41 468.51 423.53 468.51 427.24C468.52 431.3 465.1 435.41 458.91 435.41ZM488.44 435.41C482.14 435.41 478.76 432.23 477.93 427.29L482.98 426.08C483.41 428.95 485.72 430.53 488.6 430.53C491.12 430.53 492.55 429.19 492.55 427.58C492.55 426.28 491.38 425.21 489.57 424.83L485.85 424.09C481.6 423.26 478.86 420.54 478.86 416.56C478.86 411.88 483.11 408.4 488.12 408.4C494.18 408.4 497.13 412.02 497.59 415.36L492.67 416.83C492.24 414.79 490.77 413.25 488.09 413.25C485.84 413.25 484.27 414.62 484.27 416.16C484.27 417.4 485.07 418.5 486.98 418.88L490.64 419.55C495.49 420.41 498.03 423.53 498.03 427.24C498.03 431.3 494.63 435.41 488.44 435.41ZM536.26 435.37C529.1 435.37 522.78 430.02 522.78 421.92C522.78 414.08 529.13 408.4 536.4 408.4C543.76 408.4 547.67 413.32 548.58 416.87L543.42 418.68C543.02 417.01 540.85 413.68 536.33 413.68C531.75 413.68 528.4 417.4 528.4 421.85C528.4 426.37 531.64 430.12 536.33 430.12C540.82 430.12 543.06 426.84 543.56 424.89L548.75 426.67C547.97 429.89 544.06 435.37 536.26 435.37ZM571.26 435.41C563.73 435.41 557.71 429.49 557.71 421.93C557.71 414.4 563.86 408.41 571.4 408.41C578.93 408.41 584.92 414.27 584.92 421.8C584.92 429.42 578.79 435.41 571.26 435.41ZM625.28 435.01H619.93V417.67H619.9L612.46 435.01H608.84L601.44 417.81H601.41V435.01H596.09V408.81H603.09L610.65 426.48L618.09 408.81H625.28V435.01ZM655.33 413.96H643.48V419.52H654.08V424.67H643.48V435.02H638.06V408.82H655.32V413.96H655.33ZM677.99 435.41C670.46 435.41 664.44 429.49 664.44 421.93C664.44 414.4 670.59 408.41 678.13 408.41C685.66 408.41 691.65 414.27 691.65 421.8C691.64 429.42 685.52 435.41 677.99 435.41ZM717.19 435.01L712.19 425.6H708.25V435.01H702.82V408.81H713.17C718.26 408.81 722.43 411.56 722.43 417.11C722.43 421 720.43 423.44 717.52 424.6L723.07 435.01H717.19V435.01ZM752.18 414.06H744.31V435.01H738.93V414.06H731.06V408.81H752.17V414.06H752.18Z" fill="white"/>
</svg>
