<svg width="1000" height="290" viewBox="0 0 1000 290" fill="none" xmlns="http://www.w3.org/2000/svg">
<path d="M141.3 113.29V142.31H107.46V113.29H96.3999V182.11H107.46V152.81H141.3V182.11H152.36V113.29H141.3V113.29Z" fill="white"/>
<path d="M240.02 130.3C236.8 124.87 232.51 120.55 227.11 117.36C223.84 115.4 220.4 114.04 216.81 113.29C214.47 112.79 212.06 112.54 209.57 112.54C207.06 112.54 204.65 112.79 202.28 113.29C198.66 114.04 195.19 115.4 191.93 117.36C186.55 120.55 182.28 124.87 179.14 130.25C175.97 135.65 174.39 141.48 174.39 147.79C174.39 154.22 175.97 160.13 179.14 165.48C182.28 170.83 186.55 175.08 191.93 178.19C197.33 181.3 203.21 182.86 209.57 182.86C215.88 182.86 221.73 181.28 227.16 178.14C232.59 175 236.88 170.73 240.07 165.38C243.24 160.03 244.84 154.17 244.84 147.79C244.85 141.56 243.24 135.73 240.02 130.3ZM230.32 160.13C228.21 163.87 225.35 166.84 221.75 169.02C218.16 171.18 214.19 172.29 209.84 172.29C205.44 172.29 201.4 171.18 197.7 168.97C194.01 166.76 191.09 163.79 188.96 160.08C186.8 156.36 185.74 152.27 185.74 147.79C185.74 143.31 186.8 139.2 188.91 135.4C191.02 131.63 193.88 128.64 197.5 126.43C201.14 124.22 205.14 123.11 209.56 123.11C213.91 123.11 217.9 124.22 221.57 126.43C225.21 128.64 228.13 131.63 230.26 135.4C232.4 139.19 233.48 143.31 233.48 147.79C233.48 152.27 232.43 156.39 230.32 160.13Z" fill="white"/>
<path d="M328.24 113.29L301.28 155.78L274.77 113.29H266.88V182.11H277.56V138.44L301.1 174.02H301.28L325.4 136.83V182.11H336.35V113.29H328.24V113.29Z" fill="white"/>
<path d="M373.72 171.54V152.82H404.55V142.22H373.72V123.88H408.32V113.3H362.67V182.12H409.66V171.54H373.72Z" fill="white"/>
<path d="M523.32 153.55C523.04 152.57 522.34 151.74 521.18 151.06C517.99 151.06 514.62 152.09 511.08 154.15C508.12 156.18 505.13 158.27 502.11 160.38C499.07 162.52 495.95 164.58 492.76 166.64C491.05 164.93 489.37 163.2 487.71 161.41C486.05 159.65 484.49 157.92 483.01 156.18C485.62 151.73 487.86 147.81 489.69 144.37C491.5 140.95 493.01 137.81 494.21 134.97C495.42 132.11 496.3 129.52 496.87 127.16C497.42 124.82 497.82 122.51 498.05 120.25C498.13 117.79 498.05 115.45 497.8 113.29C497.7 112.13 497.52 111.03 497.3 109.97C496.67 106.88 495.54 104.29 493.96 102.18C492.35 100.07 490.22 98.4899 487.53 97.4599C484.87 96.4299 481.52 96.1499 477.53 96.6099C473.54 97.4099 469.84 99.2999 466.47 102.26C463.1 105.23 460.79 108.67 459.54 112.54C459.46 112.79 459.39 113.04 459.31 113.29C457.55 118.99 457.17 124.85 458.08 130.85C459.06 137.13 461.02 142.84 463.98 147.96C464.68 149.34 465.54 150.77 466.57 152.26C467.57 153.74 468.73 155.33 469.99 157.06C466.22 163.09 461.77 170.45 456.62 179.15C455.04 182.44 454.91 185.31 456.29 187.69C457.32 189.65 459.25 191.13 462.09 192.16C464.28 192.84 466.46 192.96 468.7 192.59C470.91 192.19 473.07 191.41 475.11 190.25C477.85 188.79 480.59 187.24 483.33 185.65C486.07 184.04 488.76 182.43 491.4 180.85C495.4 184.72 499.26 188.26 503.03 191.45C504.29 191.45 505.84 191.35 507.73 191.12C509.61 190.89 511.2 190.14 512.45 188.88C513.03 188.08 512.88 187.12 512.02 185.97C511.17 184.84 510.26 183.81 509.36 182.9C508 181.64 506.6 180.31 505.16 178.96C503.73 177.58 502.27 176.17 500.79 174.66C504.01 172.63 507.07 170.51 510.04 168.33C513.03 166.17 515.87 164.06 518.61 162C519.64 161.32 520.6 160.49 521.45 159.51C522.3 158.56 522.88 157.55 523.23 156.52C523.59 155.51 523.62 154.5 523.32 153.55ZM469.22 130.51C468.72 127.67 468.57 124.78 468.79 121.87C469.02 118.96 469.77 116.19 471.03 113.58C471.08 113.48 471.13 113.4 471.18 113.3C471.96 111.79 473.22 110.46 474.87 109.28C476.63 108.02 478.66 107.4 480.95 107.4C483.11 107.4 484.79 108.25 486 109.99C486.7 111 487.21 112.1 487.51 113.31C487.71 114.14 487.81 115.04 487.81 115.97C487.81 118.38 487.61 120.62 487.21 122.73C486.81 124.84 486.15 127.08 485.22 129.41C484.32 131.75 483.11 134.31 481.63 137.12C480.15 139.91 478.26 143.25 475.98 147.12C475.75 146.89 475.63 146.69 475.55 146.52C475.5 146.37 475.42 146.17 475.3 145.94C473.94 143.88 472.71 141.52 471.63 138.83C470.53 136.13 469.75 133.37 469.22 130.51ZM475.3 177.34C472.56 178.87 469.87 180.41 467.26 181.89C469.19 178.93 470.95 176.09 472.56 173.4C474.17 170.74 475.7 168.2 477.18 165.79C478.21 166.95 479.24 168.08 480.27 169.21C481.3 170.37 482.33 171.5 483.34 172.65C480.73 174.22 478.04 175.81 475.3 177.34Z" fill="white"/>
<path d="M603.29 155.56C607.13 153.6 609.95 150.81 611.73 147.19C613.54 143.55 614.44 139.63 614.44 135.41C614.44 128.48 612.1 123.07 607.48 119.15C602.86 115.23 596.68 113.3 588.99 113.3H569.62V182.12H580.68V158.2H591.76L607.26 182.12H620.02L603.29 155.56ZM600.13 143.97C598.15 146.38 594.93 147.61 590.53 147.61H580.68V123.87H590.91C593.87 123.87 596.26 124.52 598.1 125.8C599.91 127.11 601.22 128.64 601.97 130.45C602.72 132.23 603.1 134.02 603.1 135.78C603.09 138.82 602.11 141.54 600.13 143.97Z" fill="white"/>
<path d="M651.41 171.54V152.82H682.24V142.22H651.41V123.88H686.03V113.3H640.35V182.12H687.34V171.54H651.41Z" fill="white"/>
<path d="M721.01 171.54V113.3H709.95V182.12H754.95V171.54H721.01V171.54Z" fill="white"/>
<path d="M800.83 110.46H800.15L769.72 182.12H780.57L787.2 165.96H812.25L818.58 182.12H831.24L800.83 110.46ZM791.08 156.49L799.97 134.76L808.56 156.49H791.08Z" fill="white"/>
<path d="M880.91 147.32L902.74 113.3H889.42L874.85 138.15L858.69 113.3H844.69L866.35 146.67L843.74 182.12H857.36L872.49 156.11L889.42 182.12H903.59L880.91 147.32Z" fill="white"/>
</svg>
