<svg width="1000" height="350" viewBox="0 0 1000 350" fill="none" xmlns="http://www.w3.org/2000/svg">
<path d="M256.8 185.73H303.51L280.21 149.31L256.8 185.73ZM134.32 232.78C133.1 232.78 131.91 232.63 130.73 232.38C129.59 232.12 128.45 231.71 127.36 231.17C124.01 229.52 121.31 226.86 119.45 223.68C118.8 222.59 118.25 221.42 117.79 220.17C117.32 218.91 116.96 217.62 116.72 216.3C116.5 214.95 116.38 213.59 116.38 212.17V131.55C125.47 123.38 136.83 118.4 148.85 116.4C148.85 147.86 148.84 179.31 148.84 210.77C148.84 212.7 149.42 214.33 150.59 215.67C151.77 217.02 153.18 217.69 154.86 217.69H232.08H233.4C234.86 217.69 235.41 218.72 234.62 219.99L228.12 230.48C227.35 231.76 225.53 232.78 224.07 232.78C194.17 232.77 164.24 232.78 134.32 232.78ZM883.61 230.32C883.61 231.68 882.65 232.79 881.46 232.79H865.25C864.06 232.79 862.93 232.53 861.87 232.04C860.8 231.54 859.86 230.81 859.01 229.83C858.18 228.87 857.54 227.78 857.1 226.55C856.67 225.33 856.45 224.04 856.45 222.67V145.94C864.06 139.1 873.56 134.95 883.61 133.26V230.32ZM251.89 201.12C251.15 201.12 250.59 201.12 250.24 201.14C249.82 201.15 249.39 201.19 248.92 201.24C248.37 201.3 247.84 201.48 247.35 201.81C247.05 202 246.76 202.25 246.47 202.53C246.13 202.87 245.77 203.25 245.42 203.7C245.03 204.18 244.6 204.78 244.12 205.46C243.65 206.17 243.11 206.96 242.53 207.88L242.43 208.04C242.1 208.51 241.78 209.02 241.43 209.54H222.75L271.17 134.26C271.59 133.61 272.22 133.26 272.89 133.26V133.25H302.31C303.08 133.25 303.76 133.72 304.14 134.42L364.77 228.84C365.47 229.94 365.27 231.48 364.32 232.28C363.94 232.61 363.49 232.76 363.04 232.76V232.77H334.85C334.09 232.77 333.43 232.31 333.04 231.63L313.56 201.11H251.89V201.12ZM476.91 135.72V230.31C476.91 231.67 475.95 232.78 474.76 232.78H473.32C472.64 232.78 471.94 232.72 471.26 232.62C470.58 232.52 469.92 232.36 469.34 232.16C468.16 231.76 467 231.17 465.83 230.4L465.71 230.33C465.21 229.98 464.67 229.6 464.12 229.2C463.56 228.77 462.95 228.3 462.31 227.78C461.13 226.8 459.8 225.67 458.32 224.39L456.82 223.14H456.81L453.88 220.68C452.01 219.13 450.66 218 449.76 217.25L444.72 213.1L438.81 208.23L438.7 208.14L432.46 203.01L418.69 191.71C413.25 187.25 407.47 182.51 401.37 177.52C396.29 173.36 390.98 169.02 385.43 164.48V230.3C385.43 231.66 384.47 232.77 383.29 232.77H373.52C372.34 232.77 371.39 231.66 371.39 230.3V135.71C371.39 134.35 372.34 133.24 373.52 133.24H383.29C383.83 133.24 384.31 133.46 384.69 133.85L462.87 198.45V135.71C462.87 134.35 463.82 133.24 465.01 133.24H474.77C475.95 133.25 476.91 134.37 476.91 135.72ZM845.35 135.72V144.28C845.35 145.63 844.4 146.74 843.22 146.74H806.52C805.82 146.74 805.22 146.87 804.68 147.12C804.16 147.37 803.69 147.73 803.28 148.22C802.84 148.74 802.52 149.3 802.32 149.9C802.11 150.5 802.02 151.18 802.02 151.93V230.31C802.02 231.67 801.04 232.78 799.87 232.78H783.55C782.36 232.78 781.23 232.52 780.17 232.03C779.12 231.53 778.15 230.8 777.32 229.82C776.48 228.86 775.84 227.77 775.39 226.54C774.96 225.32 774.75 224.03 774.75 222.66V146.74H733.53C732.34 146.74 731.39 145.63 731.39 144.28V135.72C731.39 134.36 732.34 133.25 733.53 133.25H843.23C844.4 133.25 845.35 134.37 845.35 135.72ZM721.72 135.72V144.28C721.72 145.63 720.77 146.74 719.58 146.74H682.89C682.19 146.74 681.59 146.87 681.05 147.12C680.53 147.37 680.06 147.73 679.64 148.22C679.21 148.74 678.89 149.3 678.68 149.9C678.48 150.5 678.37 151.18 678.37 151.93V230.31C678.37 231.67 677.42 232.78 676.24 232.78H659.9C658.71 232.78 657.58 232.52 656.51 232.03C655.46 231.53 654.5 230.8 653.66 229.82C652.83 228.86 652.18 227.77 651.74 226.54C651.31 225.32 651.09 224.03 651.09 222.66V146.74H609.87C608.69 146.74 607.74 145.63 607.74 144.28V135.72C607.74 134.36 608.69 133.25 609.87 133.25H719.57C720.77 133.25 721.72 134.37 721.72 135.72ZM520.69 185.67C520.02 185.67 519.39 185.8 518.86 186.05C518.33 186.3 517.87 186.66 517.46 187.15C517.02 187.67 516.71 188.23 516.48 188.83C516.28 189.42 516.18 190.11 516.18 190.87V214.09C516.18 214.85 516.28 215.54 516.48 216.13C516.7 216.73 517.02 217.3 517.46 217.8C517.88 218.29 518.34 218.66 518.86 218.91C519.39 219.16 520.02 219.28 520.69 219.28H600.74C601.94 219.28 602.89 220.39 602.89 221.75V230.3C602.89 231.66 601.94 232.77 600.74 232.77H503.93C502.93 232.77 501.93 232.65 500.93 232.42V232.43C499.95 232.21 499.01 231.86 498.09 231.41C497.18 230.96 496.33 230.43 495.54 229.83C494.73 229.19 493.98 228.48 493.31 227.71C492.63 226.92 492.01 226.06 491.47 225.13C490.93 224.23 490.47 223.25 490.08 222.2C489.69 221.15 489.38 220.06 489.19 218.95C488.99 217.83 488.9 216.67 488.9 215.49V135.71C488.9 134.35 489.86 133.24 491.04 133.24H595.85C597.04 133.24 597.99 134.35 597.99 135.71V144.27C597.99 145.62 597.04 146.73 595.85 146.73H516.17V172.19H591.97C593.15 172.19 594.1 173.29 594.1 174.65V183.21C594.1 184.57 593.15 185.67 591.97 185.67H520.69V185.67Z" fill="white"/>
</svg>
