<svg width="1000" height="386" viewBox="0 0 1000 386" fill="none" xmlns="http://www.w3.org/2000/svg">
<path d="M128.66 130.62H148.42L148.53 130.73V237.01L148.64 237.12H203.44L203.55 237.23V254.92L203.44 255.02H128.66L128.56 254.92V130.73L128.66 130.62Z" fill="white"/>
<path d="M304.28 234.29H248.7L248.42 234.48L239.72 254.85L239.44 255.03H218.81L218.53 254.6L273.12 128.73L273.4 128.55H279.78L280.06 128.73L334.64 254.6L334.36 255.03H313.55L313.27 254.85L304.57 234.48L304.28 234.29ZM276.48 165.93L255.72 216.99L255.82 217.14H297.15L297.25 216.99L276.68 165.93H276.48Z" fill="white"/>
<path d="M340.7 230.08L354.67 219.46L354.82 219.48C361.98 229.82 371.96 239.18 387.37 239.18C400.19 239.18 408.86 232.59 408.86 221.84C408.86 212.04 401.51 208.27 390.57 203.18L376.82 196.77C361.74 189.8 347.79 180.56 347.79 162.28C347.79 141.73 365.51 128.54 387 128.54C405.24 128.54 419.54 137.92 427.1 150.7L427.07 150.85L413.29 161.46L413.14 161.44C406.73 151.88 397.71 146.46 387.01 146.46C377.02 146.46 368.16 151.36 368.16 161.54C368.16 170.97 375.32 174.35 385.5 179.26L399.45 185.67C418.3 194.34 429.23 203.96 429.23 221.1C429.23 243.16 411.32 257.11 387.57 257.11C366.88 257.11 350.12 246.59 340.69 230.24L340.7 230.08Z" fill="white"/>
<path d="M446.54 203.93C439.95 162.27 471.08 128.54 510.88 128.54C546.88 128.54 576.28 156.44 576.28 192.82C576.28 234.63 537.85 264.86 495.06 255.34C469.98 249.76 450.55 229.31 446.54 203.93ZM555.74 192.63C555.74 166.43 536.51 146.83 511.06 146.83C485.24 146.83 466.38 166.25 466.38 192.63C466.38 219.4 485.23 238.82 511.06 238.82C536.51 238.82 555.74 219.4 555.74 192.63Z" fill="white"/>
<path d="M591.4 199.86C587.19 159.67 621.41 125.75 661.71 128.74C682.68 130.3 699.97 141.14 709.73 157.11L709.7 157.26L694.8 168.25L694.65 168.23C685.97 154.9 673.18 146.84 656.63 146.84C630.99 146.84 611.77 166.25 611.77 192.84C611.77 219.41 631 238.83 656.63 238.83C673.18 238.83 685.97 230.76 694.65 217.44L694.8 217.41L709.7 228.4L709.73 228.55C699.34 245.84 679.77 257.12 656.44 257.12C622.43 257.1 594.85 232.89 591.4 199.86Z" fill="white"/>
<path d="M730.52 130.62H750.28L750.39 130.73V254.92L750.28 255.03H730.52L730.41 254.92V130.73L730.52 130.62ZM833.09 255.03H812.88C810.18 255.03 807.61 253.87 805.85 251.83L749.79 188.94V188.79L800.38 133.72C802.15 131.74 804.67 130.62 807.33 130.62H827.43L827.51 130.81L774.87 188.8V188.95L833.18 254.86L833.09 255.03Z" fill="white"/>
<path d="M851.57 130.62H871.34L871.44 130.73V254.92L871.34 255.02H851.57L851.46 254.92V130.73L851.57 130.62Z" fill="white"/>
</svg>
