<svg width="1000" height="452" viewBox="0 0 1000 452" fill="none" xmlns="http://www.w3.org/2000/svg">
<path d="M701.5 269.94L779.89 179.12L780.96 177.87L780.62 177.54V152.75H663.23V178.01H742.94L663.21 270.19V295.43H780.59V270.19H701.45L701.5 269.94Z" fill="white"/>
<path d="M850.47 152.33H821.28V295.54H850.47V152.33Z" fill="white"/>
<path d="M336.3 242.04V152.91H363.88V242.21L363.82 244.18C363.82 264.42 379.7 274.19 394.45 274.71L395.43 274.72C410.22 274.72 426.41 266.35 428.07 242.28V241.96V152.92H455.65L455.49 241.74V241.96L455.24 245.46C452.46 285.68 423.51 302.2 395.65 302.2C394.93 302.2 394.22 302.19 393.5 302.16C365.1 301.17 336.34 280.94 336.35 244.19L336.3 242.04Z" fill="white"/>
<path d="M600.61 295.93H631.13L572.03 151.57L572.15 151.3H571.94H541.86H541.66L541.77 151.56L482.66 295.93H513.18L523.6 270.42H523.86H575.27L566.28 248.1L533.16 248.14L532.69 248.1L556.91 188.7L600.61 295.93Z" fill="white"/>
<path d="M224.28 271.76C198.13 271.76 176.84 250.47 176.84 224.29C176.84 198.14 198.13 176.85 224.28 176.85C250.45 176.85 271.75 198.14 271.75 224.29C271.75 250.47 250.46 271.76 224.28 271.76ZM287.63 263.99C294.88 252.48 299.05 238.87 299.05 224.29C299.05 183.08 265.51 149.53 224.27 149.53C183.06 149.53 149.52 183.09 149.52 224.29C149.52 265.52 183.06 299.05 224.27 299.05C240.48 299.05 255.49 293.87 267.75 285.09L282.55 299.05L302.46 277.98L287.63 263.99Z" fill="white"/>
</svg>
