<svg width="1000" height="326" viewBox="0 0 1000 326" fill="none" xmlns="http://www.w3.org/2000/svg">
<path d="M142.78 117.58L144.99 117.27C145.96 117.27 146.51 118.07 146.61 119.66C146.71 121.25 146.86 122.55 147.03 123.57C147.2 124.58 147.38 125.49 147.55 126.3C147.73 127.11 147.88 127.79 148 128.34C148.12 128.9 148.18 129.36 148.18 129.73C148.18 130.1 147.98 130.44 147.58 130.78C147.17 131.11 146.74 131.28 146.29 131.28C145.49 131.28 144.7 130.42 143.93 128.7C142.46 125.45 141.23 123.35 140.25 122.4C137.97 120.37 134.63 119.35 130.22 119.35C124.07 119.35 119.93 121.19 117.83 124.86C117.17 126.05 116.84 127.51 116.84 129.22C116.84 130.93 117.25 132.54 118.07 134.05C118.89 135.56 120.15 137.07 121.85 138.59C123.55 140.12 125.71 141.75 128.33 143.51C130.96 145.26 133.77 147.17 136.78 149.22C139.79 151.29 142.14 153.16 143.82 154.82C145.5 156.49 146.87 158.14 147.92 159.78C149.92 162.89 150.91 165.92 150.91 168.85C150.91 171.79 150.49 174.41 149.65 176.7C148.81 178.99 147.45 181 145.56 182.71C141.46 186.53 135.41 188.43 127.4 188.43C123.34 188.43 118.86 187.54 113.96 185.75C112.84 185.37 112.14 184.93 111.86 184.44C111.55 183.85 111.26 182.73 111.02 181.08C110.78 179.44 110.49 177.95 110.15 176.62C109.82 175.29 109.51 174.11 109.24 173.05L108.5 170.32C108.29 169.51 108.19 168.84 108.19 168.33C108.19 167.07 108.67 166.44 109.6 166.44C110.86 166.44 111.77 167.4 112.33 169.32C113.31 172.75 114.19 174.97 114.96 175.99C117.94 179.91 121.38 182.47 125.3 183.66C126.46 184 128 184.19 129.95 184.19C131.89 184.19 133.8 183.9 135.67 183.32C137.54 182.74 139.09 181.96 140.32 180.98C142.63 179.09 143.78 176.79 143.78 174.08C143.78 171.37 142.91 168.92 141.18 166.73C139.45 164.55 137.36 162.64 134.93 161.01C132.5 159.39 130.68 158.19 129.47 157.41C128.26 156.65 127.13 155.91 126.08 155.21C117.23 149.29 111.99 143.42 110.38 137.57C109.96 136.03 109.75 134.26 109.75 132.27C109.75 130.28 110.24 128.23 111.21 126.13C112.19 124.03 113.59 122.2 115.41 120.62C119.43 117.19 124.63 115.47 131 115.47C133.9 115.47 136.23 115.77 137.98 116.36C140.45 117.18 142.04 117.58 142.78 117.58Z" fill="white"/>
<path d="M182.92 181.23C180.87 178.97 179.3 176.31 178.2 173.22C177.09 170.14 176.54 166.72 176.54 162.96C176.54 159.2 177.18 155.74 178.48 152.59C179.77 149.44 181.56 146.74 183.84 144.5C188.56 139.84 194.39 137.51 201.32 137.51C207.06 137.51 211.69 139.4 215.23 143.19C218.6 146.83 220.27 151.33 220.27 156.68C220.27 158.42 220.04 159.63 219.56 160.27C219.09 160.92 218.51 161.3 217.8 161.43C217.1 161.56 216.14 161.65 214.92 161.74C213.7 161.83 212.21 161.92 210.46 162.03C208.71 162.13 206.75 162.24 204.6 162.34C202.45 162.44 200.25 162.57 198.01 162.7C192.86 163.02 188.73 163.33 185.62 163.65C186.39 173.06 189.99 179.17 196.43 181.97C198.53 182.88 200.77 183.33 203.15 183.33C208.19 183.33 212.18 181.86 215.12 178.91C216.38 177.65 217.34 177.02 218 177.02C219.26 177.02 219.89 177.78 219.89 179.28C219.89 180.05 219.37 180.97 218.32 182.05C217.27 183.14 215.76 184.26 213.8 185.42C210.33 187.41 206.3 188.41 201.67 188.41C197.05 188.41 193.28 187.77 190.36 186.49C187.46 185.26 184.98 183.49 182.92 181.23ZM185.53 159.79C201.94 158.95 210.58 158.06 211.46 157.11C211.78 156.76 211.93 155.73 211.93 154.01C211.93 152.3 211.6 150.62 210.94 149C210.28 147.38 209.38 145.98 208.26 144.83C205.94 142.48 203.08 141.31 199.65 141.31C195.77 141.31 192.49 142.94 189.83 146.19C187.03 149.59 185.6 154.12 185.53 159.79Z" fill="white"/>
<path d="M258.81 191C256.26 191 254.99 190.3 254.99 188.89C254.99 187.8 255.69 187.24 257.09 187.24L259.94 187.53C260.81 187.53 261.54 187.37 262.11 187.04C262.68 186.72 263.12 186.03 263.42 184.96C264.03 183.02 264.33 178.73 264.33 172.08V155.04C264.33 151.17 264.09 148.74 263.62 147.78C263.14 146.81 262.57 146.15 261.9 145.78C261.24 145.43 260.16 145.13 258.66 144.91C257.15 144.68 256.4 144.1 256.4 143.14C256.4 142.27 257.37 141.64 259.31 141.26C263.83 140.31 266.94 139.36 268.66 138.4C270.98 137.07 272.56 136.41 273.41 136.41C274.27 136.41 274.7 136.85 274.7 137.73C274.7 138.15 274.61 138.58 274.44 139.04C274.27 139.5 274.08 140.05 273.9 140.69C273.6 141.98 273.37 144.42 273.22 147.99C276.53 142.45 280.51 138.99 285.19 137.62C286.55 137.2 288.08 137 289.78 137C291.47 137 292.97 137.61 294.28 138.82C295.6 140.03 296.25 141.33 296.25 142.69C296.25 144.06 296.1 145.07 295.79 145.72C295.49 146.36 295.11 146.91 294.65 147.37C293.66 148.36 292.78 148.86 292 148.86C291.22 148.86 290.62 148.66 290.2 148.26C289.78 147.85 289.31 147.13 288.77 146.06C287.82 144.16 286.76 143.21 285.58 143.21C284.4 143.21 283.28 143.46 282.22 143.98C281.16 144.5 280.1 145.27 279.03 146.29C276.71 148.46 274.75 151.4 273.16 155.13V172.11C273.16 179.33 273.36 183.57 273.76 184.84C274.16 186.11 274.65 186.87 275.23 187.12C275.82 187.37 276.63 187.49 277.66 187.49L282.73 187.04C283.49 187.04 284.11 187.22 284.56 187.58C285.01 187.94 285.24 188.39 285.24 188.92C285.24 190.33 283.85 191.03 281.08 191.03L269.05 190.18C267.12 190.18 265.29 190.32 263.55 190.6C261.85 190.86 260.26 191 258.81 191Z" fill="white"/>
<path d="M335.41 171.8C333.21 173.65 332.1 174.87 332.1 175.44C332.1 176.01 332.24 176.51 332.53 176.95C332.82 177.38 333.43 177.83 334.38 178.29C336.55 179.24 340.27 180.01 345.52 180.6C350.79 181.19 355.18 181.99 358.71 183.02C362.24 184.04 365.11 185.28 367.32 186.72C371.5 189.46 373.58 193.26 373.58 198.12C373.58 203.33 370.82 207.82 365.31 211.62C359.77 215.42 353.19 217.32 345.59 217.32C337.96 217.32 331.74 215.77 326.96 212.65C322.13 209.5 319.72 205.51 319.72 200.69C319.72 194.53 323.79 189.89 331.92 186.72C327.47 185.39 324.87 183.69 324.11 181.6C323.85 180.95 323.71 180.28 323.71 179.6C323.71 177.7 326.41 174.51 331.8 170.02C326.25 166.49 323.47 161.38 323.47 154.69C323.55 149.56 325.54 145.27 329.46 141.81C333.56 138.21 338.88 136.4 345.41 136.4C348.26 136.4 351.07 136.92 353.85 137.94C355.52 134.18 357.88 131.22 360.92 129.05C363.54 127.15 366.22 126.19 368.96 126.19C372.11 126.19 374.29 127.35 375.51 129.67C375.89 130.35 376.08 131.13 376.08 132C376.08 132.87 375.61 133.68 374.68 134.4C373.75 135.12 372.86 135.48 372.03 135.48C370.47 135.48 369.26 135.12 368.38 134.4C366.98 133.22 365.61 132.62 364.28 132.62C362.95 132.62 361.64 133.26 360.38 134.53C359.11 135.8 358.15 137.54 357.5 139.74C363.46 143.39 366.45 148.42 366.45 154.84C366.45 159.94 364.38 164.27 360.24 167.84C355.94 171.48 350.7 173.3 344.51 173.3C341.06 173.33 338.03 172.82 335.41 171.8ZM336.49 187.86C331.1 189.95 328.41 193.59 328.41 198.8C328.41 202.18 330.23 205.14 333.88 207.69C337.75 210.38 342.63 211.73 348.52 211.73C357.1 211.73 362.5 209.85 364.7 206.09C365.5 204.76 365.9 203.22 365.9 201.48C365.9 199.73 365.61 198.25 365.05 197.03C364.47 195.81 363.45 194.73 361.97 193.78C358.97 191.8 353.72 190.35 346.24 189.39C341.29 188.83 338.04 188.32 336.49 187.86ZM337.23 165.04C338.48 166.47 339.91 167.54 341.53 168.29C343.15 169.03 344.74 169.4 346.31 169.4C347.89 169.4 349.3 169.14 350.53 168.6C351.77 168.08 352.84 167.27 353.75 166.21C355.69 163.93 356.66 161.1 356.66 157.72C356.66 154.34 356.37 151.65 355.78 149.66C355.19 147.67 354.32 145.96 353.18 144.56C350.87 141.71 347.67 140.29 343.61 140.29C338.94 140.29 335.71 142.69 333.92 147.52C333.39 149.04 333.13 150.95 333.13 153.25C333.13 155.55 333.49 157.73 334.24 159.8C334.98 161.87 335.97 163.62 337.23 165.04Z" fill="white"/>
<path d="M400.6 191C398.06 191 396.78 190.3 396.78 188.89C396.78 187.78 397.48 187.23 398.89 187.23L401.73 187.52C402.61 187.52 403.33 187.36 403.9 187.04C404.47 186.72 404.92 186.02 405.26 184.96C405.87 183.06 406.17 178.76 406.17 172.08V154.93C406.17 151.17 405.92 148.78 405.39 147.78C404.89 146.78 404.31 146.1 403.66 145.73C403.01 145.37 401.94 145.09 400.44 144.88C398.94 144.67 398.19 144.07 398.19 143.09C398.19 142.22 399.17 141.57 401.15 141.15C405.67 140.24 408.78 139.31 410.49 138.36C412.85 137.03 414.47 136.37 415.34 136.37C416.21 136.37 416.66 136.8 416.66 137.68C416.66 138.1 416.58 138.54 416.43 139C415.56 141.62 415.12 146.79 415.12 154.5V172.1C415.12 178.79 415.36 182.87 415.84 184.36C416.31 185.83 416.84 186.74 417.4 187.06C417.97 187.38 418.69 187.54 419.57 187.54L422.42 187.25C423.83 187.25 424.53 187.81 424.53 188.91C424.53 190.31 423.25 191.02 420.71 191.02C419.26 191.02 417.72 190.88 416.07 190.59C414.41 190.3 412.64 190.16 410.74 190.16C408.84 190.16 407.03 190.3 405.33 190.59C403.62 190.86 402.05 191 400.6 191ZM416.28 119.4C416.28 121.02 415.73 122.38 414.66 123.5C413.58 124.62 412.12 125.18 410.27 125.18C408.42 125.18 407 124.64 405.99 123.56C404.98 122.48 404.48 121.3 404.48 120.03C404.48 118.76 404.66 117.78 405 117.09C405.34 116.41 405.78 115.82 406.31 115.33C407.49 114.3 408.92 113.79 410.61 113.79C412.3 113.79 413.66 114.32 414.71 115.39C415.75 116.44 416.28 117.79 416.28 119.4Z" fill="white"/>
<path d="M448.88 164.85C448.88 161.16 449.55 157.59 450.87 154.13C452.2 150.67 454.08 147.64 456.52 145.01C461.84 139.28 468.47 136.41 476.41 136.41C485.23 136.41 492 139.05 496.75 144.33C501.04 149.11 503.18 155.32 503.18 162.96C503.18 170.67 500.62 177.33 495.49 182.96C490.25 188.69 483.64 191.56 475.66 191.56C466.85 191.56 460.08 188.92 455.38 183.64C451.05 178.86 448.88 172.6 448.88 164.85ZM458.51 162.45C458.51 166.18 459.03 169.65 460.05 172.88C461.07 176.11 462.48 178.79 464.27 180.91C467.8 185.25 472.27 187.41 477.66 187.41C482.45 187.41 486.34 185.51 489.34 181.71C492.45 177.76 494.01 172.67 494.01 166.45C494.01 158.21 492.11 151.74 488.31 147.07C484.74 142.77 480.25 140.63 474.87 140.63C470.09 140.63 466.19 142.53 463.19 146.33C460.07 150.28 458.51 155.65 458.51 162.45Z" fill="white"/>
<path d="M556.9 191C554.43 191 553.2 190.3 553.2 188.89C553.2 187.8 553.88 187.24 555.25 187.24L558.05 187.52C560.1 187.52 561.53 186.53 562.33 184.56C563.2 182.36 563.64 178.2 563.64 172.08V131.85C563.64 125.47 563.32 121.48 562.67 119.88C562.02 118.29 561.32 117.3 560.56 116.92C559.8 116.55 558.85 116.35 557.71 116.35L555.26 116.65C553.9 116.65 553.21 116.09 553.21 114.99C553.21 113.58 554.26 112.88 556.34 112.88C558.43 112.88 560.26 113.03 561.82 113.34C563.38 113.65 564.87 113.8 566.29 113.8C567.71 113.8 569.01 113.72 570.19 113.57C571.36 113.42 572.6 113.26 573.89 113.11C577.53 112.62 580.72 112.37 583.46 112.37C586.2 112.37 588.95 112.77 591.7 113.56C594.45 114.36 596.81 115.5 598.79 116.98C602.96 120.06 605.05 124.05 605.05 128.95C605.05 135.45 602.29 140.96 596.79 145.47C601.54 146.8 605.53 149.45 608.75 153.44C612.13 157.58 613.82 162.2 613.82 167.29C613.82 174.51 611.42 180.36 606.64 184.84C601.85 189.32 595.59 191.56 587.83 191.56C585.4 191.56 582.57 191.39 579.34 191.05C573.08 190.44 568.86 190.13 566.69 190.13L556.9 191ZM572.58 144.4C576.83 144.81 580.29 145.02 582.95 145.02C586.79 145.02 589.14 144.96 590.01 144.85C590.88 144.73 591.69 144.35 592.4 143.71C593.12 143.06 593.79 142.22 594.4 141.2C595.8 138.85 596.51 136.34 596.51 133.68C596.51 131.02 596.05 128.67 595.14 126.64C594.22 124.61 592.99 122.86 591.44 121.43C588.24 118.54 584.24 117.1 579.41 117.1C577.09 117.1 574.91 117.5 572.86 118.29C572.74 120.19 572.67 121.62 572.66 122.59C572.64 123.56 572.62 124.43 572.6 125.18C572.58 125.94 572.57 126.63 572.57 127.23V144.4H572.58ZM599.16 155.98C597.59 154.03 595.64 152.45 593.35 151.25C591.04 150.05 588.88 149.45 586.82 149.45H580.61C578.49 149.45 575.81 149.55 572.58 149.74V163.88C572.58 172.38 572.71 178.94 572.98 183.53C576.36 185.67 580.71 186.73 586.03 186.73C594.5 186.73 600.07 183.69 602.73 177.61C603.61 175.56 604.05 173.17 604.05 170.46C604.05 167.75 603.63 165.14 602.8 162.66C601.94 160.16 600.74 157.94 599.16 155.98Z" fill="white"/>
<path d="M694.3 182.51C695.41 182.51 695.95 183.02 695.95 184.02C695.95 185.02 694.85 185.98 692.65 186.89C690.44 187.8 688.9 188.63 688.03 189.37C687.16 190.11 686.5 190.66 686.09 191.02C685.67 191.38 685.18 191.56 684.62 191.56C683.48 191.56 682.52 191.08 681.76 190.13C680.99 189.18 679.98 187.15 678.69 184.03C676.52 186.5 673.89 188.37 670.79 189.64C667.69 190.91 664.63 191.55 661.59 191.55C655.85 191.55 651.4 190.09 648.25 187.16C645.1 184.24 643.52 180.23 643.52 175.14C643.52 170.05 645.9 165.92 650.67 162.74C655.44 159.58 661.52 157.99 668.93 157.99C671.13 157.99 674.04 158.36 677.65 159.13V154.68C677.65 144.91 673.52 140.03 665.29 140.03C660.92 140.03 657.71 142.05 655.66 146.08C653.87 149.68 652.12 151.48 650.42 151.48C649.17 151.48 648.08 151.13 647.14 150.4C646.21 149.68 645.74 148.77 645.74 147.67C645.74 146.57 646.32 145.34 647.45 143.99C648.59 142.64 650.11 141.42 652.01 140.32C656.49 137.7 661.41 136.39 666.77 136.39C676.26 136.39 682.4 139.49 685.17 145.67C686.2 147.88 686.71 150.57 686.71 153.76V176.49C686.71 179.42 687 181.3 687.57 182.14C688.14 182.98 688.93 183.39 689.96 183.39C690.98 183.39 691.81 183.24 692.46 182.93C693.12 182.66 693.73 182.51 694.3 182.51ZM677.67 164.45C674.93 162.89 671.47 162.11 667.3 162.11C663.12 162.11 659.77 163.16 657.24 165.25C654.71 167.34 653.46 170.13 653.46 173.65C653.46 177.17 654.42 180.09 656.36 182.43C658.3 184.76 660.78 185.93 663.82 185.93C670.32 185.93 674.99 183.81 677.84 179.55C677.73 178.49 677.68 177.31 677.68 176.03V164.45H677.67Z" fill="white"/>
<path d="M721.55 191C719 191 717.73 190.3 717.73 188.89C717.73 187.8 718.43 187.24 719.84 187.24L722.69 187.53C723.56 187.53 724.29 187.37 724.86 187.04C725.43 186.72 725.86 186.03 726.17 184.96C726.77 183.02 727.08 178.73 727.08 172.08V155.04C727.08 151.17 726.84 148.74 726.37 147.78C725.89 146.81 725.32 146.15 724.66 145.78C723.99 145.43 722.91 145.13 721.41 144.91C719.91 144.68 719.15 144.1 719.15 143.14C719.15 142.27 720.12 141.64 722.06 141.26C726.58 140.31 729.69 139.36 731.4 138.4C733.72 137.07 735.3 136.41 736.15 136.41C737.01 136.41 737.44 136.85 737.44 137.73C737.44 138.15 737.36 138.59 737.18 139.04C737.01 139.5 736.83 140.05 736.64 140.69C736.33 141.98 736.11 144.42 735.96 147.99C739.26 142.45 743.25 138.99 747.92 137.62C749.29 137.2 750.81 137 752.51 137C754.2 137 755.7 137.61 757.01 138.82C758.32 140.03 758.98 141.33 758.98 142.69C758.98 144.06 758.82 145.07 758.52 145.72C758.22 146.36 757.84 146.91 757.38 147.37C756.4 148.36 755.51 148.86 754.73 148.86C753.96 148.86 753.36 148.66 752.94 148.26C752.53 147.85 752.05 147.13 751.52 146.06C750.56 144.16 749.51 143.21 748.32 143.21C747.14 143.21 746.02 143.46 744.96 143.98C743.89 144.5 742.83 145.27 741.77 146.29C739.45 148.46 737.49 151.4 735.89 155.13V172.11C735.89 179.33 736.1 183.57 736.5 184.84C736.9 186.11 737.39 186.88 737.97 187.12C738.56 187.36 739.37 187.48 740.4 187.48L745.47 187.03C746.23 187.03 746.84 187.21 747.29 187.57C747.75 187.93 747.98 188.38 747.98 188.91C747.98 190.32 746.59 191.02 743.82 191.02L731.79 190.17C729.86 190.17 728.02 190.31 726.29 190.59C724.59 190.86 723 191 721.55 191Z" fill="white"/>
<path d="M823.51 185.07C819.44 189.4 814.11 191.57 807.5 191.57C799.75 191.57 793.63 188.89 789.15 183.54C785.01 178.52 782.94 172.14 782.94 164.39C782.94 156.64 785.48 150.05 790.57 144.62C795.7 139.15 802.08 136.4 809.71 136.4C814.73 136.4 818.93 137.35 822.31 139.26V127.23C822.31 123.66 822.02 121.34 821.46 120.25C820.89 119.17 820.28 118.43 819.64 118.05C818.99 117.67 817.96 117.37 816.53 117.14C815.1 116.91 814.39 116.33 814.39 115.37C814.39 114.5 815.35 113.88 817.3 113.49C821.86 112.54 824.99 111.57 826.7 110.58C829.02 109.29 830.57 108.64 831.37 108.64C832.25 108.64 832.68 109.08 832.68 109.95C832.68 110.37 832.6 110.8 832.45 111.26C831.65 113.31 831.23 115.92 831.19 119.07C831.15 122.22 831.13 124.79 831.13 126.76V173.43C831.13 177.61 831.38 180.31 831.87 181.52C832.37 182.73 832.86 183.52 833.36 183.88C833.85 184.25 834.44 184.42 835.13 184.42L838.55 183.68C839.65 183.68 840.2 184.18 840.2 185.17C840.2 185.74 839.96 186.22 839.49 186.59C839.02 186.98 838.21 187.41 837.07 187.91C835.93 188.41 834.98 188.92 834.23 189.45C833.46 189.98 832.8 190.48 832.23 190.94C830.93 192.05 829.93 192.59 829.21 192.59C826.74 192.59 824.83 190.08 823.51 185.07ZM822.31 147.75C818.85 143.04 814.07 140.69 807.95 140.69C803.35 140.69 799.67 142.46 796.89 145.99C793.93 149.71 792.45 154.8 792.45 161.26C792.45 168.78 794.37 174.8 798.21 179.32C801.78 183.58 806.05 185.7 811.03 185.7C816.08 185.7 819.93 183.91 822.6 180.35C822.41 178.95 822.31 177.31 822.31 175.45V147.75V147.75Z" fill="white"/>
<path d="M866.93 191C864.38 191 863.11 190.3 863.11 188.89C863.11 187.78 863.81 187.23 865.22 187.23L868.06 187.52C868.94 187.52 869.66 187.36 870.23 187.04C870.8 186.72 871.25 186.02 871.6 184.96C872.21 183.06 872.51 178.76 872.51 172.08V154.93C872.51 151.17 872.25 148.78 871.74 147.78C871.23 146.78 870.65 146.1 870 145.73C869.36 145.37 868.28 145.09 866.79 144.88C865.29 144.67 864.54 144.07 864.54 143.09C864.54 142.22 865.53 141.57 867.5 141.15C872.02 140.24 875.14 139.31 876.84 138.36C879.2 137.03 880.81 136.37 881.68 136.37C882.55 136.37 882.99 136.8 882.99 137.68C882.99 138.1 882.92 138.54 882.76 139C881.89 141.62 881.45 146.79 881.45 154.5V172.1C881.45 178.79 881.69 182.87 882.16 184.36C882.64 185.83 883.16 186.74 883.73 187.06C884.3 187.38 885.02 187.54 885.9 187.54L888.74 187.25C890.14 187.25 890.85 187.81 890.85 188.91C890.85 190.32 889.58 191.02 887.04 191.02C885.6 191.02 884.05 190.88 882.4 190.59C880.75 190.3 878.97 190.16 877.07 190.16C875.18 190.16 873.37 190.3 871.66 190.59C869.95 190.86 868.38 191 866.93 191ZM882.61 119.4C882.61 121.02 882.07 122.38 880.99 123.5C879.91 124.62 878.45 125.18 876.6 125.18C874.75 125.18 873.33 124.64 872.32 123.56C871.31 122.48 870.81 121.3 870.81 120.03C870.81 118.76 870.98 117.78 871.33 117.1C871.67 116.42 872.11 115.83 872.64 115.33C873.81 114.31 875.25 113.79 876.94 113.79C878.62 113.79 880 114.32 881.04 115.39C882.08 116.44 882.61 117.79 882.61 119.4Z" fill="white"/>
</svg>
