<svg width="1000" height="617" viewBox="0 0 1000 617" fill="none" xmlns="http://www.w3.org/2000/svg">
<path d="M294.91 310.79C280.98 310.79 270.5 305.67 265.35 300.89L264.69 300.28L272.48 283.56L273.71 284.5C278.1 287.85 284.47 291.71 294.92 291.71C299.13 291.71 305.22 290.05 305.22 287.04C305.22 284.49 301.86 283.42 296.33 281.96C295.57 281.76 294.79 281.55 294.02 281.34C280.75 277.86 267.77 273.2 267.77 258.32C267.77 243.25 282.48 235.12 296.32 235.12C308.2 235.12 315.63 238 323.13 242.33L324.1 242.89L316.78 259.16L315.63 258.6C309.03 255.37 302.81 253.8 296.61 253.8C292.7 253.8 289.4 255.49 289.4 257.49C289.4 260.41 294.9 261.61 300.72 262.87C312 265.52 326.85 270.83 326.85 286.49C326.84 303.27 310.81 310.79 294.91 310.79Z" fill="white"/>
<path d="M294.91 310.79C280.98 310.79 270.5 305.67 265.35 300.89L264.69 300.28L272.48 283.56L273.71 284.5C278.1 287.85 284.47 291.71 294.92 291.71C299.13 291.71 305.22 290.05 305.22 287.04C305.22 284.49 301.86 283.42 296.33 281.96C295.57 281.76 294.79 281.55 294.02 281.34C280.75 277.86 267.77 273.2 267.77 258.32C267.77 243.25 282.48 235.12 296.32 235.12C308.2 235.12 315.63 238 323.13 242.33L324.1 242.89L316.78 259.16L315.63 258.6C309.03 255.37 302.81 253.8 296.61 253.8C292.7 253.8 289.4 255.49 289.4 257.49C289.4 260.41 294.9 261.61 300.72 262.87C312 265.52 326.85 270.83 326.85 286.49C326.84 303.27 310.81 310.79 294.91 310.79Z" fill="white"/>
<path d="M355.56 329.66H334.21V236.51H354.57V243.07C360.02 237.91 367.46 235.1 375.85 235.1C395 235.1 408.91 250.96 408.91 272.8C408.91 294.81 394.89 310.78 375.57 310.78C367.91 310.78 360.65 308.01 355.55 303.24V329.66H355.56ZM370.93 255.04C361.94 255.04 355.42 262.57 355.42 272.95C355.42 283.33 361.94 290.86 370.93 290.86C380.48 290.86 387.15 283.5 387.15 272.95C387.14 262.41 380.48 255.04 370.93 255.04Z" fill="white"/>
<path d="M438.61 309.39H417.26V236.52H438.33V246.11C442.27 240.35 449.89 235.12 461.73 235.12H462.97V258.16H461.73C445.74 258.16 438.62 265.25 438.62 281.13V309.39H438.61Z" fill="white"/>
<path d="M499.73 310.79C480.57 310.79 466.67 294.87 466.67 272.95C466.67 251.02 480.57 235.1 499.73 235.1C507.88 235.1 515.38 238.02 520.45 243.03V236.5H541.37V309.37H520.45V303.02C515.5 307.94 508.01 310.79 499.73 310.79ZM504.52 255.04C495.12 255.04 488.3 262.57 488.3 272.95C488.3 283.33 495.12 290.86 504.52 290.86C513.65 290.86 520.03 283.5 520.03 272.95C520.03 262.57 513.51 255.04 504.52 255.04Z" fill="white"/>
<path d="M620.06 309.39H598.71V270C598.71 259.41 595.73 255.47 587.7 255.47C579.01 255.47 573.17 262.33 573.17 272.53V309.39H551.82V236.52H572.74V243.74C578.02 238.08 585.21 235.11 593.74 235.11C611.44 235.11 620.04 245.74 620.04 267.61V309.39H620.06Z" fill="white"/>
<path d="M660.49 310.79C641.33 310.79 627.43 294.87 627.43 272.95C627.43 251.02 641.45 235.1 660.77 235.1C668.41 235.1 675.67 237.84 680.79 242.54V214.26H702.14V309.38H681.78V302.97C676.69 307.92 668.99 310.79 660.49 310.79ZM665.27 255.04C655.87 255.04 649.05 262.57 649.05 272.95C649.05 283.33 655.87 290.86 665.27 290.86C674.4 290.86 680.78 283.5 680.78 272.95C680.79 262.57 674.26 255.04 665.27 255.04Z" fill="white"/>
<path d="M733.94 309.39H712.6V236.52H733.95V309.39H733.94ZM723.13 230.41C716.43 230.41 710.77 224.75 710.77 218.05C710.77 211.16 716.32 205.55 723.13 205.55C730.02 205.55 735.63 211.16 735.63 218.05C735.63 224.86 730.02 230.41 723.13 230.41Z" fill="white"/>
<path d="M261.46 335.02L435.4 362.57L270.14 410.04L794.46 335.02H261.46Z" fill="white"/>
<path d="M263.38 402.51L287.95 379.66L205.54 335.02L397.66 364.81L263.38 402.51Z" fill="white"/>
</svg>
