<svg width="1000" height="579" viewBox="0 0 1000 579" fill="none" xmlns="http://www.w3.org/2000/svg">
<path d="M369.82 236.78L331.96 343.46H303.93L281.34 269.83L258.75 343.46H230.72L192.86 236.78H223.19L245.36 308.74L267.74 236.78H295.56L318.15 308.74L340.12 236.78H369.82V236.78Z" fill="white"/>
<path d="M486.33 236.78V343.46H459.14V330.7C450.56 340.11 438.64 345.97 424.42 345.97C394.72 345.97 372.34 321.92 372.34 290.12C372.34 258.32 394.72 234.27 424.42 234.27C438.64 234.27 450.57 240.13 459.14 249.54V236.78H486.33V236.78ZM459.14 290.12C459.14 273.39 446.59 260.63 429.65 260.63C412.92 260.63 400.37 273.39 400.37 290.12C400.37 306.85 412.92 319.61 429.65 319.61C446.59 319.61 459.14 306.85 459.14 290.12Z" fill="white"/>
<path d="M512.27 192.86H539.46V343.46H512.27V192.86Z" fill="white"/>
<path d="M602.01 306.64L592.6 316.89V343.46H565.41V192.86H592.6V280.5L631.93 236.78H667.07L621.26 286.14L668.53 343.45H632.97L602.01 306.64Z" fill="white"/>
<path d="M787.75 236.78L735.04 362.08C729.18 376.72 716.63 385.72 702.62 385.72C693 385.72 681.7 381.53 674.59 375.05L685.05 353.71C688.4 357.26 693.42 359.36 698.01 359.36C703.03 359.36 707.42 357.06 710.14 350.99L714.53 341.79L671.02 236.78H701.98L729.8 309.36L757.41 236.78H787.75V236.78Z" fill="white"/>
<path d="M790.11 345.32C799.521 345.32 807.15 337.691 807.15 328.28C807.15 318.869 799.521 311.24 790.11 311.24C780.699 311.24 773.07 318.869 773.07 328.28C773.07 337.691 780.699 345.32 790.11 345.32Z" fill="white"/>
</svg>
