<?xml version="1.0" encoding="utf-8"?>
<!-- Generator: Adobe Illustrator 26.0.1, SVG Export Plug-In . SVG Version: 6.00 Build 0)  -->
<svg version="1.1" id="Warstwa_1" xmlns="http://www.w3.org/2000/svg" xmlns:xlink="http://www.w3.org/1999/xlink" x="0px" y="0px"
	 viewBox="0 0 1000 502" style="enable-background:new 0 0 1000 502;" xml:space="preserve">
<path d="M795.9,230.2l-17.4-49c-2.8,8.5-9.7,30.2-15.7,49H795.9z M832.9,264.4v2.3h-38.3l0-2.2c9.9-1.1,12.5-3.1,10.1-9.6l-7.7-21.5
	h-35.2c-3,9.4-5.6,17.8-7.3,23c-1.7,6.1,1.1,6.6,16.2,8v2.3h-31.5v-2.3c7.8-1.4,10-2.4,12.2-9.1l28.3-88.2h9.6l32.9,88.7
	C823.9,260.5,825.9,263.4,832.9,264.4z M686.1,195.5c0-12.4-4.5-24.5-19.9-24.5h-11.7v48.5h8.6C681.3,219.5,686.1,209.1,686.1,195.5
	z M716.5,264.4v2.3h-23.6c-3.1-4.1-7.1-10.3-9.5-15l-7.9-14.7c-3.4-5.8-7.4-11.6-12-14.4h-9v34.7c0,5.2,1.1,6.4,10.9,7.1v2.3h-38
	v-2.3c9.8-0.7,10.9-1.8,10.9-7.1v-80.1c0-5.2-1.1-6.3-10.9-7.1v-2.3h42.8c21.2,0,33.2,11.3,33.2,26.8c0,13.7-10,27.2-36.3,28
	c17.5,3.5,22,9.6,25.4,15l10.2,16.7C707.3,261.5,711.6,263.7,716.5,264.4z M322.4,230.2l-17.4-49c-2.8,8.5-9.7,30.2-15.7,49H322.4z
	 M359.3,264.4v2.3H321l0-2.2c9.9-1.1,12.5-3.1,10.1-9.6l-7.7-21.5h-35.2c-3,9.4-5.6,17.8-7.3,23c-1.6,6.1,1.1,6.6,16.1,8v2.3h-31.5
	v-2.3c7.8-1.4,10-2.4,12.2-9.1l28.3-88.2h9.6l32.9,88.7C350.4,260.5,352.4,263.4,359.3,264.4z M569.7,170.2
	c15.6,0.7,15.3,3.1,15.3,8.2V228c0,20.9-9.9,34.6-27.8,34.6c-16.8,0-27.4-10.3-27.4-30.7v-54.6c0-5.2,1.1-6.3,10.9-7.1v-2.3h-38v2.3
	c9.7,0.7,10.9,1.8,10.9,7.1v51.4c0,24.4,12.2,39.6,38.1,39.6c23,0,37-14.1,37-39.6v-51.4c0-5.2,1.4-6.3,13.4-7.1v-2.3h-32.3
	L569.7,170.2L569.7,170.2z M460.5,217.3c0-28.5-13-46.3-31.9-46.3H411v92.5h17.5C447.7,263.5,460.5,245.8,460.5,217.3z M477.7,217.3
	c0,29.7-22.2,49.4-49.1,49.4h-44.6v-2.3c9.7-0.7,10.9-1.8,10.9-7.1v-80.1c0-5.2-1.1-6.4-10.9-7.1v-2.3h44.6
	C455.5,167.9,477.7,187.6,477.7,217.3z M227.9,239.9c0-13.6-6.8-22.4-23-22.4h-10.6v46.1h14C224.2,263.5,227.9,252.3,227.9,239.9z
	 M194.3,214.3h9.7c14,0,20.2-8,20.2-21c0-13.6-4.9-22.3-18.5-22.3h-11.4V214.3z M245.1,240.6c0,15.5-11.3,26.1-32.5,26.1h-45.5v-2.3
	c9.7-0.7,10.9-1.8,10.9-7.1v-80.1c0-5.2-1.1-6.3-10.9-7.1v-2.3h41.2c21.2,0,32.5,9.9,32.5,24c0,11.3-9.8,21-29.5,23.7v0.3
	C237.3,218.3,245.1,229.7,245.1,240.6z"/>
<path d="M601.3,314.4c0-3-2.2-5.2-5-5.2c-2.8-0.1-5.1,2.1-5.1,4.9c0,2.9,2,5.2,4.8,5.2C598.8,319.4,601.3,317.1,601.3,314.4z
	 M595.3,334.3c-3.3-0.1-6.4-1.2-8.4-5.6l4.1-1.8c1.1,2.2,2.8,3.1,4.5,3.1c4,0,6.6-4.2,6.2-9.7c-1.1,2.1-3.3,3.3-6.1,3.3
	c-4.9,0-8.9-4.2-8.9-9.9c0.2-5.3,4.4-9.2,9.8-9.2c5.2,0,9,3.9,9.5,9.9C606.6,323.5,605.3,334.6,595.3,334.3z M558.7,309.4h12.9
	l-12.8,24.5h5.3l15-28.8h-20.4L558.7,309.4L558.7,309.4z M544.2,314.4c0-3-2.2-5.2-5-5.2c-2.8-0.1-5.1,2.1-5.1,4.9
	c0,2.9,2,5.2,4.8,5.2C541.7,319.4,544.2,317.1,544.2,314.4z M548.9,314.5c0.7,9-0.7,20-10.7,19.7c-3.3-0.1-6.5-1.2-8.4-5.6l4.1-1.8
	c1.1,2.2,2.8,3.1,4.5,3.1c4,0,6.6-4.2,6.2-9.7c-1.1,2.1-3.3,3.3-6.1,3.3c-4.9,0-8.9-4.1-8.9-9.9c0.2-5.3,4.4-9.2,9.9-9.2
	C544.5,304.6,548.4,308.5,548.9,314.5z M509.3,312.6l4.8-1.7v23h4.5v-29.1l-9.3,3.7V312.6z M481.5,328.3c-1.7,0-3.1,1.3-3.1,3
	s1.4,3,3.1,3c1.7,0,3.1-1.2,3.1-3S483.2,328.3,481.5,328.3z M449.8,307.8h9v26h4.8v-26h9v-4.4h-22.7L449.8,307.8L449.8,307.8z
	 M434.1,316.7l-3.9-1c-3.6-0.9-4.1-2.8-4.1-4c0-2.5,2.5-4.2,5.2-4.2c3.1,0,5.3,1.8,5.3,4.6h4.7c0-5.6-4.3-9-9.9-9
	c-5.4,0-10,3.5-10,8.7c0,2.7,1,6.4,7.6,8.2l3.8,1c2.8,0.7,5,2.1,4.8,4.9c-0.3,2.2-2.2,4.2-5.7,4.2c-3.6,0-6-2.5-6.1-5h-4.7
	c0,4.9,4.4,9.3,10.7,9.3c5.8,0,9.9-3.4,10.4-8.2C442.8,321.7,440.3,318.3,434.1,316.7z M398.7,329.5h14.1v4.3H394V321h-5.7v-4.3h5.7
	v-13.3h18.3v4.3h-13.6v9h11.9h0v4.3h-11.9V329.5z"/>
</svg>
