<?xml version="1.0" encoding="utf-8"?>
<!-- Generator: Adobe Illustrator 26.0.1, SVG Export Plug-In . SVG Version: 6.00 Build 0)  -->
<svg version="1.1" id="Warstwa_1" xmlns="http://www.w3.org/2000/svg" xmlns:xlink="http://www.w3.org/1999/xlink" x="0px" y="0px"
	 viewBox="0 0 1000 539" style="enable-background:new 0 0 1000 539;" xml:space="preserve">
<path d="M775.9,245.2c14.8,0,26.8,12.1,26.8,27.2v6.1h-53.2v-6.1C749.5,257.3,761.4,245.2,775.9,245.2z M775.9,226.2
	c-25,0-45.4,20.7-45.4,46.1v41.1c0,25,21.8,46.1,47.5,46.1c14.1,0,26.8-5,35.2-14.3l0.7-0.7c1.4-1.4,3.5-4.3,3.5-7.9
	c0-5-4.2-9.6-9.5-9.6c-3.2,0-6,1.4-7.8,4.3c-4.2,6.1-14.8,9.3-22.2,9.3c-15.5,0-28.9-12.5-28.9-27.2v-16.1h62.7
	c5.3,0,9.5-4.3,9.5-9.6v-15.4C821.3,247,800.9,226.2,775.9,226.2z M673.4,245.2c14.8,0,26.8,12.1,26.8,27.2v6.1H647v-6.1
	C647,257.3,659,245.2,673.4,245.2z M673.4,226.2c-25,0-45.4,20.7-45.4,46.1v41.1c0,25,21.8,46.1,47.5,46.1c14.1,0,26.8-5,35.2-14.3
	l0.7-0.7c1.4-1.4,3.5-4.3,3.5-7.9c0-5-4.2-9.6-9.5-9.6c-3.2,0-6,1.4-7.8,4.3c-4.2,6.1-14.8,9.3-22.2,9.3
	c-15.5,0-28.9-12.5-28.9-27.2v-16.1h62.7c5.3,0,9.5-4.3,9.5-9.6v-15.4C718.8,247,698.4,226.2,673.4,226.2z M610.4,338.1h-78.2
	L617.4,193c1.1-1.8,1.8-3.6,1.8-5.4c0-5-3.9-8.9-9.5-8.9h-89.1c-5.3,0-9.5,4.3-9.5,9.6c0,5.4,4.2,9.7,9.5,9.7h72.2l-85.2,144.7
	c-1.1,1.8-1.8,3.6-1.8,5.4c0,5,3.9,8.9,9.5,8.9H610c5.3,0,9.5-4.3,9.5-9.6C619.5,342.4,615.7,338.1,610.4,338.1z M453.3,245.2
	c14.8,0,26.8,12.1,26.8,27.2v6.1h-53.5v-6.1C426.6,257.3,438.6,245.2,453.3,245.2z M453.3,226.2c-25,0-45.4,20.7-45.4,46.1v41.1
	c0,25,21.8,46.1,47.5,46.1c14.1,0,26.8-5,35.2-14.3l0.7-0.7c1.4-1.4,3.5-4.3,3.5-7.9c0-5-4.2-9.6-9.5-9.6c-3.2,0-6,1.4-7.7,4.3
	c-4.2,6.1-14.8,9.3-22.2,9.3c-15.5,0-28.9-12.5-28.9-27.2v-16.1h62.7c5.3,0,9.5-4.3,9.5-9.6v-15.4
	C498.8,247,478.3,226.2,453.3,226.2z M350.9,245.2c14.8,0,26.8,12.1,26.8,27.2v6.1h-53.5v-6.1C324.1,257.3,336.1,245.2,350.9,245.2z
	 M350.9,226.2c-25,0-45.4,20.7-45.4,46.1v41.1c0,25,21.8,46.1,47.5,46.1c14.1,0,26.8-5,35.2-14.3l0.7-0.7c1.4-1.4,3.5-4.3,3.5-7.9
	c0-5-4.2-9.6-9.5-9.6c-3.2,0-6,1.4-7.7,4.3c-4.2,6.1-14.8,9.3-22.2,9.3c-15.5,0-28.9-12.5-28.9-27.2v-16.1h62.7
	c5.3,0,9.5-4.3,9.5-9.6v-15.4C396.3,247,375.9,226.2,350.9,226.2z M233.6,338.1h-35.9V197.6h35.9c22.2,0,40.5,18.2,40.5,41.1v58.6
	C274.1,319.9,255.8,338.1,233.6,338.1z M233.6,178.7h-45.4c-5.3,0-9.5,4.3-9.5,9.7v159.4c0,5.4,4.2,9.6,9.5,9.6h45.4
	c32.8,0,59.2-26.8,59.2-60v-58.6C292.8,205.5,266,178.7,233.6,178.7z"/>
</svg>
