<?xml version="1.0" encoding="utf-8"?>
<!-- Generator: Adobe Illustrator 26.0.1, SVG Export Plug-In . SVG Version: 6.00 Build 0)  -->
<svg version="1.1" id="Warstwa_1" xmlns="http://www.w3.org/2000/svg" xmlns:xlink="http://www.w3.org/1999/xlink" x="0px" y="0px"
	 viewBox="0 0 1000 309" style="enable-background:new 0 0 1000 309;" xml:space="preserve">
<path d="M152.1,205.8c-29.3,0-49.2-20.9-49.2-51.4c0-31.1,20-51.4,48.3-51.4c24.5,0,40.1,12.1,45.4,33c0.1,0.6-0.3,1.1-0.8,1.1H176
	c-0.7,0-1.3-0.4-1.4-1.1c-3.2-11-11-16.6-23.1-16.6c-17.2,0-26.3,13.5-26.3,35.4c0,21.4,9.4,34.8,26.9,34.8
	c14.1,0,23.2-8.2,23.8-23.4h-24.7c-0.6,0-1.1-0.6-1.1-1.1v-13.7c0-0.6,0.6-1.1,1.1-1.1h46.5c0.6,0,1.1,0.6,1.1,1.1
	C199.2,187.9,182.6,205.8,152.1,205.8z"/>
<path d="M211.8,203.7c-0.6,0-1.1-0.6-1.1-1.1l0.4-48.2l-0.4-48.2c0-0.6,0.6-1.1,1.1-1.1h19.2c0.6,0,1.1,0.6,1.1,1.1l-0.4,48.2
	l0.4,48.2c0,0.6-0.6,1.1-1.1,1.1H211.8z"/>
<path d="M265.7,156.7v45.9c0,0.6-0.6,1.1-1.1,1.1h-17.8c-0.6,0-1.1-0.6-1.1-1.1l0.3-48.2l-0.3-48.2c0-0.6,0.6-1.1,1.1-1.1h23.7
	c0.7,0,1.4,0.4,1.7,1l39.6,69.7l-0.8-18.9v-50.7c0-0.6,0.6-1.1,1.1-1.1h17.8c0.6,0,1.1,0.6,1.1,1.1l-0.3,48.2l0.3,48.2
	c0,0.6-0.6,1.1-1.1,1.1h-24.5c-0.7,0-1.4-0.4-1.7-1l-38.7-69.2l0.1,2.7L265.7,156.7z"/>
<path d="M392,189.3c17.8,0,27.6-13.1,27.6-34.6c0-21.6-9.7-35.2-27.8-35.2s-27.6,13.2-27.6,35.2C364.2,176.1,374.2,189.3,392,189.3z
	 M391.8,205.8c-30.1,0-49.7-21-49.7-51.1c0-31.4,19.4-51.7,49.7-51.7c30,0,49.9,19.9,49.9,51.7C441.7,184.8,422,205.8,391.8,205.8z"
	/>
<path d="M527.5,120.7H507l-0.1,30.7h21.3c9,0,16.8-4.2,16.8-14.9C544.9,125.8,538.5,120.7,527.5,120.7z M530.6,181.7l-9.7-14.6
	h-14.1l0.3,35.5c0,0.6-0.6,1.1-1.1,1.1h-19.3c-0.6,0-1.1-0.6-1.1-1.1l0.3-48.2l-0.3-48.2c0-0.6,0.6-1.1,1.1-1.1h40
	c24.7,0,38.9,10.4,38.9,31c0,14.5-8,24.5-22,28.7l24.7,37.9c0.3,0.4,0,1-0.6,1H545c-0.7,0-1.4-0.4-1.7-1L530.6,181.7z"/>
<path d="M624.1,189.3c17.8,0,27.6-13.1,27.6-34.6c0-21.6-9.7-35.2-27.8-35.2c-18,0-27.6,13.2-27.6,35.2
	C596.3,176.1,606.3,189.3,624.1,189.3z M623.9,205.8c-30.1,0-49.7-21-49.7-51.1c0-31.4,19.4-51.7,49.7-51.7
	c30,0,49.9,19.9,49.9,51.7C673.8,184.8,654.1,205.8,623.9,205.8z"/>
<path d="M727.3,206c-25.9,0-43.8-11-44.7-34.4c0-0.6,0.6-1.1,1.1-1.1H704c0.6,0,1.1,0.4,1.3,1.1c1.3,11,6.3,18.3,22.5,18.3
	c12.8,0,19.9-3.8,19.9-13.1c0-22.3-63-4.7-63-43.8c0-18.5,14.4-30,39.6-30c23.1,0,39,9,42,30.2c0.1,0.6-0.4,1.1-1,1.1H745
	c-0.6,0-1.1-0.4-1.3-1.1c-1-9-8.2-14-20.3-14c-10.1,0-17.5,3.5-17.5,11.7c0,21,63.2,3.9,63.2,43C769.2,194.7,753.1,206,727.3,206z"
	/>
<path d="M822.3,206c-25.9,0-43.8-11-44.7-34.4c0-0.6,0.6-1.1,1.1-1.1H799c0.6,0,1.1,0.4,1.3,1.1c1.3,11,6.3,18.3,22.5,18.3
	c12.8,0,19.9-3.8,19.9-13.1c0-22.3-63-4.7-63-43.8c0-18.5,14.4-30,39.6-30c23.1,0,39,9,42,30.2c0.1,0.6-0.4,1.1-1,1.1H840
	c-0.6,0-1.1-0.4-1.3-1.1c-1-9-8.2-14-20.3-14c-10.1,0-17.5,3.5-17.5,11.7c0,21,63.2,3.9,63.2,43C864.2,194.7,848.1,206,822.3,206z"
	/>
<path d="M876.7,203.7c-0.6,0-1.1-0.6-1.1-1.1l0.4-48.2l-0.4-48.2c0-0.6,0.6-1.1,1.1-1.1h19.2c0.6,0,1.1,0.6,1.1,1.1l-0.4,48.2
	l0.4,48.2c0,0.6-0.6,1.1-1.1,1.1H876.7z"/>
</svg>
