<?xml version="1.0" encoding="utf-8"?>
<!-- Generator: Adobe Illustrator 26.0.1, SVG Export Plug-In . SVG Version: 6.00 Build 0)  -->
<svg version="1.1" id="Warstwa_1" xmlns="http://www.w3.org/2000/svg" xmlns:xlink="http://www.w3.org/1999/xlink" x="0px" y="0px"
	 viewBox="0 0 1000 280" style="enable-background:new 0 0 1000 280;" xml:space="preserve">
<path d="M135.5,154.3c0,2.1-0.1,4.3-0.1,6.5c-0.1,2.2-0.3,4.5-0.5,6.8c-0.3,2.9-1,5.8-2,8.7c-1.1,2.9-2.6,5.4-4.5,7.7
	c-2,2.3-4.4,4.1-7.3,5.5s-6.4,2.1-10.4,2.1c-3.2,0-5.3-0.7-6.4-2.1c-1.1-1.4-1.6-3.2-1.6-5.3v-1.9c0-0.7,0-1.2,0.1-1.7
	c7.3,0,12.4-1.5,15.3-4.4s4.3-7.8,4.3-14.6V89.1c0.5-0.2,1.1-0.3,1.8-0.4c0.7-0.1,1.3-0.1,1.8-0.1c0.9,0,2.5,0.1,3.6,0.3
	c1.1,0.2,1.6,0.7,2.5,1.4c1,0.7,1.8,1.7,2.4,2.9c0.7,1.2,1,2.8,1,4.7V154.3z"/>
<path d="M178.2,133.1h34.2v11.6h-34.2v35.6h38.3c3.3,0,5.7,0.8,7.2,2.3c1.5,1.6,2.2,3.5,2.2,5.8c0,0.4,0,0.8-0.1,1.1
	c0,0.3-0.1,0.7-0.1,1v1.1h-60.6V90.7h58.2c0.2,0.6,0.3,1.1,0.3,1.6v1.6c0,2.3-0.7,4.2-2,5.8c-1.3,1.6-3.7,2.3-7.2,2.3h-36.2
	L178.2,133.1L178.2,133.1z"/>
<path d="M308.5,171.5V90.6c0.3,0,0.7,0,1.1-0.1c0.3,0,0.7,0,1.1-0.1c0.5-0.1,0.9-0.1,1.4-0.1c0.9,0,1.9,0.1,2.9,0.4s1.9,0.7,2.8,1.4
	c0.9,0.7,1.6,1.6,2.1,2.9c0.6,1.3,0.8,2.9,0.8,4.9v91.8h-12.2l-51.2-78.2v78.2H245V91c0.6-0.2,1.4-0.4,2.6-0.5
	c1.1-0.1,2.2-0.2,3.3-0.2c2.2,0,3.9,0.4,5.2,1.1c1.3,0.8,2.4,2,3.5,3.8L308.5,171.5z"/>
<path d="M475.7,149.8v41.7h-13.3v-41.4L430,91.8c0.9-0.5,2.1-0.9,3.5-1.2c1.4-0.3,2.9-0.5,4.4-0.5c2.6,0,4.6,0.5,5.9,1.6
	c1.3,1,2.5,2.6,3.6,4.6l21.9,41.4L491,97.5c1.1-1.9,2.4-3.6,3.9-5.1s3.6-2.2,6.2-2.2c1.1,0,2.2,0.1,3.3,0.3c1.1,0.2,2.3,0.5,3.6,0.9
	L475.7,149.8z"/>
<path d="M572,130.9h34c0.1,0.4,0.2,0.8,0.2,1.2v2.8c-0.1,2.1-0.8,3.9-1.9,5.3c-0.9,1.1-2.3,1.8-4.2,2.2h-28v47.9H559V89.5h58.1
	c0.2,0.6,0.3,1.1,0.3,1.6v1.6c0,2.3-0.7,4.2-2,5.8c-1.3,1.6-3.8,2.3-7.4,2.3h-36L572,130.9L572,130.9z"/>
<path d="M678,190.2l-9.2-27.1h-37.2l-9,27.1h-12.1l33.3-99.8c0.6-0.3,1.6-0.6,2.9-0.9c1.3-0.3,2.6-0.4,3.9-0.4
	c1.7,0,3.3,0.4,4.8,1.3c1.4,0.9,2.5,2.5,3.4,4.9l31.8,95L678,190.2L678,190.2z M650.2,104.4l-15.6,48h31L650.2,104.4z"/>
<path d="M721.6,190.2h-13.3V89.3c0.4,0,0.8,0,1.2-0.1c0.4,0,0.8,0,1.2-0.1s0.9-0.1,1.4-0.1c0.9,0,1.9,0.1,2.9,0.4
	c1,0.2,2.1,0.7,3.1,1.3c1,0.7,1.8,1.6,2.5,2.9s1,2.9,1,4.9L721.6,190.2L721.6,190.2z"/>
<path d="M810.2,117.2c0,4.2-0.6,8-1.8,11.3s-2.8,6.2-4.8,8.6c-2,2.4-4.3,4.4-7,6s-5.5,2.8-8.5,3.5l27.6,43.7c-1,0.5-2.2,0.8-3.5,1
	s-2.5,0.3-3.6,0.3c-4.6,0-8.2-2-10.7-5.9L774.4,149H761v41.2h-13.1V89.8c3.6-0.5,7.5-0.8,11.7-1s8.2-0.3,12-0.3
	c13.7,0,23.6,2.3,29.7,7C807.2,100.1,810.2,107.3,810.2,117.2 M796.5,117.9c0-3.7-0.6-6.8-1.7-9.2c-1.1-2.4-2.8-4.3-5-5.6
	c-2.2-1.4-4.8-2.3-7.8-2.8c-3.1-0.5-6.4-0.8-10.2-0.8c-2.4,0-4.5,0-6.3,0.1s-3.5,0.3-5,0.5h0.3v37.6h10.8c3.7,0,7.1-0.4,10.1-1.1
	c3-0.7,5.6-1.9,7.8-3.5s3.9-3.7,5.1-6.2C795.9,124.6,796.5,121.5,796.5,117.9"/>
<path d="M865,148.5v41.7h-13.3v-41.4l-32.4-58.3c0.9-0.5,2.1-0.9,3.5-1.2c1.4-0.3,2.9-0.5,4.4-0.5c2.6,0,4.6,0.5,5.9,1.6
	c1.3,1,2.5,2.6,3.6,4.6l21.8,41.4l21.8-40.2c1.1-1.9,2.4-3.6,3.9-5.1s3.6-2.2,6.2-2.2c1.1,0,2.2,0.1,3.3,0.3
	c1.1,0.2,2.3,0.5,3.6,0.9L865,148.5z"/>
<path d="M406.5,171.5V90.6c0.3,0,0.7,0,1.1-0.1c0.3,0,0.7,0,1.1-0.1c0.5-0.1,0.9-0.1,1.4-0.1c0.9,0,1.9,0.1,2.9,0.4s1.9,0.7,2.8,1.4
	c0.9,0.7,1.6,1.6,2.1,2.9c0.6,1.3,0.8,2.9,0.8,4.9v91.8h-12.2l-51.2-78.2v78.2h-12.2V91c0.6-0.2,1.4-0.4,2.6-0.5
	c1.1-0.1,2.2-0.2,3.3-0.2c2.2,0,3.9,0.4,5.2,1.1c1.3,0.8,2.4,2,3.5,3.8L406.5,171.5z"/>
</svg>
