<?xml version="1.0" encoding="utf-8"?>
<!-- Generator: Adobe Illustrator 26.0.1, SVG Export Plug-In . SVG Version: 6.00 Build 0)  -->
<svg version="1.1" id="Warstwa_1" xmlns="http://www.w3.org/2000/svg" xmlns:xlink="http://www.w3.org/1999/xlink" x="0px" y="0px"
	 viewBox="0 0 1000 386" style="enable-background:new 0 0 1000 386;" xml:space="preserve">
<path d="M128.7,130.6h19.8l0.1,0.1V237l0.1,0.1h54.8l0.1,0.1v17.7l-0.1,0.1h-74.8l-0.1-0.1V130.7L128.7,130.6z"/>
<path d="M304.3,234.3h-55.6l-0.3,0.2l-8.7,20.4l-0.3,0.2h-20.6l-0.3-0.4l54.6-125.9l0.3-0.2h6.4l0.3,0.2l54.6,125.9l-0.3,0.4h-20.8
	l-0.3-0.2l-8.7-20.4L304.3,234.3z M276.5,165.9L255.7,217l0.1,0.1h41.3l0.1-0.1l-20.6-51.1H276.5z"/>
<path d="M340.7,230.1l14-10.6l0.1,0c7.2,10.3,17.1,19.7,32.5,19.7c12.8,0,21.5-6.6,21.5-17.3c0-9.8-7.3-13.6-18.3-18.7l-13.8-6.4
	c-15.1-7-29-16.2-29-34.5c0-20.6,17.7-33.7,39.2-33.7c18.2,0,32.5,9.4,40.1,22.2l0,0.2l-13.8,10.6l-0.1,0c-6.4-9.6-15.4-15-26.1-15
	c-10,0-18.9,4.9-18.9,15.1c0,9.4,7.2,12.8,17.3,17.7l14,6.4c18.8,8.7,29.8,18.3,29.8,35.4c0,22.1-17.9,36-41.7,36
	c-20.7,0-37.5-10.5-46.9-26.9L340.7,230.1z"/>
<path d="M446.5,203.9c-6.6-41.7,24.5-75.4,64.3-75.4c36,0,65.4,27.9,65.4,64.3c0,41.8-38.4,72-81.2,62.5
	C470,249.8,450.5,229.3,446.5,203.9z M555.7,192.6c0-26.2-19.2-45.8-44.7-45.8c-25.8,0-44.7,19.4-44.7,45.8
	c0,26.8,18.9,46.2,44.7,46.2C536.5,238.8,555.7,219.4,555.7,192.6z"/>
<path d="M591.4,199.9c-4.2-40.2,30-74.1,70.3-71.1c21,1.6,38.3,12.4,48,28.4l0,0.1l-14.9,11l-0.1,0c-8.7-13.3-21.5-21.4-38-21.4
	c-25.6,0-44.9,19.4-44.9,46c0,26.6,19.2,46,44.9,46c16.5,0,29.3-8.1,38-21.4l0.1,0l14.9,11l0,0.2c-10.4,17.3-30,28.6-53.3,28.6
	C622.4,257.1,594.8,232.9,591.4,199.9z"/>
<path d="M730.5,130.6h19.8l0.1,0.1v124.2l-0.1,0.1h-19.8l-0.1-0.1V130.7L730.5,130.6z M833.1,255h-20.2c-2.7,0-5.3-1.2-7-3.2
	l-56.1-62.9v-0.2l50.6-55.1c1.8-2,4.3-3.1,7-3.1h20.1l0.1,0.2l-52.6,58v0.1l58.3,65.9L833.1,255z"/>
<path d="M851.6,130.6h19.8l0.1,0.1v124.2l-0.1,0.1h-19.8l-0.1-0.1V130.7L851.6,130.6z"/>
</svg>
