<svg width="1000" height="390" viewBox="0 0 1000 390" fill="none" xmlns="http://www.w3.org/2000/svg">
<path d="M516.21 242.49C511.04 238.49 510.55 243.06 502.37 246.1C494.19 249.14 492.2 238.93 491.91 230.32C491.62 221.71 494.06 209.02 485.56 209.21C477.05 209.4 476.42 221.71 476.32 229.08C476.23 236.46 457.12 253.13 430.33 242.98C418.85 238.62 410.41 232.01 404.21 224.79C411.1 209.67 414.16 193.94 414.64 189.07C415.52 180.15 426.5 130.85 396.16 130.22C365.82 129.58 372.64 191.86 380.44 212.59C382.11 217.02 384.6 221.61 387.76 226.13C374.15 246.09 350.3 249.05 329.35 237.44C321.64 233.17 315.99 226.41 311.83 218.69C316.99 209.23 319.89 200.32 321.54 195.02C325.12 183.52 333.69 130.67 307.83 130.21C281.96 129.76 285.39 170.98 289.95 193.24C291.78 202.17 294.33 209.97 297.42 216.93C291.09 226.02 283.18 233.01 274.67 238.87C257.2 250.89 246.35 249.96 239.47 246.1C238.76 245.7 238.11 245.25 237.5 244.78C238.92 243.64 244.98 237.82 246.18 236.66C257.98 225.32 257.52 209.89 248.9 204.9C239.85 199.66 226.72 202.24 222.58 215.78C220.8 221.61 220.04 235.81 221.92 240.99C218.35 242.68 214.48 244.1 210.68 245.08C199.52 247.97 198.98 241.23 197.24 228.28C195.5 215.33 179.58 207.3 164.03 207.3C148.49 207.3 144.35 215.15 144.35 215.15C144.35 215.15 144.92 207.45 137.36 207.3C129.8 207.16 129.92 220.71 129.92 220.71V251.24C129.92 251.24 129.66 259.79 137.11 259.78C144.57 259.77 144.1 247.81 143.84 240.38C143.58 232.95 150.76 222.9 164.46 222.98C178.16 223.05 183.28 233.93 183.73 241.91C184.18 249.89 190.91 258.95 203.12 259.82C210.8 260.37 220.05 256.46 228.33 251.27C230.31 253.28 232.53 254.89 234.84 255.93C244.42 260.24 256.83 263.41 282.65 249.23C291.84 244.19 298.95 237.32 304.47 230.05C307.53 234.8 310.89 239.09 314.47 243.03C325.52 255.18 352.3 265.87 378.24 254.65C385.96 251.31 392.23 244.95 397.24 237.41C409.04 249.17 425.04 258.47 441.71 259.51C469.39 261.24 478.93 247.25 478.93 247.25C478.93 247.25 483.89 259.61 499.47 259.51C515.08 259.42 521.39 246.48 516.21 242.49ZM232.12 223.49C235.51 211.04 248.7 218.41 240.29 228.94C236.66 233.48 234.48 234.78 232.12 236.65C231.66 234.28 230.76 228.48 232.12 223.49ZM300.61 176.84C298.91 159.31 301.35 144.36 305.36 144.19C309.36 144.02 315.05 150.25 311.05 180.15C309.93 188.53 307.95 195.89 305.29 202.39C302.6 193.11 301.29 183.88 300.61 176.84ZM397 147.32C408.02 147.57 404.32 185.84 395.09 211.07C392.45 205.84 390.71 200.83 389.58 196.64C385.92 182.93 383.7 147.02 397 147.32Z" fill="white"/>
<path d="M865.83 237.64C857.52 234.22 857.4 245.63 848.68 245.31C839.96 244.99 838.28 221.61 838.11 218.42C837.94 215.23 838.2 206.64 829.49 206.75C820.78 206.86 821.3 217.28 821.3 217.28C821.52 224.5 820.13 246 806.93 246.27C793.73 246.54 792.36 227.18 791.84 220.5C791.33 213.83 789.71 207.39 779.85 209.21C769.99 211.03 776.78 228.88 761.15 240.17C745.52 251.47 726.37 238.83 722.42 236.17C718.52 233.55 707.69 222.71 700.44 200.28C710.31 193.6 720.01 183.08 725.07 167.07C733.06 141.78 716.32 129.99 705.67 129.92C695.02 129.85 683.04 135.69 682.66 173.72C682.59 180.88 683.15 187.59 684.19 193.83C664.2 203.65 644.21 201.12 636.29 200.15C626.32 198.92 611.3 200.33 611.3 200.33V141.08C611.3 135.82 609.64 129.79 602.03 129.91C594.42 130.02 594.61 141.59 594.61 141.59V249.41C594.8 257.02 597.84 259.68 603.72 259.48C609.59 259.28 610.4 253.82 610.4 253.82V251.46C615.71 258.48 627.33 262.31 642.37 258.1C658.18 253.66 662.69 243.52 664.41 232.51C666.13 221.5 656.3 212.56 656.3 212.56C656.3 212.56 670.49 212.72 683.99 208.34C685.06 207.99 686.18 207.59 687.32 207.15C693.34 226.73 704.09 240.23 713.14 247.03C726.66 257.2 743.5 258.54 756.85 256.26C770.2 253.98 780.63 242.25 780.63 242.25C780.88 247.26 785.14 259.68 807.2 259.69C829.26 259.7 830.1 240.02 830.1 240.02C830.1 240.02 831.54 253.98 840.14 258.08C848.74 262.18 857.21 257.59 862.91 253.79C868.62 250 874.14 241.06 865.83 237.64ZM630.13 244.42C618 243.65 612.29 236.17 610.4 229.05V214.64C610.7 214.59 610.99 214.55 611.28 214.51C611.28 214.5 611.29 214.49 611.29 214.49V214.51C663.55 206.92 655.13 246 630.13 244.42ZM697.27 185.43C695.1 165.86 699.84 146.44 705.68 145.16C712.93 143.58 723.72 161.77 699.57 183.45C698.81 184.13 698.05 184.79 697.27 185.43Z" fill="white"/>
<path fill-rule="evenodd" clip-rule="evenodd" d="M484.96 170.39C486.59 164.57 494.45 155.81 500.82 165.58C504.34 170.99 501.43 177.31 497.07 183.35C493.72 187.98 489.52 192.44 486.74 196.2C486.74 196.2 473.93 186.71 470.93 183.67C469.38 182.11 466.1 178.97 465.53 174.78C464.84 169.73 467.37 163.56 471.97 161.96C477.41 160.07 480.01 162.61 483.95 168.25C484.43 168.97 484.85 170.78 484.96 170.39Z" fill="white"/>
</svg>
