<svg width="1000" height="264" viewBox="0 0 1000 264" fill="none" xmlns="http://www.w3.org/2000/svg">
<path d="M905.07 116.64C901.8 107.77 894.94 101.16 885.26 97.2599C878.65 94.5999 870.74 93.1699 861.76 93.1699H821.33V165.55H823.79H826.25H828.71H861.76C889.07 165.55 906.57 152.57 907.2 130.56C907.21 130.16 907.26 129.77 907.26 129.36C907.26 124.71 906.48 120.47 905.07 116.64ZM885.68 130.76C884.96 142.65 875.03 148.8 860.1 148.8C860.1 148.8 853.2 148.92 849.8 148.8H842.42V109.92H860.1C866.58 109.92 872.1 111.09 876.35 113.37C880.92 115.82 884.01 119.55 885.19 124.55C885.54 126.04 885.74 127.64 885.74 129.36C885.75 129.84 885.71 130.29 885.68 130.76Z" fill="white"/>
<path d="M805.73 165.55V150.51H749.27V135.77H794.87V122.04H749.27V121.19V108.21H804.59V93.1699H728.49V165.55H805.73Z" fill="white"/>
<path d="M693.3 144.14L691.02 141.51L690.53 140.94C701.45 137.76 708.92 130.57 709.5 119.3C709.52 118.83 709.56 118.37 709.56 117.88C709.56 115.3 709.17 112.95 708.51 110.78C706.46 104.02 701.42 99.2199 694.53 96.3599C689.42 94.2399 683.32 93.1699 676.67 93.1699H625.9V165.55H646.89V142.7H668.19L668.28 142.81L670.45 145.4L687.32 165.55H690.65H690.79H708.62H708.69H711.83L693.3 144.14ZM688.05 119.25C687.57 125.13 682.84 127.15 676.27 127.35C675.89 127.36 654.17 127.39 654.17 127.39H649.25H646.79V109.19H675.12C679.34 109.19 682.87 109.88 685.2 111.68C686.94 113.03 688 115.01 688.11 117.85C688.11 118.01 688.08 118.93 688.05 119.25Z" fill="white"/>
<path d="M509.39 165.55V117.99L556.13 165.55H574.64V93.1699H554.27V137.43L511.36 93.1699H489.02V165.55H509.39Z" fill="white"/>
<path d="M471.6 117.63C468.06 108.22 460.8 101.28 450.66 97.2599C443.89 94.5699 435.86 93.1599 426.82 93.1599C422.91 93.1599 419.2 93.4499 415.69 93.9599C393.49 97.2199 379.67 110.57 379.67 131.73C379.67 132.15 379.72 132.54 379.73 132.95C379.9 139.46 381.41 145.21 384.09 150.12C387.73 156.8 393.53 161.93 401.09 165.35C405.96 167.55 411.54 169.04 417.76 169.77C420.66 170.11 423.67 170.31 426.83 170.31C454.99 170.31 473.41 156.69 474.03 132.95C474.04 132.54 474.09 132.15 474.09 131.74C474.08 126.55 473.19 121.85 471.6 117.63ZM452.51 132.95C451.94 145.84 442.26 153.15 426.82 153.15C426.12 153.15 425.44 153.12 424.76 153.09C421.2 152.93 417.99 152.36 415.14 151.41C410.46 149.84 406.82 147.21 404.42 143.64C402.45 140.71 401.31 137.14 401.12 132.99C401.1 132.58 401.06 132.18 401.06 131.76C401.06 118.94 409.82 111.32 424 110.45C424.91 110.39 425.85 110.36 426.81 110.36C432.87 110.36 438.04 111.49 442.13 113.63C447 116.18 450.31 120.2 451.74 125.47C452.26 127.4 452.56 129.49 452.56 131.75C452.57 132.15 452.53 132.54 452.51 132.95Z" fill="white"/>
<path d="M368.4 165.55H298.6V93.1699H319.7V148.59H368.4V148.76V165.55Z" fill="white"/>
<path d="M247.8 165.55V141.15L281.82 93.1699H258.35L237.36 124.4L216.26 93.1699H192.69L226.7 141.15V165.55H247.8Z" fill="white"/>
<path d="M113.11 165.55V117.99H113.12L159.85 165.55H178.36V93.1699H157.99V137.43L115.08 93.1699H92.74V165.55H113.11Z" fill="white"/>
</svg>
