<svg width="1000" height="381" viewBox="0 0 1000 381" fill="none" xmlns="http://www.w3.org/2000/svg">
<path d="M194.03 253.56C158.2 253.56 126.78 228.57 126.78 190.17C126.78 151.58 158.2 126.78 194.03 126.78C229.86 126.78 261.28 151.58 261.28 190.17C261.28 228.57 229.86 253.56 194.03 253.56ZM194.03 134.32C164.63 134.32 147.36 155.27 147.36 190.17C147.36 224.9 164.63 246.03 194.03 246.03C223.43 246.03 240.7 224.9 240.7 190.17C240.7 155.26 223.43 134.32 194.03 134.32Z" fill="white"/>
<path d="M374.13 148.46C362.19 139.46 346.57 135.97 332.42 135.97H330.4V190.17C330.4 218.65 330.58 236.66 330.77 242.54C330.95 246.95 332.79 248.42 336.46 250.08L336.28 251C331.87 250.63 325.62 250.45 321.03 250.45C316.25 250.45 310.37 250.64 305.78 251L305.6 250.08C309.46 248.24 311.11 246.95 311.29 242.54C311.48 236.66 311.66 218.66 311.66 190.17V135.97H309.82C295.67 135.97 279.69 139.65 267.74 148.65L266.82 147.73C268.84 143.14 271.78 134.32 272.7 129.91H369.35C370.27 134.32 373.03 142.96 375.05 147.54L374.13 148.46Z" fill="white"/>
<path d="M502.23 148.46C490.29 139.46 474.67 135.97 460.52 135.97H458.5V190.17C458.5 218.65 458.68 236.66 458.87 242.54C459.05 246.95 460.89 248.42 464.56 250.08L464.38 251C459.97 250.63 453.72 250.45 449.13 250.45C444.35 250.45 438.47 250.64 433.88 251L433.7 250.08C437.56 248.24 439.21 246.95 439.39 242.54C439.58 236.66 439.76 218.66 439.76 190.17V135.97H437.92C423.77 135.97 407.79 139.65 395.84 148.65L394.92 147.73C396.94 143.14 399.88 134.32 400.8 129.91H497.45C498.37 134.32 501.13 142.96 503.15 147.54L502.23 148.46Z" fill="white"/>
<path d="M548.4 250.99C543.99 250.62 537.74 250.44 533.15 250.44C528.37 250.44 522.49 250.63 517.9 250.99L517.71 250.07C521.57 248.23 523.22 246.94 523.41 242.53C523.59 236.65 523.78 218.65 523.78 190.16C523.78 161.5 523.59 143.67 523.41 137.79C523.22 133.38 521.57 132.1 517.71 130.26L517.9 129.34C522.49 129.71 528.37 129.9 533.15 129.9C537.74 129.9 543.99 129.71 548.4 129.34L548.59 130.26C544.91 131.91 543.08 133.38 542.89 137.79C542.71 143.67 542.52 161.49 542.52 190.16C542.52 218.64 542.71 236.65 542.89 242.53C543.08 246.94 544.91 248.41 548.59 250.07L548.4 250.99Z" fill="white"/>
<path d="M712.66 250.07L712.47 251.17C708.06 250.62 701.81 250.43 697.22 250.43C692.44 250.43 686.56 250.62 681.97 250.98L681.79 250.06C685.65 248.22 687.3 247.12 687.49 242.52C687.67 236.64 687.86 218.82 687.86 190.15C687.86 167 688.05 152.11 688.23 143.48C671.51 181.7 660.12 208.52 643.4 248.58H637.7C627.04 224.69 600.4 167.92 588.46 143.11C588.83 153.95 589.2 166.45 589.2 190.15C589.2 216.79 589.93 230.57 590.67 242.52C590.85 246.93 592.87 248.4 596.37 250.06L596.18 250.98C592.69 250.61 589.01 250.43 586.07 250.43C583.32 250.43 579.82 250.62 575.41 250.98L575.22 250.06C579.08 248.22 580.73 246.93 580.92 242.52C581.66 230.58 582.02 218.64 582.02 190.15C582.02 161.49 581.84 143.66 581.65 137.78C581.46 133.37 579.81 132.09 575.95 130.25L576.13 129.33C580.72 129.7 586.6 129.89 590.46 129.89C594.87 129.89 601.3 129.7 603.14 129.52C616.37 160.57 631.25 192.91 645.95 222.49C658.08 195.48 678.1 149.18 686 129.52C689.31 129.71 694.08 129.89 699.05 129.89C703.46 129.89 708.05 129.7 712.46 129.33L712.65 130.25C708.97 131.9 707.14 133.37 706.95 137.78C706.77 143.66 706.58 161.48 706.58 190.15C706.58 218.63 706.77 236.64 706.95 242.52C707.14 246.95 708.98 248.42 712.66 250.07Z" fill="white"/>
<path d="M805.97 253.56C770.14 253.56 738.72 228.57 738.72 190.17C738.72 151.58 770.14 126.78 805.97 126.78C841.8 126.78 873.22 151.58 873.22 190.17C873.22 228.57 841.8 253.56 805.97 253.56ZM805.97 134.32C776.57 134.32 759.3 155.27 759.3 190.17C759.3 224.9 776.57 246.03 805.97 246.03C835.37 246.03 852.64 224.9 852.64 190.17C852.64 155.26 835.37 134.32 805.97 134.32Z" fill="white"/>
</svg>
