<?xml version="1.0" encoding="utf-8"?>
<!-- Generator: Adobe Illustrator 26.0.1, SVG Export Plug-In . SVG Version: 6.00 Build 0)  -->
<svg version="1.1" id="Warstwa_1" xmlns="http://www.w3.org/2000/svg" xmlns:xlink="http://www.w3.org/1999/xlink" x="0px" y="0px"
	 viewBox="0 0 1000 452" style="enable-background:new 0 0 1000 452;" xml:space="preserve">
<path d="M701.5,269.9l78.4-90.8l1.1-1.2l-0.3-0.3v-24.8H663.2V178h79.7l-79.7,92.2v25.2h117.4v-25.2h-79.1L701.5,269.9z"/>
<path d="M850.5,152.3h-29.2v143.2h29.2V152.3z"/>
<path d="M336.3,242v-89.1h27.6v89.3l-0.1,2c0,20.2,15.9,30,30.6,30.5l1,0c14.8,0,31-8.4,32.6-32.4V242v-89h27.6l-0.2,88.8v0.2
	l-0.2,3.5c-2.8,40.2-31.7,56.7-59.6,56.7c-0.7,0-1.4,0-2.1,0c-28.4-1-57.2-21.2-57.1-58L336.3,242z"/>
<path d="M600.6,295.9h30.5L572,151.6l0.1-0.3h-0.2h-30.1h-0.2l0.1,0.3l-59.1,144.4h30.5l10.4-25.5h0.3h51.4l-9-22.3l-33.1,0l-0.5,0
	l24.2-59.4L600.6,295.9z"/>
<path d="M224.3,271.8c-26.1,0-47.4-21.3-47.4-47.5c0-26.1,21.3-47.4,47.4-47.4c26.2,0,47.5,21.3,47.5,47.4
	C271.8,250.5,250.5,271.8,224.3,271.8z M287.6,264c7.2-11.5,11.4-25.1,11.4-39.7c0-41.2-33.5-74.8-74.8-74.8
	c-41.2,0-74.8,33.6-74.8,74.8c0,41.2,33.5,74.8,74.8,74.8c16.2,0,31.2-5.2,43.5-14l14.8,14l19.9-21.1L287.6,264z"/>
</svg>
