<svg width="1000" height="615" viewBox="0 0 1000 615" fill="none" xmlns="http://www.w3.org/2000/svg">
<path d="M763.99 338.43H792.3V249.65H763.99V338.43ZM778.15 238.55C787.95 238.55 795.21 231.47 795.21 222.22C795.21 213.33 787.95 206.25 778.15 206.25C768.35 206.25 761.27 213.51 761.27 222.22C761.27 231.47 768.35 238.55 778.15 238.55ZM702.09 315.03C691.02 315.03 683.02 306.67 683.02 294.13C683.02 281.41 691.38 273.05 702.09 273.05C713.52 273.05 721.51 281.96 721.51 294.13C721.51 306.85 713.16 315.03 702.09 315.03ZM696.29 340.07C707.36 340.07 715.7 336.26 721.51 329H721.87V338.43H748.93V204.79H720.42V259.08H720.24C713.89 251.82 704.81 248.01 694.84 248.01C671.94 248.01 654.34 266.88 654.34 294.12C654.34 321.56 671.75 340.07 696.29 340.07ZM558 338.43H586.31V293.75C586.31 279.95 592.85 273.23 602.67 273.23C611.94 273.23 616.85 277.41 616.85 292.12V338.43H645.16V285.22C645.16 257.09 631.73 248.02 613.4 248.02C603.04 248.02 593.59 252.01 586.68 259.99H586.32V249.65H558V338.43ZM497.69 315.03C486.43 315.03 478.62 306.67 478.62 294.13C478.62 281.41 486.8 273.05 497.69 273.05C508.21 273.05 516.38 281.96 516.38 294.13C516.39 306.85 507.85 315.03 497.69 315.03ZM491.71 340.07C502.41 340.07 510.39 336.44 516.21 329L516.57 329.18V338.43H543.63V249.65H515.12V258.9L514.76 259.08C508.59 251.82 499.7 248.01 490.27 248.01C467.37 248.01 449.77 266.88 449.77 294.12C449.75 321.56 467.35 340.07 491.71 340.07ZM391.37 338.43H419.69V298.49C419.69 286.86 426.59 278.32 440.03 278.32C441.48 278.32 444.03 278.5 446.75 278.68V248.01H445.66C435.85 248.01 426.59 252.91 420.05 261.99H419.69V249.64H391.37V338.43ZM333.58 315.03C322.33 315.03 313.78 306.85 313.78 294.13C313.78 281.96 321.96 273.05 333.39 273.05C344.27 273.05 352.45 281.41 352.45 294.13C352.45 306.67 344.46 315.03 333.58 315.03ZM286.73 374.39H315.05V329.91L315.41 329.73C321.23 336.44 329.04 340.07 339.2 340.07C363.71 340.07 381.14 321.56 381.14 294.13C381.14 266.88 363.71 248.02 340.65 248.02C330.67 248.02 321.78 251.83 315.41 259.09H315.05V249.66H286.73V374.39ZM558.83 409.34H561.76V380.51H561.81L584.86 409.34H587.79V375.84H584.91V404.86H584.81L561.71 375.84H558.83V409.34V409.34ZM526.42 397.93L534.19 379.06H534.29L542.06 397.93H526.42ZM518.7 409.34H521.79L525.5 400.33H542.99L546.74 409.34H549.83L535.73 375.84H532.64L518.7 409.34ZM489.79 406.89V393.16H498.74C505.07 393.16 508.57 395.8 508.57 400.24C508.57 404.72 504.71 406.89 499.05 406.89H489.79V406.89ZM489.79 390.75V378.3H497.87C504.2 378.3 506.82 380.71 506.82 384.43C506.82 389.2 502.6 390.75 498.59 390.75H489.79ZM486.85 409.34H499.2C507.64 409.34 511.6 405.66 511.6 400.38C511.6 395.23 507.84 392.5 503.57 391.79V391.74C507.79 390.56 509.8 387.4 509.8 383.96C509.8 378.11 504.91 375.84 498.12 375.84H486.85V409.34V409.34ZM454.39 393.3V378.3H463.7C469.21 378.3 472.65 380.8 472.65 385.76C472.65 390.05 469.92 393.31 462.93 393.31H454.39V393.3ZM451.46 409.34H454.39V395.8H462.47L472.86 409.34H476.41L465.71 395.56C471.83 394.85 475.69 391.74 475.69 385.75C475.69 380.09 472.14 375.84 463.96 375.84H451.46V409.34ZM425.94 409.58C434.22 409.58 439.78 404.39 439.78 395.85V375.84H436.85V395.71C436.85 402.83 432.37 406.99 425.94 406.99C419.41 406.99 415.08 402.7 415.08 395.71V375.84H412.2V395.85C412.2 404.48 417.81 409.58 425.94 409.58ZM240.92 340.07C265.25 340.07 277.05 328.1 277.05 311.58C277.05 294.14 266.34 289.05 246.73 282.33C237.84 279.24 234.57 277.24 234.57 274.52C234.57 271.07 238.38 269.61 241.64 269.61C247.63 269.61 255.25 272.7 261.43 278.88L274.87 259.09C264.52 251.47 254.71 248.03 241.29 248.03C222.75 248.03 208.06 258.37 208.06 276.34C208.06 293.42 221.12 300.69 236.03 305.23C247.1 308.68 249.82 310.5 249.82 313.41C249.82 316.68 246.92 318.68 241.3 318.68C233.13 318.68 225.49 315.41 218.05 308.69L204.81 327.03C214.59 335.71 226.93 340.07 240.92 340.07Z" fill="white"/>
</svg>
