<svg width="1000" height="574" viewBox="0 0 1000 574" fill="none" xmlns="http://www.w3.org/2000/svg">
<path d="M733.11 381.97H228.51C211.46 381.97 198.07 371.72 193.57 355.22L194.91 354.86C199.24 370.73 212.11 380.59 228.51 380.59H733.11C747.46 380.59 762.52 372.96 773.39 360.17L774.45 361.07C763.32 374.15 747.86 381.97 733.11 381.97Z" fill="white"/>
<path d="M773.92 361.3C773.76 361.3 773.6 361.25 773.47 361.13C773.18 360.88 773.14 360.44 773.39 360.15C780.11 352.25 784.68 343.03 786.62 333.5L805.57 240.37C808.25 227.24 805.6 214.59 798.31 205.67C791.85 197.76 782.32 193.4 771.49 193.4C771.11 193.4 770.8 193.09 770.8 192.71C770.8 192.33 771.11 192.02 771.49 192.02C782.75 192.02 792.66 196.56 799.38 204.8C806.94 214.05 809.69 227.12 806.93 240.66L787.98 333.79C786 343.55 781.32 352.98 774.45 361.06C774.31 361.22 774.11 361.3 773.92 361.3Z" fill="white"/>
<path d="M194.24 355.73C193.93 355.73 193.66 355.53 193.57 355.22C191.69 348.32 191.52 340.95 193.07 333.34L208.87 255.65C208.95 255.27 209.33 255.03 209.69 255.11C210.07 255.19 210.31 255.55 210.23 255.93L194.43 333.62C192.92 341.02 193.08 348.17 194.91 354.86C195.01 355.23 194.79 355.61 194.42 355.71C194.36 355.72 194.3 355.73 194.24 355.73Z" fill="white"/>
<path d="M210.23 255.92L208.87 255.64L212.01 240.19C217.42 213.62 242.03 192.01 266.87 192.01L266.88 193.4C242.65 193.4 218.64 214.51 213.36 240.47L210.23 255.92Z" fill="white"/>
<path d="M733.11 382.65H228.51C211.13 382.65 197.48 372.21 192.9 355.4C190.99 348.39 190.81 340.92 192.38 333.2L211.34 240.06C216.8 213.18 241.73 191.32 266.9 191.32H771.49C782.96 191.32 793.05 195.94 799.92 204.34C807.61 213.75 810.42 227.04 807.63 240.8L788.67 333.91C786.66 343.79 781.93 353.34 774.98 361.51C763.72 374.74 748.06 382.65 733.11 382.65ZM195.57 354.67C199.81 370.22 212.43 379.87 228.51 379.87H733.1C747.25 379.87 762.12 372.33 772.85 359.71C779.5 351.9 784.02 342.78 785.93 333.35L804.89 240.24C807.52 227.3 804.91 214.85 797.75 206.09C791.42 198.35 782.09 194.09 771.48 194.09H266.9C242.98 194.09 219.27 214.96 214.06 240.61L195.1 333.74C193.62 341.05 193.78 348.08 195.57 354.67Z" fill="white"/>
<path d="M734.55 368.51H229.98C224.97 368.51 220.64 366.56 217.79 363.01C214.88 359.39 213.9 354.6 215.02 349.52L222.81 314.16C225.08 303.89 235.37 295.53 245.75 295.53H750.33C755.35 295.53 759.68 297.48 762.53 301.03C765.44 304.65 766.42 309.44 765.3 314.53L757.51 349.89C755.24 360.16 744.94 368.51 734.55 368.51ZM245.75 296.92C235.98 296.92 226.3 304.79 224.16 314.46L216.37 349.82C215.34 354.48 216.23 358.86 218.87 362.14C221.45 365.35 225.39 367.12 229.98 367.12H734.56C744.34 367.12 754.03 359.26 756.16 349.59L763.95 314.23C764.98 309.56 764.09 305.19 761.45 301.9C758.87 298.69 754.92 296.92 750.33 296.92H245.75Z" fill="white"/>
<path d="M296.79 332.22H310.41H324.03L323.88 323.81H306.75C298.01 323.81 297.09 329.76 296.79 332.22Z" fill="white"/>
<path d="M750.32 296.23H245.75C235.72 296.23 225.68 304.35 223.48 314.31L215.69 349.67C213.49 359.63 219.95 367.81 229.97 367.81H321.57H345.75H734.55C744.59 367.81 754.63 359.69 756.83 349.73L764.62 314.37C766.81 304.41 760.36 296.23 750.32 296.23ZM465.59 312.64H475.84V320.28H465.59V312.64ZM280.88 323.81H247.36C245.83 323.81 244.76 324.26 244 324.88C243.23 325.64 243.69 326.71 245.53 327.94H264.65V336.2H245.53C243.7 337.42 243.23 338.49 244 339.26C244.77 339.86 245.83 340.33 247.21 340.33H280.88V348.59H241.4C238.64 348.59 236.34 347.82 234.36 346.14C232.53 344.6 231.45 342.62 231.45 340.32C231.45 338.33 231.6 336.64 231.76 335.57C231.92 334.35 233.75 333.12 237.27 331.9C233.75 329.9 231.76 328.38 231.76 327.46C231.6 326.39 231.45 325.16 231.6 323.79C231.6 321.49 232.52 319.65 234.51 317.98C236.34 316.43 238.64 315.52 241.4 315.52H280.89V323.81H280.88ZM334.43 322.43V348.6H324.02V340.02H296.79V348.6H285.92V336.35C286.07 321.51 292.2 315.54 306.43 315.54H334.6L334.43 322.43ZM386.47 348.6H374.08L367.19 340.02H355.25V331.91H369.79C377.14 332.06 378.82 329.31 378.82 323.49H350.19V348.59H339.65V315.53H389.84V322.11C390.15 331.29 387.23 339.1 378.67 339.56L386.47 348.6ZM442.33 323.5L424.57 323.81V348.6H413.85V323.5C406.97 324.27 406.81 328.24 406.36 331.92L394.88 332.07C395.33 323.96 398.4 317.54 406.97 315.4H442.33V323.5V323.5ZM496.18 348.6H484.71V336.35H458.53V348.6H447.35V315.54H458.53V327.79H484.71V315.54H496.18V348.6ZM568.11 324.27H541.64C537.81 324.27 534.9 324.72 533.21 325.96C531.53 327.18 530.62 329.49 530.62 332.69V340.34H558.16V330.54H567.96V340.34V348.6H519.3V332.53C519.45 326.56 521.58 322.28 525.87 319.67C530.15 317.22 533.98 316 537.66 316H568.11V324.27ZM626.87 323.81H597.5C593.06 324.72 590.61 326.86 591.68 329.16H626.74V336.2H591.68V340.93H626.57V348.59H579.6V332.82C579.45 323.34 585.41 315.53 596.43 315.53H626.88V323.81H626.87ZM686.86 322.43V348.6H676.3V340.02H662.68H649.06V348.6H638.52V336.35C638.66 321.51 644.49 315.54 658.71 315.54H687.02L686.86 322.43ZM748.83 322.12C749 331.3 746.09 339.11 737.66 339.57L745.48 348.6H733.09L726.2 340.02H714.27V331.91H728.8C736.15 332.06 737.83 329.31 737.83 323.49H709.22V348.59H698.66V315.53H748.84V322.12H748.83Z" fill="white"/>
<path d="M649.06 332.22H676.31V323.81H659C650.29 323.81 649.37 329.76 649.06 332.22Z" fill="white"/>
<path d="M748.83 275.69H737.67C737.54 275.69 737.41 275.65 737.3 275.58L698.21 250.98L671.76 257.29C671.53 257.35 671.26 257.27 671.09 257.08C670.92 256.89 670.87 256.63 670.95 256.39L679.42 231.97L630.75 270.51C630.63 270.61 630.48 270.66 630.32 270.66H619.14C618.86 270.66 618.61 270.5 618.5 270.24C618.39 269.99 618.44 269.69 618.63 269.49L628.56 258.76L600.27 255.17C600.06 255.14 599.87 255.02 599.77 254.84C599.66 254.66 599.64 254.44 599.71 254.24L605.65 237.73L543.07 275.56C542.96 275.63 542.84 275.66 542.71 275.66H531.55C531.26 275.66 530.99 275.48 530.9 275.2C530.8 274.92 530.89 274.62 531.12 274.43L606.78 213.08C607.04 212.87 607.41 212.87 607.67 213.09L643.05 243.15L679.9 203.46C680.03 203.32 680.21 203.24 680.4 203.24C680.4 203.24 680.4 203.24 680.41 203.24C680.6 203.24 680.78 203.32 680.91 203.45L749.36 274.48C749.55 274.68 749.61 274.98 749.5 275.23C749.36 275.53 749.11 275.69 748.83 275.69ZM737.86 274.31H747.19L680.38 204.98L643.58 244.61C643.32 244.88 642.9 244.91 642.62 244.67L607.18 214.55L533.49 274.31H542.5L606.59 235.57C606.84 235.42 607.16 235.44 607.39 235.63C607.62 235.82 607.7 236.12 607.6 236.4L601.29 253.93L630.06 257.58C630.32 257.61 630.54 257.79 630.63 258.03C630.72 258.27 630.66 258.55 630.49 258.74L620.72 269.29H630.08L680.42 229.42C680.67 229.23 681 229.22 681.25 229.4C681.5 229.58 681.6 229.9 681.5 230.19L672.67 255.66L698.17 249.57C698.34 249.52 698.54 249.56 698.7 249.66L737.86 274.31Z" fill="white"/>
<path d="M748.83 275.69H737.67C737.54 275.69 737.41 275.65 737.3 275.58L698.21 250.98L671.76 257.29C671.53 257.35 671.26 257.27 671.09 257.08C670.92 256.89 670.87 256.63 670.95 256.39L679.42 231.97L630.75 270.51C630.63 270.61 630.48 270.66 630.32 270.66H619.14C618.86 270.66 618.61 270.5 618.5 270.24C618.39 269.99 618.44 269.69 618.63 269.49L628.56 258.76L600.27 255.17C600.06 255.14 599.87 255.02 599.77 254.84C599.66 254.66 599.64 254.44 599.71 254.24L605.65 237.73L543.07 275.56C542.96 275.63 542.84 275.66 542.71 275.66H531.55C531.26 275.66 530.99 275.48 530.9 275.2C530.8 274.92 530.89 274.62 531.12 274.43L606.78 213.08C607.04 212.87 607.41 212.87 607.67 213.09L643.05 243.15L679.9 203.46C680.03 203.32 680.21 203.24 680.4 203.24C680.4 203.24 680.4 203.24 680.41 203.24C680.6 203.24 680.78 203.32 680.91 203.45L749.36 274.48C749.55 274.68 749.61 274.98 749.5 275.23C749.36 275.53 749.11 275.69 748.83 275.69ZM737.86 274.31H747.19L680.38 204.98L643.58 244.61C643.32 244.88 642.9 244.91 642.62 244.67L607.18 214.55L533.49 274.31H542.5L606.59 235.57C606.84 235.42 607.16 235.44 607.39 235.63C607.62 235.82 607.7 236.12 607.6 236.4L601.29 253.93L630.06 257.58C630.32 257.61 630.54 257.79 630.63 258.03C630.72 258.27 630.66 258.55 630.49 258.74L620.72 269.29H630.08L680.42 229.42C680.67 229.23 681 229.22 681.25 229.4C681.5 229.58 681.6 229.9 681.5 230.19L672.67 255.66L698.17 249.57C698.34 249.52 698.54 249.56 698.7 249.66L737.86 274.31Z" fill="white"/>
<path d="M748.83 275L680.38 203.97L643.08 244.14L607.2 213.65L531.54 275H542.7L606.95 236.16L600.35 254.5L629.98 258.26L619.13 269.98H630.31L680.85 229.96L671.6 256.63L698.33 250.24L737.66 275H748.83Z" fill="white"/>
<path d="M253.8 245.98C253.8 254.42 261.16 257.06 268.7 259.04C269.14 259.16 269.58 259.28 270.01 259.39C273.15 260.22 275.05 260.83 275.05 262.27C275.05 263.98 271.59 264.92 269.2 264.92C263.27 264.92 259.66 262.73 257.17 260.83L256.47 260.3L252.05 269.79L252.43 270.14C255.36 272.86 261.3 275.76 269.21 275.76C278.23 275.76 287.33 271.49 287.33 261.95C287.33 253.06 278.9 250.05 272.5 248.55C269.2 247.83 266.08 247.15 266.08 245.49C266.08 244.36 267.95 243.4 270.17 243.4C273.69 243.4 277.22 244.29 280.97 246.12L281.62 246.44L285.78 237.21L285.23 236.89C280.98 234.44 276.76 232.8 270.02 232.8C262.15 232.81 253.8 237.43 253.8 245.98Z" fill="white"/>
<path d="M315.14 232.81C310.38 232.81 306.16 234.4 303.06 237.33V233.61H291.51V286.47H303.62V271.49C306.51 274.2 310.63 275.77 314.98 275.77C325.94 275.77 333.9 266.7 333.9 254.22C333.9 241.81 326.01 232.81 315.14 232.81ZM312.34 264.45C307.24 264.45 303.54 260.18 303.54 254.29C303.54 248.4 307.24 244.13 312.34 244.13C317.76 244.13 321.54 248.31 321.54 254.29C321.54 260.27 317.76 264.45 312.34 264.45Z" fill="white"/>
<path d="M364.57 232.81H363.87C357.16 232.81 352.83 235.78 350.59 239.05V233.61H338.64V274.96H350.75V258.92C350.75 249.9 354.79 245.88 363.87 245.88H364.57V232.81V232.81Z" fill="white"/>
<path d="M397.19 233.61V237.31C394.31 234.46 390.06 232.81 385.43 232.81C374.56 232.81 366.67 241.84 366.67 254.29C366.67 266.73 374.56 275.77 385.43 275.77C390.13 275.77 394.38 274.15 397.19 271.37V274.97H409.06V233.62H397.19V233.61ZM388.15 264.45C382.82 264.45 378.95 260.18 378.95 254.29C378.95 248.4 382.82 244.13 388.15 244.13C393.25 244.13 396.95 248.4 396.95 254.29C396.95 260.27 393.33 264.45 388.15 264.45Z" fill="white"/>
<path d="M453.72 251.25C453.72 238.84 448.84 232.81 438.8 232.81C433.96 232.81 429.88 234.5 426.88 237.71V233.61H415V274.96H427.11V254.04C427.11 248.25 430.42 244.36 435.35 244.36C439.9 244.36 441.6 246.59 441.6 252.6V274.95H453.71V251.25H453.72Z" fill="white"/>
<path d="M488.18 220.99V237.04C485.27 234.37 481.15 232.82 476.82 232.82C465.86 232.82 457.9 241.85 457.9 254.3C457.9 266.74 465.79 275.78 476.66 275.78C481.48 275.78 485.86 274.15 488.74 271.34V274.98H500.29V221H488.18V220.99ZM479.37 264.45C474.04 264.45 470.17 260.18 470.17 254.29C470.17 248.4 474.04 244.13 479.37 244.13C484.47 244.13 488.17 248.4 488.17 254.29C488.18 260.27 484.56 264.45 479.37 264.45Z" fill="white"/>
<path d="M519.3 223.13C519.3 219.22 516.12 216.03 512.2 216.03C508.33 216.03 505.19 219.21 505.19 223.13C505.19 226.93 508.4 230.14 512.2 230.14C516.12 230.15 519.3 227 519.3 223.13Z" fill="white"/>
<path d="M518.34 233.61H506.23V274.96H518.34V233.61Z" fill="white"/>
</svg>
