<?xml version="1.0" encoding="utf-8"?>
<!-- Generator: Adobe Illustrator 26.0.1, SVG Export Plug-In . SVG Version: 6.00 Build 0)  -->
<svg version="1.1" id="Warstwa_1" xmlns="http://www.w3.org/2000/svg" xmlns:xlink="http://www.w3.org/1999/xlink" x="0px" y="0px"
	 viewBox="0 0 1000 617" style="enable-background:new 0 0 1000 617;" xml:space="preserve">
<path d="M294.9,310.8c-13.9,0-24.4-5.1-29.6-9.9l-0.7-0.6l7.8-16.7l1.2,0.9c4.4,3.4,10.8,7.2,21.2,7.2c4.2,0,10.3-1.7,10.3-4.7
	c0-2.6-3.4-3.6-8.9-5.1c-0.8-0.2-1.5-0.4-2.3-0.6c-13.3-3.5-26.2-8.1-26.2-23c0-15.1,14.7-23.2,28.6-23.2c11.9,0,19.3,2.9,26.8,7.2
	l1,0.6l-7.3,16.3l-1.1-0.6c-6.6-3.2-12.8-4.8-19-4.8c-3.9,0-7.2,1.7-7.2,3.7c0,2.9,5.5,4.1,11.3,5.4c11.3,2.6,26.1,8,26.1,23.6
	C326.8,303.3,310.8,310.8,294.9,310.8z"/>
<path d="M294.9,310.8c-13.9,0-24.4-5.1-29.6-9.9l-0.7-0.6l7.8-16.7l1.2,0.9c4.4,3.4,10.8,7.2,21.2,7.2c4.2,0,10.3-1.7,10.3-4.7
	c0-2.6-3.4-3.6-8.9-5.1c-0.8-0.2-1.5-0.4-2.3-0.6c-13.3-3.5-26.2-8.1-26.2-23c0-15.1,14.7-23.2,28.6-23.2c11.9,0,19.3,2.9,26.8,7.2
	l1,0.6l-7.3,16.3l-1.1-0.6c-6.6-3.2-12.8-4.8-19-4.8c-3.9,0-7.2,1.7-7.2,3.7c0,2.9,5.5,4.1,11.3,5.4c11.3,2.6,26.1,8,26.1,23.6
	C326.8,303.3,310.8,310.8,294.9,310.8z"/>
<path d="M355.6,329.7h-21.4v-93.2h20.4v6.6c5.4-5.2,12.9-8,21.3-8c19.1,0,33.1,15.9,33.1,37.7c0,22-14,38-33.3,38
	c-7.7,0-14.9-2.8-20-7.5L355.6,329.7L355.6,329.7z M370.9,255c-9,0-15.5,7.5-15.5,17.9c0,10.4,6.5,17.9,15.5,17.9
	c9.6,0,16.2-7.4,16.2-17.9C387.1,262.4,380.5,255,370.9,255z"/>
<path d="M438.6,309.4h-21.3v-72.9h21.1v9.6c3.9-5.8,11.6-11,23.4-11h1.2v23h-1.2c-16,0-23.1,7.1-23.1,23L438.6,309.4L438.6,309.4z"
	/>
<path d="M499.7,310.8c-19.2,0-33.1-15.9-33.1-37.8c0-21.9,13.9-37.9,33.1-37.9c8.1,0,15.6,2.9,20.7,7.9v-6.5h20.9v72.9h-20.9V303
	C515.5,307.9,508,310.8,499.7,310.8z M504.5,255c-9.4,0-16.2,7.5-16.2,17.9c0,10.4,6.8,17.9,16.2,17.9c9.1,0,15.5-7.4,15.5-17.9
	C520,262.6,513.5,255,504.5,255z"/>
<path d="M620.1,309.4h-21.3V270c0-10.6-3-14.5-11-14.5c-8.7,0-14.5,6.9-14.5,17.1v36.9h-21.3v-72.9h20.9v7.2
	c5.3-5.7,12.5-8.6,21-8.6c17.7,0,26.3,10.6,26.3,32.5L620.1,309.4L620.1,309.4z"/>
<path d="M660.5,310.8c-19.2,0-33.1-15.9-33.1-37.8c0-21.9,14-37.9,33.3-37.9c7.6,0,14.9,2.7,20,7.4v-28.3h21.4v95.1h-20.4V303
	C676.7,307.9,669,310.8,660.5,310.8z M665.3,255c-9.4,0-16.2,7.5-16.2,17.9c0,10.4,6.8,17.9,16.2,17.9c9.1,0,15.5-7.4,15.5-17.9
	C680.8,262.6,674.3,255,665.3,255z"/>
<path d="M733.9,309.4h-21.3v-72.9H734L733.9,309.4L733.9,309.4z M723.1,230.4c-6.7,0-12.4-5.7-12.4-12.4c0-6.9,5.5-12.5,12.4-12.5
	c6.9,0,12.5,5.6,12.5,12.5C735.6,224.9,730,230.4,723.1,230.4z"/>
<path d="M261.5,335l173.9,27.6L270.1,410l524.3-75H261.5z"/>
<path d="M263.4,402.5l24.6-22.9L205.5,335l192.1,29.8L263.4,402.5z"/>
</svg>
