<svg width="1000" height="515" viewBox="0 0 1000 515" fill="none" xmlns="http://www.w3.org/2000/svg">
<path d="M207.82 246.06C194.39 246.06 185.08 245.54 175.01 245.03C172.68 244.25 171.65 238.83 171.65 233.14C172.17 228.23 173.72 223.32 176.56 223.32C186.63 223.84 197.49 223.84 208.85 223.84C208.33 209.89 209.37 195.94 209.37 180.17C209.37 174.74 228.75 174.74 231.59 179.65C231.59 192.05 231.07 207.55 230.82 223.83C239.09 223.83 249.16 223.83 258.98 223.31C263.37 223.31 266.99 242.69 257.95 245.01C248.13 246.04 239.61 245.53 230.3 245.53C230.3 254.06 230.3 264.39 230.82 272.4C231.59 292.29 241.67 296.69 255.11 296.69C265.45 296.69 277.85 289.2 282.76 276.02C284.83 273.44 290.25 274.47 294.64 276.79C298.78 279.38 302.13 283.25 301.1 287.9C293.61 304.69 277.33 318.65 251.5 318.13C222.82 317.61 208.35 304.18 207.83 273.95C208.33 264.4 207.3 254.07 207.82 246.06Z" fill="white"/>
<path d="M339.19 271.38L371.48 226.42L397.84 274.48L428.07 216.86C431.69 211.95 447.96 222.29 446.41 228.23L397.84 318.66L369.67 266.47L333.24 319.95L301.97 222.8C299.65 215.82 321.35 209.36 323.42 214.79L339.19 271.38Z" fill="white"/>
<path d="M490.49 188.18C490.49 195.42 481.96 204.46 473.95 204.46C465.94 204.46 457.67 195.42 457.67 188.18C457.67 180.69 465.94 171.64 473.95 171.64C481.96 171.65 490.49 180.69 490.49 188.18ZM484.29 306.78C484.03 312.72 463.1 314.53 463.1 306.78C462.58 269.06 463.1 230.82 462.58 224.36C462.58 218.93 484.28 217.9 484.8 224.36C484.29 251.23 484.8 238.82 484.29 306.78Z" fill="white"/>
<path d="M589.82 284.3C590.34 314.53 551.07 324.09 518 312.2C511.54 307.03 518 289.72 522.91 291.27C536.86 297.21 568.9 300.83 568.9 284.29C568.9 272.92 543.32 277.31 529.89 270.85C522.4 268.53 512.06 260.51 511.03 243.72C508.96 220.73 527.82 206 552.11 207.03C559.09 207.55 574.07 211.42 584.4 214.78C590.34 220.72 584.92 236.74 579.49 235.71C568.9 232.61 560.11 230.28 552.62 228.73C540.22 226.4 528.85 232.35 532.21 244.23C533.24 248.62 538.67 254.57 548.74 256.63C561.14 258.98 588.78 259.49 589.82 284.3Z" fill="white"/>
<path d="M633.63 246.06C620.2 246.06 610.89 245.54 600.82 245.03C598.49 244.25 597.46 238.83 597.46 233.14C597.98 228.23 599.53 223.32 602.37 223.32C612.44 223.84 623.3 223.84 634.66 223.84C634.14 209.89 635.18 195.94 635.18 180.17C635.18 174.74 654.56 174.74 657.4 179.65C657.4 192.05 656.88 207.55 656.63 223.83C664.9 223.83 674.97 223.83 684.79 223.31C689.18 223.31 692.8 242.69 683.76 245.01C673.94 246.04 665.42 245.53 656.11 245.53C656.11 254.06 656.11 264.39 656.63 272.4C657.4 292.29 667.48 296.69 680.92 296.69C691.26 296.69 703.66 289.2 708.57 276.02C710.64 273.44 716.06 274.47 720.45 276.79C724.59 279.38 727.94 283.25 726.91 287.9C719.42 304.69 703.14 318.65 677.31 318.13C648.63 317.61 634.16 304.18 633.64 273.95C634.15 264.4 633.11 254.07 633.63 246.06Z" fill="white"/>
<path d="M804.07 278.58C795.02 289.43 781.59 292.01 774.1 292.01C742.06 292.53 727.59 253.77 728.63 220.7C728.63 215.53 749.3 210.11 750.33 219.67C749.3 240.34 756.27 269.28 774.62 269.28C797.61 269.28 802 237.5 806.91 213.73C808.46 207.79 827.33 207.79 828.36 215.54C827.84 230.01 825.77 251.71 824.74 288.14C823.71 311.91 824.74 317.34 823.71 339.56C822.94 342.66 817.77 343.69 812.86 343.18C807.95 343.18 803.04 341.11 803.56 338.27C803.03 323.79 803.54 295.11 804.07 278.58Z" fill="white"/>
</svg>
